<svg width="45" height="56" viewBox="0 0 45 56" fill="none" xmlns="http://www.w3.org/2000/svg">
<path d="M22.4 56C19.3071 56 16.8 53.4929 16.8 50.4V19.1195L9.55982 26.3598C7.37285 28.5466 3.82715 28.5466 1.64018 26.3598C-0.546728 24.173 -0.546728 20.627 1.64018 18.4402L17.953 2.12761C18.037 2.04322 18.1233 1.96168 18.2112 1.88311C19.2371 0.727886 20.7334 0 22.4 0C24.0666 0 25.5629 0.727886 26.5888 1.88311C26.6767 1.96173 26.763 2.04322 26.847 2.12761L43.1598 18.4402C45.3466 20.627 45.3466 24.173 43.1598 26.3598C40.973 28.5466 37.427 28.5466 35.2402 26.3598L28 19.1195V50.4C28 53.4929 25.4929 56 22.4 56Z" fill="white"/>
</svg>
