<svg width="59" height="59" viewBox="0 0 59 59" fill="none" xmlns="http://www.w3.org/2000/svg">
<path fill-rule="evenodd" clip-rule="evenodd" d="M29.5 59C45.7924 59 59 45.7924 59 29.5C59 13.2076 45.7924 0 29.5 0C13.2076 0 0 13.2076 0 29.5C0 45.7924 13.2076 59 29.5 59Z" fill="white"/>
<path d="M43.2738 20.1994C41.5551 19.8256 39.9988 18.9035 38.8317 17.5673C37.6646 16.2312 36.9477 14.551 36.7856 12.7716V12H30.8568V35.9229C30.8531 36.982 30.5232 38.0133 29.9133 38.8719C29.3034 39.7305 28.4442 40.3732 27.4565 40.7097C26.4688 41.0463 25.4022 41.0597 24.4066 40.7481C23.411 40.4366 22.5365 39.8157 21.9058 38.9727C21.2654 38.1156 20.9102 37.0735 20.8916 35.9973C20.873 34.9211 21.1921 33.8669 21.8025 32.9875C22.413 32.1081 23.283 31.4492 24.2866 31.1065C25.2901 30.7637 26.375 30.7549 27.3838 31.0813V24.9571C25.1342 24.6409 22.8436 25.0475 20.8325 26.1201C18.8214 27.1926 17.1904 28.8775 16.1675 30.939C15.1446 33.0005 14.781 35.3354 15.1276 37.6174C15.4743 39.8993 16.5138 42.0139 18.1007 43.6656C19.6141 45.24 21.5546 46.3201 23.6744 46.7682C25.7943 47.2162 27.9974 47.0118 30.0026 46.1811C32.0077 45.3504 33.7239 43.9311 34.932 42.1043C36.1402 40.2774 36.7855 38.126 36.7856 35.9246V23.7007C39.1817 25.4423 42.0546 26.3762 45 26.3709V20.3814C44.4199 20.3821 43.8414 20.3211 43.2738 20.1994Z" fill="#990537"/>
</svg>
