<svg width="59" height="59" viewBox="0 0 59 59" fill="none" xmlns="http://www.w3.org/2000/svg">
<g clip-path="url(#clip0_720_922)">
<path d="M41.4783 20.438C41.2223 19.775 40.8303 19.173 40.3275 18.6707C39.8247 18.1684 39.2222 17.7771 38.559 17.5218C37.6457 17.1835 36.6811 17.0047 35.7073 16.9932C34.0879 16.9195 33.6024 16.901 29.5 16.901C25.3977 16.901 24.9122 16.9195 23.2927 16.9932C22.3179 17.0044 21.3522 17.1832 20.438 17.5218C19.775 17.7778 19.173 18.1698 18.6707 18.6726C18.1685 19.1754 17.7771 19.7778 17.5218 20.441C17.1835 21.3543 17.0048 22.3189 16.9932 23.2927C16.9195 24.9121 16.9011 25.3977 16.9011 29.5C16.9011 33.6024 16.9195 34.0879 16.9932 35.7073C17.0044 36.6821 17.1832 37.6478 17.5218 38.562C17.7778 39.225 18.1698 39.827 18.6726 40.3293C19.1754 40.8316 19.7778 41.223 20.4411 41.4782C21.3543 41.8165 22.3189 41.9953 23.2927 42.0068C24.9122 42.0805 25.3977 42.0959 29.5 42.0959C33.6024 42.0959 34.0879 42.0805 35.7073 42.0037C36.682 41.9935 37.6476 41.8158 38.5621 41.4782C39.225 41.2223 39.8271 40.8302 40.3293 40.3274C40.8316 39.8246 41.223 39.2222 41.4783 38.559C41.8165 37.6457 41.9953 36.6811 42.0068 35.7073C42.0805 34.0879 42.0959 33.6024 42.0959 29.5C42.0959 25.3977 42.0805 24.9121 42.0037 23.2927C41.9935 22.318 41.8158 21.3524 41.4783 20.438ZM29.5 37.3913C27.9393 37.3913 26.4136 36.9284 25.1159 36.0613C23.8182 35.1942 22.8067 33.9618 22.2095 32.5199C21.6122 31.0779 21.4559 29.4913 21.7604 27.9605C22.0649 26.4297 22.8164 25.0237 23.9201 23.92C25.0237 22.8164 26.4298 22.0649 27.9605 21.7604C29.4913 21.4559 31.0779 21.6122 32.5199 22.2094C33.9618 22.8067 35.1943 23.8182 36.0614 25.1159C36.9285 26.4136 37.3913 27.9393 37.3913 29.5C37.3913 31.5929 36.5599 33.6001 35.08 35.08C33.6001 36.5599 31.5929 37.3913 29.5 37.3913ZM37.7016 23.1421C37.337 23.1421 36.9805 23.034 36.6773 22.8314C36.3741 22.6288 36.1378 22.3409 35.9982 22.004C35.8587 21.6671 35.8222 21.2963 35.8933 20.9387C35.9645 20.581 36.1401 20.2525 36.3979 19.9947C36.6558 19.7368 36.9843 19.5612 37.3419 19.4901C37.6996 19.4189 38.0703 19.4554 38.4072 19.595C38.7441 19.7345 39.0321 19.9709 39.2347 20.2741C39.4373 20.5773 39.5454 20.9337 39.5454 21.2984C39.5454 21.7874 39.3511 22.2563 39.0054 22.6021C38.6596 22.9479 38.1906 23.1421 37.7016 23.1421ZM34.6226 29.5C34.6226 30.5132 34.3221 31.5035 33.7593 32.3459C33.1964 33.1883 32.3964 33.8449 31.4603 34.2326C30.5243 34.6203 29.4943 34.7218 28.5007 34.5241C27.507 34.3265 26.5942 33.8386 25.8778 33.1222C25.1614 32.4058 24.6735 31.493 24.4759 30.4994C24.2782 29.5057 24.3797 28.4757 24.7674 27.5397C25.1551 26.6037 25.8117 25.8036 26.6541 25.2408C27.4965 24.6779 28.4869 24.3775 29.5 24.3775C30.8586 24.3775 32.1615 24.9171 33.1222 25.8778C34.0829 26.8385 34.6226 28.1414 34.6226 29.5ZM29.5 0C23.6655 0 17.9619 1.73014 13.1107 4.97165C8.25944 8.21315 4.47835 12.8204 2.24557 18.2108C0.0127818 23.6013 -0.571417 29.5327 0.566848 35.2552C1.70511 40.9776 4.51472 46.234 8.64036 50.3597C12.766 54.4853 18.0224 57.2949 23.7449 58.4332C29.4673 59.5714 35.3988 58.9872 40.7892 56.7545C46.1796 54.5217 50.7869 50.7406 54.0284 45.8893C57.2699 41.0381 59 35.3346 59 29.5C59 21.6761 55.892 14.1727 50.3597 8.64035C44.8273 3.10803 37.3239 0 29.5 0ZM44.7724 35.8333C44.7464 37.1083 44.5043 38.3697 44.0564 39.5638C43.6618 40.5843 43.0583 41.511 42.2847 42.2846C41.511 43.0583 40.5843 43.6618 39.5638 44.0564C38.3707 44.5039 37.1104 44.746 35.8364 44.7724C34.1954 44.8462 33.673 44.8646 29.5 44.8646C25.327 44.8646 24.8046 44.8462 23.1637 44.7724C21.8897 44.746 20.6293 44.5039 19.4362 44.0564C18.4158 43.6618 17.489 43.0583 16.7154 42.2846C15.9417 41.511 15.3382 40.5843 14.9436 39.5638C14.4961 38.3707 14.254 37.1104 14.2276 35.8364C14.1539 34.1954 14.1354 33.673 14.1354 29.5C14.1354 25.327 14.1539 24.8046 14.2276 23.1637C14.253 21.8898 14.494 20.6295 14.9405 19.4362C15.3352 18.4149 15.9389 17.4874 16.7132 16.7131C17.4874 15.9389 18.4149 15.3351 19.4362 14.9405C20.6295 14.494 21.8898 14.253 23.1637 14.2276C24.8046 14.1539 25.327 14.1354 29.5 14.1354C33.673 14.1354 34.1954 14.1539 35.8364 14.2276C37.1102 14.253 38.3705 14.494 39.5638 14.9405C40.5846 15.3355 41.5115 15.9395 42.2852 16.7136C43.0588 17.4878 43.6621 18.4152 44.0564 19.4362C44.504 20.6293 44.7461 21.8896 44.7724 23.1637C44.8462 24.8046 44.8646 25.327 44.8646 29.5C44.8646 33.673 44.8462 34.1924 44.7724 35.8333Z" fill="white"/>
</g>
<defs>
<clipPath id="clip0_720_922">
<rect width="59" height="59" fill="white"/>
</clipPath>
</defs>
</svg>
