<svg width="59" height="59" viewBox="0 0 59 59" fill="none" xmlns="http://www.w3.org/2000/svg">
<g clip-path="url(#clip0_720_924)">
<path fill-rule="evenodd" clip-rule="evenodd" d="M29.5 59C45.7924 59 59 45.7924 59 29.5C59 13.2076 45.7924 0 29.5 0C13.2076 0 0 13.2076 0 29.5C0 45.7924 13.2076 59 29.5 59Z" fill="white"/>
<path fill-rule="evenodd" clip-rule="evenodd" d="M25.4385 34.6377L25.4373 23.5079L36.0647 29.092L25.4385 34.6377ZM48.773 21.5793C48.773 21.5793 48.3883 18.8497 47.2095 17.6477C45.7136 16.0694 44.037 16.062 43.2688 15.9704C37.7646 15.5693 29.5083 15.5693 29.5083 15.5693H29.4911C29.4911 15.5693 21.2348 15.5693 15.7305 15.9704C14.9611 16.062 13.2857 16.0694 11.7886 17.6477C10.6098 18.8497 10.2263 21.5793 10.2263 21.5793C10.2263 21.5793 9.83301 24.7854 9.83301 27.9903V30.9959C9.83301 34.202 10.2263 37.4069 10.2263 37.4069C10.2263 37.4069 10.6098 40.1364 11.7886 41.3384C13.2857 42.9167 15.2512 42.8672 16.1263 43.0318C19.273 43.3364 29.4997 43.4304 29.4997 43.4304C29.4997 43.4304 37.7646 43.4181 43.2688 43.017C44.037 42.9242 45.7136 42.9167 47.2095 41.3384C48.3883 40.1364 48.773 37.4069 48.773 37.4069C48.773 37.4069 49.1663 34.202 49.1663 30.9959V27.9903C49.1663 24.7854 48.773 21.5793 48.773 21.5793Z" fill="#990537"/>
</g>
<defs>
<clipPath id="clip0_720_924">
<rect width="59" height="59" fill="white"/>
</clipPath>
</defs>
</svg>
