<svg width="60" height="59" viewBox="0 0 60 59" fill="none" xmlns="http://www.w3.org/2000/svg">
<g clip-path="url(#clip0_720_928)">
<path d="M30 0C13.4297 0 0 13.2059 0 29.5C0 45.7941 13.4297 59 30 59C46.5703 59 60 45.7941 60 29.5C60 13.2059 46.5703 0 30 0ZM21.6094 41.8416H15.7617V23.4387H21.6094V41.8416ZM18.5273 21.134H18.4805C16.3594 21.134 14.9883 19.7281 14.9883 17.942C14.9883 16.1213 16.4062 14.75 18.5625 14.75C20.7187 14.75 22.043 16.1213 22.0898 17.942C22.1016 19.7166 20.7305 21.134 18.5273 21.134ZM45 41.8416H38.3672V32.3232C38.3672 29.8342 37.3359 28.1287 35.0508 28.1287C33.3047 28.1287 32.332 29.2811 31.8867 30.3873C31.7227 30.7791 31.7461 31.3322 31.7461 31.8969V41.8416H25.1719C25.1719 41.8416 25.2539 24.9713 25.1719 23.4387H31.7461V26.3311C32.1328 25.0635 34.2305 23.2658 37.582 23.2658C41.7422 23.2658 45 25.9162 45 31.6088V41.8416Z" fill="white"/>
</g>
<defs>
<clipPath id="clip0_720_928">
<rect width="60" height="59" fill="white"/>
</clipPath>
</defs>
</svg>
