<?xml version="1.0" encoding="UTF-8"?>
<!DOCTYPE svg PUBLIC "-//W3C//DTD SVG 1.1//EN" "http://www.w3.org/Graphics/SVG/1.1/DTD/svg11.dtd">
<!-- Creator: CorelDRAW X8 -->
<svg xmlns="http://www.w3.org/2000/svg" xml:space="preserve" width="10.7337mm" height="14.3734mm" version="1.1" style="shape-rendering:geometricPrecision; text-rendering:geometricPrecision; image-rendering:optimizeQuality; fill-rule:evenodd; clip-rule:evenodd"
viewBox="0 0 233 312"
 xmlns:xlink="http://www.w3.org/1999/xlink">
 <defs>
  <style type="text/css">
   <![CDATA[
    .fil0 {fill:#fc0;fill-rule:nonzero}
   ]]>
  </style>
 </defs>
 <g id="Capa_x0020_1">
  <path class="fil0" d="M222 312l-189 0c-9,0 -17,-4 -23,-10 -6,-6 -10,-14 -10,-24l0 -245c0,-9 4,-17 10,-23l0 0c6,-6 14,-10 23,-10l200 0 0 260 -211 0 0 18c0,4 1,7 3,9 2,2 5,3 8,3l189 0 0 22zm-200 -279l0 205 189 0 0 -216 -34 0 0 34 -22 0 0 -34 -122 0c-3,0 -6,1 -8,3l0 0c-2,2 -3,5 -3,8z"/>
 </g>
</svg>
