<svg width="119" height="40" viewBox="0 0 119 40" fill="none" xmlns="http://www.w3.org/2000/svg">
<path fill-rule="evenodd" clip-rule="evenodd" d="M50.9881 4.72795H50.6973C50.5348 4.70898 50.3702 4.7272 50.2157 4.78124C50.0612 4.83527 49.9208 4.92374 49.8052 5.04C49.6895 5.15626 49.6015 5.29732 49.5477 5.45261C49.494 5.60789 49.4758 5.77339 49.4947 5.93672V19.5808C49.4947 23.531 47.1367 25.9011 43.2696 25.9011C39.4024 25.9011 36.9815 23.531 36.9815 19.5808V5.93672C37.0002 5.77413 36.9822 5.6094 36.9288 5.45477C36.8755 5.30013 36.7882 5.15954 36.6735 5.04343C36.5587 4.92732 36.4194 4.83867 36.2659 4.78406C36.1124 4.72945 35.9487 4.71027 35.7868 4.72795H35.496C35.3335 4.70898 35.1688 4.7272 35.0143 4.78124C34.8598 4.83527 34.7195 4.92374 34.6038 5.04C34.4882 5.15626 34.4002 5.29732 34.3464 5.45261C34.2926 5.60789 34.2745 5.77339 34.2934 5.93672V19.5808C34.2934 25.2138 37.6496 28.5714 43.2696 28.5714C48.8895 28.5714 52.1829 25.2059 52.1829 19.5808V5.93672C52.2017 5.77339 52.1836 5.60789 52.1298 5.45261C52.0761 5.29732 51.9881 5.15626 51.8724 5.04C51.7567 4.92374 51.6164 4.83527 51.4619 4.78124C51.3074 4.7272 51.1428 4.70898 50.9803 4.72795M74.922 4.72795H74.6312C74.4687 4.70898 74.304 4.7272 74.1495 4.78124C73.995 4.83527 73.8547 4.92374 73.739 5.04C73.6234 5.15626 73.5354 5.29732 73.4816 5.45261C73.4278 5.60789 73.4097 5.77339 73.4286 5.93672V24.1077L59.9014 5.44689C59.7584 5.2168 59.5571 5.02901 59.3182 4.9027C59.0793 4.77639 58.8113 4.71608 58.5416 4.72795H57.5198C57.3573 4.70898 57.1927 4.7272 57.0382 4.78124C56.8837 4.83527 56.7434 4.92374 56.6277 5.04C56.512 5.15626 56.424 5.29732 56.3703 5.45261C56.3165 5.60789 56.2984 5.77339 56.3172 5.93672V26.8491C56.2984 27.0125 56.3165 27.178 56.3703 27.3333C56.424 27.4885 56.512 27.6296 56.6277 27.7459C56.7434 27.8621 56.8837 27.9506 57.0382 28.0046C57.1927 28.0587 57.3573 28.0769 57.5198 28.0579H57.8106C57.97 28.0706 58.1302 28.0476 58.2798 27.9908C58.4293 27.9339 58.5645 27.8446 58.6757 27.7291C58.7868 27.6135 58.8712 27.4748 58.9228 27.3227C58.9743 27.1705 58.9918 27.0088 58.9739 26.8491V8.67816L72.509 27.3469C72.652 27.577 72.8533 27.7647 73.0922 27.8911C73.3311 28.0174 73.5991 28.0777 73.8687 28.0658H74.8905C75.053 28.0848 75.2177 28.0666 75.3722 28.0125C75.5267 27.9585 75.667 27.87 75.7827 27.7538C75.8984 27.6375 75.9864 27.4964 76.0401 27.3412C76.0939 27.1859 76.112 27.0204 76.0931 26.857V5.93672C76.111 5.77702 76.0935 5.61533 76.042 5.46321C75.9904 5.31109 75.906 5.17231 75.7949 5.05681C75.6837 4.9413 75.5485 4.85192 75.399 4.79507C75.2494 4.73822 75.0892 4.7153 74.9298 4.72795H74.922ZM86.9479 14.2954C83.9532 13.3473 82.9392 12.4467 82.9392 10.7007C82.952 10.2008 83.0649 9.70869 83.2711 9.25366C83.4773 8.79863 83.7727 8.39005 84.1395 8.05231C84.5063 7.71457 84.9371 7.4546 85.4061 7.28794C85.8751 7.12127 86.3728 7.05133 86.8693 7.08228C87.5198 7.08923 88.158 7.2617 88.7242 7.58359C89.2905 7.90549 89.7664 8.36631 90.1076 8.92308C90.222 9.18896 90.414 9.41366 90.6582 9.56743C90.9024 9.72121 91.1873 9.79681 91.4753 9.78422H91.9862C92.169 9.79837 92.3525 9.76765 92.5209 9.69471C92.6893 9.62177 92.8376 9.50879 92.9529 9.3655C93.0453 9.21954 93.0995 9.05248 93.1105 8.87984C93.1215 8.70719 93.0889 8.53456 93.0158 8.37795C92.5146 7.16211 91.6577 6.12804 90.5586 5.41273C89.4596 4.69742 88.1702 4.33463 86.8614 4.37243C82.9314 4.37243 80.1253 7.03487 80.1253 10.6928C80.1253 14.3507 82.7978 16.0256 86.8142 17.2659C90.4063 18.3878 91.6796 19.4938 91.6796 21.5006C91.6796 23.9339 89.6989 25.6325 86.8614 25.6325C85.918 25.6593 84.9875 25.4071 84.1854 24.9071C83.3834 24.4071 82.745 23.6814 82.3497 22.8199C82.2745 22.5294 82.1023 22.2736 81.8619 22.0953C81.6216 21.917 81.3277 21.827 81.0292 21.8403H80.6441C80.4623 21.8253 80.2794 21.8531 80.1102 21.9217C79.941 21.9903 79.7901 22.0977 79.6695 22.2353C79.5728 22.3739 79.5109 22.5339 79.489 22.7017C79.4671 22.8695 79.4859 23.0402 79.5437 23.1991C80.0479 24.7338 81.0319 26.0637 82.3492 26.9905C83.6664 27.9173 85.2464 28.3915 86.8535 28.3423C91.2552 28.3423 94.4542 25.4666 94.4542 21.5085C94.4542 17.5503 91.491 15.7332 86.9557 14.2954H86.9479Z" fill="#6E6E6E"/>
<path fill-rule="evenodd" clip-rule="evenodd" d="M118.165 26.4561L108.676 5.57068C108.566 5.30618 108.377 5.08136 108.134 4.92682C107.891 4.77227 107.606 4.69552 107.317 4.70699H106.443C106.153 4.69612 105.867 4.77403 105.623 4.93005C105.38 5.08607 105.191 5.31257 105.084 5.57853L95.6025 26.4561C95.5104 26.6137 95.4619 26.7924 95.4619 26.9743C95.4619 27.1563 95.5104 27.335 95.6025 27.4925C95.7084 27.6338 95.8501 27.7452 96.0132 27.8154C96.1764 27.8857 96.3554 27.9124 96.5323 27.893H96.9535C97.2433 27.9039 97.5295 27.8259 97.7727 27.6699C98.016 27.5139 98.2045 27.2874 98.3125 27.0214L99.9019 23.4489H105.258C105.412 23.4489 105.56 23.3885 105.669 23.2811C105.777 23.1736 105.839 23.0278 105.839 22.8758V21.4154C105.839 21.2633 105.777 21.1175 105.669 21.0101C105.56 20.9026 105.412 20.8422 105.258 20.8422H101.07L106.745 8.45224C106.758 8.42394 106.779 8.40001 106.806 8.38325C106.833 8.36648 106.864 8.35758 106.896 8.35758C106.927 8.35758 106.958 8.36648 106.985 8.38325C107.012 8.40001 107.033 8.42394 107.047 8.45224L112.665 20.8422H108.493C108.339 20.8422 108.191 20.9026 108.083 21.0101C107.974 21.1175 107.913 21.2633 107.913 21.4154V22.8679C107.913 23.0199 107.974 23.1657 108.083 23.2732C108.191 23.3807 108.339 23.4411 108.493 23.4411H113.833L115.479 27.0214C115.588 27.2859 115.777 27.5108 116.02 27.6653C116.263 27.8199 116.549 27.8966 116.838 27.8851H117.227C117.408 27.9017 117.59 27.873 117.757 27.8017C117.923 27.7303 118.069 27.6186 118.181 27.4768C118.271 27.3217 118.319 27.1457 118.319 26.9665C118.319 26.7873 118.271 26.6113 118.181 26.4561" fill="#990537"/>
<path d="M117.984 29.916H34.2861V30.2521H117.984V29.916Z" fill="#990537"/>
<path fill-rule="evenodd" clip-rule="evenodd" d="M15.9703 0C24.7836 0 31.9328 8.95276 31.9328 20C31.9328 31.0472 24.7836 40 15.9703 40C7.15694 40 0 31.0472 0 20C0 8.95276 7.14913 0 15.9703 0Z" fill="#1A1A18"/>
<path fill-rule="evenodd" clip-rule="evenodd" d="M15.9662 0.336121C24.593 0.336121 31.5964 9.12194 31.5964 20C31.5964 30.878 24.6009 39.6639 15.9662 39.6639C7.33151 39.6639 0.335938 30.7994 0.335938 19.9607C0.335938 9.12194 7.33151 0.336121 15.9662 0.336121Z" fill="#D7B46A"/>
<path fill-rule="evenodd" clip-rule="evenodd" d="M15.9668 1.00842C24.2173 1.00842 30.9248 9.44086 30.9248 19.832C30.9248 30.223 24.2409 38.6555 15.9668 38.6555C7.69265 38.6555 1.00879 30.223 1.00879 19.832C1.00879 9.44086 7.69265 1.00842 15.9668 1.00842Z" fill="#1A1A18"/>
<path fill-rule="evenodd" clip-rule="evenodd" d="M15.9705 1.34454C24.0472 1.34454 30.5884 9.69538 30.5884 20C30.5884 30.3046 24.0393 38.6555 15.9705 38.6555C7.90164 38.6555 1.34473 30.3046 1.34473 20C1.34473 9.69538 7.89381 1.34454 15.9705 1.34454Z" fill="#D7B46A"/>
<path fill-rule="evenodd" clip-rule="evenodd" d="M15.9664 5.37817C21.9988 5.37817 26.8907 11.9208 26.8907 20C26.8907 28.0793 21.9988 34.6219 15.9664 34.6219C9.93397 34.6219 5.04199 28.0713 5.04199 20C5.04199 11.9287 9.93397 5.37817 15.9664 5.37817Z" fill="#1A1A18"/>
<path fill-rule="evenodd" clip-rule="evenodd" d="M15.9662 5.71436C21.8139 5.71436 26.5544 12.1099 26.5544 20.0001C26.5544 27.8903 21.8139 34.2858 15.9662 34.2858C10.1185 34.2858 5.37793 27.8903 5.37793 20.0001C5.37793 12.1099 10.1185 5.71436 15.9662 5.71436Z" fill="#860E04"/>
<path fill-rule="evenodd" clip-rule="evenodd" d="M26.4859 19.4958C27.2597 25.6863 23.3287 34.4613 16.0007 34.4613C8.67273 34.4613 4.55605 26.1041 5.51558 19.4958H26.4859Z" fill="#1A1A18"/>
<mask id="mask0_602_369" style="mask-type:alpha" maskUnits="userSpaceOnUse" x="5" y="19" width="22" height="16">
<path fill-rule="evenodd" clip-rule="evenodd" d="M26.4859 19.4958C27.2597 25.6863 23.3287 34.4613 16.0007 34.4613C8.67273 34.4613 4.55605 26.1041 5.51558 19.4958H26.4859Z" fill="#1A1A18"/>
</mask>
<g mask="url(#mask0_602_369)">
<path d="M-2.72559 34.6934L-2.67142 34.6006L-1.47201 32.4803L-0.288079 30.3291L0.895853 28.147C1.28276 27.4299 1.6774 26.7129 2.07978 25.9958C2.47443 25.2762 2.8536 24.5642 3.26372 23.8446C3.67384 23.125 4.03753 22.4131 4.44765 21.7011L5.63158 19.55L5.67801 19.4571" stroke="#A37400" stroke-width="0.57" stroke-miterlimit="22.93"/>
<path d="M0.25293 34.6935L0.299358 34.6006L1.2821 32.4804L2.27258 30.3292L3.26306 28.178C3.58032 27.4584 3.9208 26.7465 4.25354 26.0268C4.58628 25.3072 4.91128 24.5953 5.24402 23.8756C5.57675 23.156 5.90176 22.4441 6.23449 21.7322C6.56723 21.0202 6.89223 20.3006 7.22497 19.581L7.26366 19.4881" stroke="#A37400" stroke-width="0.57" stroke-miterlimit="22.93"/>
<path d="M3.20898 34.6934V34.6006C3.47982 33.8887 3.73518 33.169 3.9828 32.4494L4.75661 30.2982L5.53042 28.147C5.78578 27.4274 6.05661 26.7154 6.30423 25.9958C6.55185 25.2762 6.83042 24.5642 7.07804 23.8446C7.32566 23.125 7.60423 22.4131 7.85185 21.7011L8.62567 19.55V19.4571" stroke="#A37400" stroke-width="0.57" stroke-miterlimit="22.93"/>
<path d="M6.15723 34.6935V34.6007L6.79175 32.4804L7.39533 30.3292L7.9989 28.178C8.19493 27.461 8.39612 26.7439 8.60247 26.0268C8.80366 25.3072 8.99712 24.5953 9.20605 23.8756C9.41497 23.156 9.60069 22.4441 9.80962 21.7322L10.4287 19.5578C10.4305 19.5268 10.4305 19.4958 10.4287 19.4649" stroke="#A37400" stroke-width="0.57" stroke-miterlimit="22.93"/>
<path d="M9.1216 34.6934C9.11962 34.6625 9.11962 34.6315 9.1216 34.6006C9.26089 33.8835 9.39501 33.1665 9.52398 32.4494C9.66327 31.7375 9.79482 31.0178 9.9341 30.2982C10.0734 29.5785 10.2049 28.8666 10.3365 28.147C10.468 27.4274 10.6073 26.7154 10.7389 25.9958C10.8704 25.2762 11.0097 24.5642 11.149 23.8446C11.2883 23.125 11.4198 22.4131 11.5591 21.7011C11.6984 20.9892 11.8299 20.2696 11.9615 19.55V19.4571" stroke="#A37400" stroke-width="0.57" stroke-miterlimit="22.93"/>
<path d="M12.0771 34.6935C12.0771 34.6935 12.0771 34.6316 12.0771 34.6006L12.3016 32.4804C12.3712 31.7685 12.4408 31.0488 12.5105 30.3292C12.5801 29.6096 12.6498 28.8976 12.7272 28.178C12.8045 27.4584 12.8664 26.7465 12.9361 26.0268C13.0057 25.3072 13.0754 24.5953 13.1527 23.8756C13.2301 23.156 13.292 22.4441 13.3694 21.7322C13.4468 21.0202 13.5087 20.3006 13.5783 19.581C13.5804 19.55 13.5804 19.519 13.5783 19.4881" stroke="#A37400" stroke-width="0.57" stroke-miterlimit="22.93"/>
<path d="M15.0723 34.6934V34.6006C15.0723 33.8887 15.0723 33.169 15.0723 32.4494C15.0723 31.7297 15.0723 31.0178 15.0723 30.2982C15.0723 29.5785 15.0723 28.8666 15.0723 28.147C15.0723 27.4274 15.0723 26.7154 15.0723 25.9958C15.0723 25.2762 15.0723 24.5642 15.0723 23.8446C15.0723 23.125 15.0723 22.4131 15.0723 21.7011C15.0723 20.9892 15.0723 20.2696 15.0723 19.55C15.0744 19.519 15.0744 19.488 15.0723 19.4571" stroke="#A37400" stroke-width="0.57" stroke-miterlimit="22.93"/>
<path d="M17.9892 34.6935C17.9892 34.6935 17.9892 34.6316 17.9892 34.6006L17.8034 32.4804C17.7493 31.7685 17.6796 31.0488 17.6255 30.3292L17.4552 28.178C17.3933 27.4584 17.3314 26.7465 17.2695 26.0268C17.2076 25.3072 17.1534 24.5953 17.0993 23.8756C17.0451 23.156 16.9832 22.4441 16.929 21.7322L16.7588 19.581C16.7609 19.55 16.7609 19.519 16.7588 19.4881" stroke="#A37400" stroke-width="0.57" stroke-miterlimit="22.93"/>
<path d="M20.9448 34.6934C20.9448 34.6934 20.9448 34.6315 20.9448 34.6006C20.8262 33.8835 20.7023 33.1665 20.5734 32.4494C20.4496 31.7375 20.3258 31.0178 20.202 30.2982C20.0781 29.5785 19.9543 28.8666 19.8305 28.147C19.7067 27.4274 19.5829 26.7154 19.4591 25.9958C19.3353 25.2762 19.2115 24.5642 19.0877 23.8446C18.9638 23.125 18.84 22.4131 18.724 21.7011C18.6079 20.9892 18.4763 20.2696 18.3525 19.55C18.3544 19.519 18.3544 19.488 18.3525 19.4571" stroke="#A37400" stroke-width="0.57" stroke-miterlimit="22.93"/>
<path d="M23.9012 34.6935C23.9031 34.6626 23.9031 34.6316 23.9012 34.6007L23.3131 32.4804C23.1222 31.7634 22.934 31.0463 22.7482 30.3292C22.5625 29.6122 22.3742 28.8951 22.1834 28.178L21.6107 26.0268C21.425 25.3072 21.2393 24.5953 21.0459 23.8756C20.8524 23.156 20.6744 22.4209 20.4887 21.709C20.303 20.9971 20.1095 20.2774 19.9238 19.5578C19.9256 19.5268 19.9256 19.4958 19.9238 19.4649" stroke="#A37400" stroke-width="0.57" stroke-miterlimit="22.93"/>
<path d="M26.8567 34.6934C26.8567 34.6934 26.8567 34.6315 26.8567 34.6006C26.6091 33.8887 26.3538 33.169 26.0829 32.4494C25.8121 31.7297 25.5799 31.0178 25.3091 30.2982C25.0383 29.5785 24.8061 28.8666 24.5353 28.147L23.7615 25.9958C23.5139 25.2787 23.2559 24.5617 22.9877 23.8446C22.7323 23.1327 22.4847 22.4131 22.2139 21.7011L21.4401 19.55C21.4289 19.5183 21.416 19.4873 21.4014 19.4571" stroke="#A37400" stroke-width="0.57" stroke-miterlimit="22.93"/>
<path d="M29.7742 34.6935V34.5929L28.8147 32.4804L27.8552 30.3292L26.9111 28.1471C26.5861 27.4274 26.2766 26.7155 25.9516 25.9959C25.6266 25.2762 25.3171 24.5643 24.9998 23.8447C24.6825 23.125 24.3575 22.4209 24.0558 21.709L23.0962 19.5578L23.0498 19.4649" stroke="#A37400" stroke-width="0.57" stroke-miterlimit="22.93"/>
<path d="M32.7695 34.6934C32.7695 34.6934 32.7308 34.6315 32.7153 34.6006L31.5701 32.4803L30.4171 30.3291L29.2796 28.147L28.1266 25.9958C27.7474 25.2762 27.3528 24.5642 26.9814 23.8446L25.8439 21.7011C25.457 20.9892 25.0701 20.2696 24.6909 19.55L24.6367 19.4571" stroke="#A37400" stroke-width="0.57" stroke-miterlimit="22.93"/>
<path d="M35.7249 34.6935L35.663 34.6007L34.3243 32.4804L32.9779 30.3292L31.6392 28.1471L30.2928 25.9959C29.8517 25.2762 29.4029 24.5643 28.9541 23.8447L27.6154 21.7012L26.2689 19.5578L26.207 19.4649" stroke="#A37400" stroke-width="0.57" stroke-miterlimit="22.93"/>
<path d="M-5.69727 34.5928H38.7118" stroke="#A37400" stroke-width="0.57" stroke-miterlimit="22.93"/>
<path d="M-4.27344 32.4804H37.1719" stroke="#A37400" stroke-width="0.57" stroke-miterlimit="22.93"/>
<path d="M-2.92676 30.2982H35.6245" stroke="#A37400" stroke-width="0.57" stroke-miterlimit="22.93"/>
<path d="M-1.54199 28.147H34.0533" stroke="#A37400" stroke-width="0.57" stroke-miterlimit="22.93"/>
<path d="M-0.157227 26.0036H32.5363" stroke="#A37400" stroke-width="0.57" stroke-miterlimit="22.93"/>
<path d="M1.22852 23.8524H30.9971" stroke="#A37400" stroke-width="0.57" stroke-miterlimit="22.93"/>
<path d="M2.61328 21.7089H29.4568" stroke="#A37400" stroke-width="0.57" stroke-miterlimit="22.93"/>
<path d="M3.99805 19.5577H27.9166" stroke="#A37400" stroke-width="0.57" stroke-miterlimit="22.93"/>
</g>
<path d="M7.18762 22.7368V23.1003C12.0916 23.1382 17.2154 23.4335 21.5387 23.229C22.1429 22.1992 22.8805 21.139 23.4847 20.1016L23.7122 21.5252L21.5544 24.6375L7.80749 24.4179V23.9181C7.59564 24.2589 7.28178 24.6072 7.06993 24.948C7.06993 24.948 6.96792 25.1979 7.37594 25.2206C7.78395 25.2433 21.4995 25.5462 21.4995 25.5462C21.4995 25.5462 21.8212 25.4856 21.9154 25.3115C22.0095 25.1373 24.0339 21.9796 24.0339 21.9796L24.1673 21.7675C24.2144 21.3359 24.2693 19.6927 23.9084 19.4958L11.0481 19.6245C11.0481 19.6245 7.78395 22.2597 7.18762 22.7368Z" stroke="#3A3A39" stroke-width="0.23" stroke-linecap="round" stroke-linejoin="round"/>
<path fill-rule="evenodd" clip-rule="evenodd" d="M7.18762 22.7409V23.1048C12.0916 23.1427 17.2154 23.4384 21.5387 23.2337C22.1429 22.2026 22.8805 21.1411 23.4847 20.1023L23.7122 21.5202L21.5544 24.6364L7.80749 24.4165V23.9161C7.59564 24.2573 7.28178 24.606 7.06993 24.9472C7.06993 24.9472 6.96792 25.1974 7.37594 25.2202C7.78395 25.2429 21.4995 25.5462 21.4995 25.5462C21.4995 25.5462 21.8212 25.4856 21.9154 25.3112C22.0095 25.1368 24.0339 21.9827 24.0339 21.9827L24.1673 21.7704C24.2144 21.3382 24.2693 19.6929 23.9084 19.4958L11.0481 19.6247C11.0481 19.6247 7.7918 22.2632 7.18762 22.7409Z" fill="#0075BE"/>
<path fill-rule="evenodd" clip-rule="evenodd" d="M7.73145 23.3159V24.6446L21.3864 24.874L23.5298 21.6234L23.3271 20.2788V20.1681L23.257 20.3025L21.402 23.4662C17.2712 23.6797 12.3844 23.395 7.76262 23.3475" fill="#FFF7B2"/>
<path d="M7.73145 23.3159V24.6446L21.3864 24.874L23.5298 21.6234L23.3271 20.2788V20.1681L23.257 20.3025L21.402 23.4662C17.2323 23.6481 12.3533 23.3633 7.73145 23.3159Z" stroke="#6E6E6E" stroke-width="0.28" stroke-linecap="round" stroke-linejoin="round"/>
<path d="M12.1006 20.7347L9.703 20.5042L8.73926 21.3108V21.5006C8.73926 21.5006 8.73926 21.5006 8.83328 21.5006C8.94723 21.4664 9.05737 21.4232 9.16236 21.3718C9.38131 21.3547 9.60159 21.3547 9.82053 21.3718L10.2906 21.4193C10.4002 21.4803 10.5287 21.511 10.6589 21.5074C10.8861 21.5074 11.1604 21.5074 11.3014 21.5074C11.4188 21.5144 11.5366 21.5144 11.654 21.5074L11.7402 21.4261L12.1006 20.7347Z" stroke="#C0932E" stroke-width="0.22" stroke-linecap="round" stroke-linejoin="round"/>
<path fill-rule="evenodd" clip-rule="evenodd" d="M12.1006 20.7347L9.703 20.5042L8.73926 21.3108V21.5006C8.73926 21.5006 8.73926 21.5006 8.83328 21.5006C8.94725 21.4664 9.05739 21.4233 9.16236 21.3718C9.38131 21.3548 9.60159 21.3548 9.82053 21.3718L10.2906 21.4193C10.4002 21.4803 10.5287 21.511 10.6589 21.5074C10.8861 21.5074 11.1604 21.5074 11.3014 21.5074C11.4188 21.5144 11.5366 21.5144 11.654 21.5074L11.7402 21.4261L12.1006 20.7347Z" fill="#FFF7B2"/>
<path fill-rule="evenodd" clip-rule="evenodd" d="M13.0936 19.5025L11.4287 21.0697V21.485L18.0015 21.8141V22.5977L11.4287 22.3862V22.9895L17.8516 23.1933C18.0784 23.1504 18.2872 23.0413 18.4512 22.8798C18.4512 22.7936 19.8321 21.101 19.8321 21.101L19.6032 19.5338C17.3939 19.6122 15.3187 19.4633 13.0936 19.5025Z" fill="#9C0A0F"/>
<path d="M13.0936 19.5025L11.4287 21.0697V21.485L18.0015 21.8141V22.5977L11.4287 22.3862V22.9895L17.8516 23.1933C18.0784 23.1504 18.2872 23.0413 18.4512 22.8798C18.4512 22.7936 19.8321 21.101 19.8321 21.101L19.6032 19.5338C17.3939 19.6122 15.3187 19.4633 13.0936 19.5025Z" stroke="#3A3A39" stroke-width="0.23" stroke-linecap="round" stroke-linejoin="round"/>
<path fill-rule="evenodd" clip-rule="evenodd" d="M11.4287 21.5126V22.3345L17.8153 22.521V21.8303L11.4287 21.5126Z" fill="#FFF7B2"/>
<path d="M11.4287 21.5126V22.3345L17.8153 22.521V21.8303L11.4287 21.5126Z" stroke="#3A3A39" stroke-width="0.23" stroke-linecap="round" stroke-linejoin="round"/>
<path d="M17.8154 21.8487L19.4961 19.4958" stroke="#3A3A39" stroke-width="0.23" stroke-linecap="round" stroke-linejoin="round"/>
<path d="M16.6803 12.437C16.6661 12.4591 16.6599 12.4862 16.6627 12.5129C16.6656 12.5397 16.6773 12.5645 16.6957 12.5827C16.7142 12.6008 16.7381 12.6111 16.763 12.6116C16.7879 12.6121 16.8121 12.6028 16.8312 12.5855V12.5855C16.8315 12.6069 16.8374 12.6277 16.8483 12.6456C16.8592 12.6634 16.8746 12.6775 16.8927 12.6861C16.9108 12.6947 16.9308 12.6975 16.9503 12.6942C16.9698 12.6908 16.988 12.6814 17.0027 12.6672V12.6672C17.0043 12.6863 17.012 12.7042 17.0246 12.7178C17.0371 12.7314 17.0537 12.7398 17.0713 12.7414V12.7414C17.0713 12.7611 17.0786 12.78 17.0914 12.794C17.1043 12.8079 17.1218 12.8157 17.14 12.8157V12.8157C17.1373 12.8279 17.1373 12.8406 17.14 12.8528C17.1399 12.8733 17.1469 12.893 17.1596 12.9081C17.1723 12.9233 17.1898 12.9327 17.2086 12.9345C17.1987 12.9454 17.1921 12.9592 17.1897 12.9742C17.1873 12.9892 17.1892 13.0047 17.1952 13.0184C17.2012 13.0322 17.211 13.0437 17.2232 13.0513C17.2354 13.0588 17.2494 13.0622 17.2634 13.0608C17.2497 13.0657 17.2378 13.0751 17.2293 13.0878C17.2208 13.1005 17.2163 13.1157 17.2163 13.1313C17.2163 13.147 17.2208 13.1622 17.2293 13.1749C17.2378 13.1876 17.2497 13.197 17.2634 13.2019C17.2478 13.2117 17.2348 13.2257 17.2257 13.2427C17.2166 13.2596 17.2119 13.2789 17.2119 13.2984C17.2119 13.318 17.2166 13.3373 17.2257 13.3542C17.2348 13.3712 17.2478 13.3852 17.2634 13.395C17.2493 13.4051 17.2377 13.4189 17.2297 13.4351C17.2216 13.4513 17.2174 13.4694 17.2174 13.4878C17.2174 13.5062 17.2216 13.5243 17.2297 13.5405C17.2377 13.5567 17.2493 13.5705 17.2634 13.5807C17.2435 13.5883 17.2263 13.6023 17.214 13.6209C17.2017 13.6395 17.195 13.6618 17.1948 13.6846C17.187 13.7087 17.187 13.7349 17.1948 13.7589V13.7589C17.1675 13.7589 17.1414 13.7706 17.1221 13.7915C17.1028 13.8124 17.0919 13.8407 17.0919 13.8703C17.09 13.8826 17.09 13.8951 17.0919 13.9074C17.0695 13.9124 17.0492 13.9253 17.0343 13.9441C17.0193 13.9629 17.0107 13.9866 17.0096 14.0114C17.0068 14.0261 17.0068 14.0413 17.0096 14.056V14.056C16.9823 14.056 16.9561 14.0677 16.9368 14.0886C16.9175 14.1095 16.9067 14.1378 16.9067 14.1674V14.1674C16.8847 14.1681 16.8635 14.1764 16.8462 14.1911C16.829 14.2058 16.8165 14.2261 16.8106 14.2491V14.2491C16.8045 14.2648 16.7951 14.2787 16.7832 14.2899C16.7712 14.301 16.7571 14.3091 16.7419 14.3134C16.7266 14.3177 16.7107 14.3181 16.6952 14.3147C16.6798 14.3113 16.6653 14.3041 16.6528 14.2936C16.6504 14.3269 16.6584 14.3601 16.6756 14.3878C16.6927 14.4155 16.718 14.4362 16.7473 14.4465C16.7766 14.4568 16.8083 14.4561 16.8372 14.4445C16.8661 14.433 16.8906 14.4112 16.9067 14.3827C16.934 14.3827 16.9602 14.371 16.9795 14.3501C16.9988 14.3292 17.0096 14.3009 17.0096 14.2713V14.2713C17.0268 14.2716 17.0439 14.2673 17.0591 14.2586C17.0744 14.2499 17.0874 14.2373 17.097 14.2217C17.1065 14.2062 17.1123 14.1883 17.1138 14.1698C17.1154 14.1512 17.1125 14.1325 17.1056 14.1154V14.1154C17.1088 14.13 17.1146 14.1438 17.1227 14.156C17.1308 14.1682 17.141 14.1786 17.1528 14.1865C17.1646 14.1945 17.1777 14.1998 17.1914 14.2022C17.2051 14.2047 17.2191 14.2042 17.2326 14.2008C17.2461 14.1974 17.2589 14.1911 17.2701 14.1824C17.2814 14.1736 17.291 14.1625 17.2983 14.1498C17.3056 14.137 17.3106 14.1228 17.3128 14.108C17.3151 14.0932 17.3146 14.078 17.3115 14.0634C17.3135 14.0511 17.3135 14.0385 17.3115 14.0263C17.3289 14.0214 17.3449 14.0116 17.3578 13.998C17.3707 13.9843 17.3801 13.9672 17.3849 13.9484C17.3898 13.9296 17.39 13.9097 17.3855 13.8908C17.3811 13.8719 17.3721 13.8546 17.3595 13.8406V13.8406C17.3811 13.8406 17.4022 13.8332 17.4197 13.8196C17.4372 13.8059 17.4503 13.7866 17.4571 13.7644C17.464 13.7422 17.4642 13.7183 17.4577 13.696C17.4513 13.6737 17.4385 13.6541 17.4212 13.6401C17.4386 13.6309 17.4533 13.6167 17.4636 13.599C17.4739 13.5812 17.4793 13.5607 17.4793 13.5398C17.4793 13.5189 17.4739 13.4984 17.4636 13.4806C17.4533 13.4629 17.4386 13.4487 17.4212 13.4395C17.4386 13.4304 17.4533 13.4162 17.4636 13.3985C17.4739 13.3807 17.4793 13.3602 17.4793 13.3393C17.4793 13.3184 17.4739 13.2979 17.4636 13.2801C17.4533 13.2624 17.4386 13.2482 17.4212 13.239V13.239C17.4304 13.2291 17.4367 13.2166 17.4396 13.203C17.4424 13.1893 17.4416 13.1751 17.4373 13.1619C17.433 13.1487 17.4254 13.1371 17.4153 13.1284C17.4051 13.1197 17.3929 13.1143 17.3801 13.1128V13.1128C17.3959 13.1057 17.4088 13.0924 17.416 13.0755C17.4233 13.0587 17.4244 13.0395 17.4193 13.0218C17.4141 13.0041 17.403 12.9891 17.3881 12.9798C17.3732 12.9705 17.3557 12.9676 17.3389 12.9717C17.3488 12.9609 17.3554 12.947 17.3578 12.932C17.3602 12.917 17.3583 12.9015 17.3523 12.8878C17.3463 12.874 17.3365 12.8625 17.3243 12.855C17.3121 12.8474 17.298 12.844 17.284 12.8454H17.2429C17.255 12.8357 17.2639 12.822 17.2681 12.8063C17.2723 12.7906 17.2717 12.7739 17.2662 12.7587C17.2607 12.7434 17.2508 12.7306 17.2379 12.7221C17.225 12.7136 17.2098 12.71 17.1948 12.7117H17.1468M16.6254 12.838C16.6254 12.838 16.7146 13.0014 16.6734 13.1053C16.6464 13.1628 16.6235 13.2224 16.6048 13.2836C16.6048 13.3504 16.5499 13.343 16.5636 13.4247C16.5581 13.5187 16.5581 13.6129 16.5636 13.7069C16.5636 13.8406 16.6391 13.8332 16.6528 13.9965C16.6737 14.0867 16.6737 14.1811 16.6528 14.2713C16.6952 14.2705 16.7368 14.2593 16.7746 14.2386C16.8124 14.2179 16.8453 14.1883 16.8711 14.1519C16.8968 14.1154 16.9146 14.0732 16.9231 14.0283C16.9317 13.9834 16.9307 13.937 16.9204 13.8926C16.8381 13.5732 16.7695 13.5138 16.7763 13.4618C16.7832 13.4098 16.8175 13.3876 16.8655 13.291C16.9135 13.1945 16.9616 13.0311 16.9135 12.9717C16.8655 12.9123 16.9135 12.8528 16.9135 12.7711C16.8305 12.7014 16.7302 12.66 16.6254 12.6523C16.5568 12.6003 16.6254 12.838 16.6254 12.838ZM16.447 12.838C16.447 12.838 16.3578 13.0014 16.399 13.1053C16.4237 13.163 16.4444 13.2226 16.4607 13.2836C16.4607 13.3504 16.5156 13.343 16.5019 13.4247C16.5073 13.5187 16.5073 13.6129 16.5019 13.7069C16.5019 13.8406 16.4264 13.8257 16.4058 13.9965C16.3846 14.0867 16.3846 14.1812 16.4058 14.2713C16.3633 14.2697 16.3217 14.2576 16.2842 14.236C16.2466 14.2144 16.214 14.1839 16.1889 14.1467C16.1639 14.1095 16.1469 14.0667 16.1393 14.0214C16.1317 13.9761 16.1337 13.9295 16.1451 13.8851C16.2275 13.5658 16.3029 13.5064 16.2961 13.4544C16.2892 13.4024 16.2549 13.3801 16.2069 13.2836C16.1589 13.187 16.1177 13.0162 16.1657 12.9642C16.2137 12.9123 16.1657 12.8454 16.2 12.7637C16.2738 12.6938 16.3641 12.6476 16.4607 12.63C16.5293 12.6003 16.4539 12.838 16.4539 12.838H16.447Z" stroke="#A37400" stroke-width="0.14" stroke-linecap="round" stroke-linejoin="round"/>
<path d="M16.399 13.098C16.3578 12.9952 16.447 12.8336 16.447 12.8336L16.4539 12.8042C16.4539 12.8042 16.5293 12.5765 16.4607 12.6279C16.3641 12.6453 16.2738 12.691 16.2 12.7602C16.1657 12.841 16.2137 12.9071 16.1657 12.9585C16.1177 13.0099 16.1589 13.1788 16.2069 13.2743C16.2549 13.3698 16.2892 13.3919 16.2961 13.4433C16.3029 13.4947 16.2275 13.5535 16.1451 13.8693C16.1337 13.9132 16.1317 13.9592 16.1393 14.0041C16.1469 14.0489 16.1639 14.0912 16.1889 14.128C16.214 14.1648 16.2466 14.195 16.2842 14.2163C16.3217 14.2377 16.3633 14.2496 16.4058 14.2513C16.3846 14.1621 16.3846 14.0687 16.4058 13.9795C16.4264 13.8106 16.5019 13.8253 16.5019 13.693C16.5073 13.6001 16.5073 13.5069 16.5019 13.4139C16.5156 13.3331 16.4607 13.3404 16.4607 13.2743C16.4444 13.214 16.4237 13.155 16.399 13.098Z" fill="#FFF381"/>
<path fill-rule="evenodd" clip-rule="evenodd" d="M18.3365 22.8658C18.2852 22.8742 18.2369 22.8937 18.1958 22.9228C18.1548 22.9519 18.1223 22.9896 18.1012 23.0326L17.8154 23.4873C17.8154 23.5328 17.8154 25.6702 17.8154 25.6702C17.8311 25.7273 17.8663 25.7786 17.9161 25.8167C17.9659 25.8547 18.0277 25.8777 18.0928 25.8824C18.3281 25.8824 19.2442 25.8824 19.2442 25.8824C19.272 25.8645 19.2943 25.8404 19.309 25.8126C19.3237 25.7848 19.3303 25.754 19.3282 25.7232C19.3282 25.6247 19.2778 23.4494 19.2778 23.4494L19.4879 23.0022C19.4954 22.985 19.4978 22.9662 19.4948 22.9478C19.4918 22.9295 19.4836 22.9121 19.4708 22.8975C19.458 22.883 19.4413 22.8717 19.4221 22.8648C19.403 22.8579 19.3822 22.8556 19.3618 22.8582L18.3365 22.8658Z" fill="#1A1A18"/>
<path fill-rule="evenodd" clip-rule="evenodd" d="M18.3375 22.8579C18.286 22.8663 18.2376 22.8859 18.1965 22.915C18.1554 22.9442 18.1229 22.9819 18.1017 23.0251L17.8154 23.481C17.8154 23.5266 17.8154 25.6696 17.8154 25.6696C17.8311 25.7269 17.8664 25.7783 17.9163 25.8165C17.9662 25.8547 18.0281 25.8777 18.0933 25.8824C18.329 25.8824 19.2468 25.8824 19.2468 25.8824C19.2747 25.8644 19.297 25.8403 19.3117 25.8124C19.3265 25.7845 19.3331 25.7537 19.331 25.7228C19.331 25.624 19.2805 23.443 19.2805 23.443L19.491 22.9947C19.4967 22.9778 19.4976 22.9599 19.4938 22.9425C19.4899 22.9252 19.4813 22.909 19.4688 22.8955C19.4562 22.8819 19.4402 22.8713 19.422 22.8648C19.4038 22.8582 19.3841 22.8559 19.3647 22.8579H18.3375Z" fill="#D7B46A"/>
<path fill-rule="evenodd" clip-rule="evenodd" d="M18.57 23.5307H18.7408C18.7627 23.5345 18.7831 23.5498 18.7982 23.5737C18.8134 23.5977 18.8223 23.6289 18.8234 23.6617V25.4385C18.8236 25.454 18.8214 25.4693 18.8171 25.4834C18.8129 25.4975 18.8066 25.5101 18.7987 25.5202C18.7909 25.5304 18.7816 25.5378 18.7716 25.5421C18.7616 25.5464 18.7511 25.5473 18.7408 25.545H18.57C18.548 25.5411 18.5276 25.5259 18.5125 25.5019C18.4974 25.4779 18.4885 25.4468 18.4873 25.4139V23.6371C18.4872 23.6217 18.4893 23.6063 18.4936 23.5922C18.4979 23.5781 18.5042 23.5656 18.512 23.5554C18.5199 23.5453 18.5292 23.5378 18.5392 23.5336C18.5492 23.5293 18.5597 23.5283 18.57 23.5307Z" fill="#1A1A18"/>
<path fill-rule="evenodd" clip-rule="evenodd" d="M18.57 23.5307H18.7408C18.7628 23.5345 18.7831 23.5498 18.7982 23.5737C18.8134 23.5977 18.8223 23.6289 18.8234 23.6617V25.4385C18.8236 25.454 18.8214 25.4693 18.8171 25.4834C18.8129 25.4975 18.8066 25.5101 18.7987 25.5202C18.7909 25.5304 18.7816 25.5378 18.7716 25.5421C18.7616 25.5464 18.7511 25.5473 18.7408 25.545H18.57C18.548 25.5411 18.5276 25.5259 18.5125 25.5019C18.4974 25.4779 18.4885 25.4468 18.4873 25.4139V23.6371C18.4872 23.6217 18.4893 23.6063 18.4936 23.5922C18.4979 23.5781 18.5042 23.5656 18.512 23.5554C18.5199 23.5453 18.5292 23.5378 18.5392 23.5336C18.5492 23.5293 18.5597 23.5283 18.57 23.5307Z" fill="#9C0A0F"/>
<path fill-rule="evenodd" clip-rule="evenodd" d="M9.26032 22.8658C9.20898 22.8742 9.16069 22.8937 9.11967 22.9228C9.07864 22.9519 9.04614 22.9896 9.025 23.0326L8.73926 23.4873C8.73926 23.5328 8.73926 25.6702 8.73926 25.6702C8.75493 25.7273 8.79016 25.7786 8.83994 25.8167C8.88971 25.8547 8.95152 25.8777 9.0166 25.8824C9.25192 25.8824 10.168 25.8824 10.168 25.8824C10.1958 25.8645 10.2181 25.8404 10.2328 25.8126C10.2475 25.7848 10.2541 25.754 10.252 25.7232C10.252 25.6171 10.2016 23.4494 10.2016 23.4494L10.4117 23.0022C10.4193 22.985 10.4217 22.9662 10.4187 22.9478C10.4157 22.9295 10.4074 22.9121 10.3946 22.8975C10.3819 22.883 10.3651 22.8717 10.346 22.8648C10.3268 22.8579 10.306 22.8556 10.2856 22.8582L9.26032 22.8658Z" fill="#1A1A18"/>
<path fill-rule="evenodd" clip-rule="evenodd" d="M9.26032 22.5306C9.20898 22.5399 9.16069 22.5616 9.11967 22.5939C9.07865 22.6262 9.04614 22.6681 9.025 22.7159L8.73926 23.2212C8.73926 23.2717 8.73926 25.6465 8.73926 25.6465C8.75493 25.71 8.79016 25.767 8.83994 25.8093C8.88971 25.8516 8.95152 25.8772 9.0166 25.8823C9.25192 25.8823 10.168 25.8823 10.168 25.8823C10.1958 25.8624 10.2181 25.8357 10.2328 25.8048C10.2475 25.7739 10.2541 25.7397 10.252 25.7055C10.252 25.5876 10.2016 23.1791 10.2016 23.1791L10.4117 22.6822C10.4193 22.663 10.4217 22.6421 10.4187 22.6217C10.4157 22.6013 10.4074 22.582 10.3946 22.5658C10.3819 22.5496 10.3651 22.5371 10.346 22.5294C10.3268 22.5218 10.306 22.5193 10.2856 22.5222L9.26032 22.5306Z" fill="#D7B46A"/>
<path fill-rule="evenodd" clip-rule="evenodd" d="M9.24051 23.5297H9.58215C9.62599 23.5297 9.66804 23.5405 9.69905 23.5597C9.73005 23.5789 9.74746 23.6049 9.74746 23.6321V25.1142C9.74752 25.1274 9.74319 25.1404 9.73476 25.1525C9.72633 25.1645 9.71396 25.1754 9.69845 25.1844C9.68293 25.1933 9.6646 25.2002 9.64459 25.2046C9.62457 25.209 9.60332 25.2108 9.58215 25.2098H9.24051C9.19666 25.2098 9.15462 25.1991 9.12361 25.1798C9.09261 25.1606 9.0752 25.1346 9.0752 25.1074V23.6253C9.07514 23.6121 9.07947 23.5991 9.0879 23.587C9.09633 23.575 9.1087 23.5641 9.12421 23.5551C9.13973 23.5462 9.15806 23.5393 9.17807 23.5349C9.19808 23.5305 9.21934 23.5287 9.24051 23.5297Z" fill="#1A1A18"/>
<path fill-rule="evenodd" clip-rule="evenodd" d="M9.24051 23.5297H9.58215C9.626 23.5297 9.66804 23.5405 9.69905 23.5597C9.73005 23.5789 9.74746 23.6049 9.74746 23.6321V25.1142C9.74752 25.1274 9.74319 25.1404 9.73476 25.1525C9.72633 25.1645 9.71397 25.1754 9.69845 25.1844C9.68293 25.1933 9.6646 25.2002 9.64459 25.2046C9.62458 25.209 9.60332 25.2108 9.58215 25.2098H9.24051C9.19666 25.2098 9.15462 25.1991 9.12361 25.1798C9.09261 25.1606 9.0752 25.1346 9.0752 25.1074V23.6253C9.07514 23.6121 9.07947 23.5991 9.0879 23.587C9.09633 23.575 9.10869 23.5641 9.12421 23.5551C9.13972 23.5462 9.15806 23.5393 9.17807 23.5349C9.19808 23.5305 9.21934 23.5287 9.24051 23.5297Z" fill="#9C0A0F"/>
<path fill-rule="evenodd" clip-rule="evenodd" d="M13.5072 16.0918C13.8244 16.0305 14.0642 16.0918 14.3814 15.571C14.5004 15.4389 14.609 15.2981 14.7063 15.1497C14.7837 15.0655 14.8997 15.211 15.1318 15.5097C15.271 15.6322 15.5882 16.4977 15.5495 15.7931C15.7661 15.9999 16.0756 16.1531 16.5243 16.559L17.8936 16.3982C18.2494 16.199 18.5898 16.2067 18.9302 15.6322C19.0122 15.495 19.0772 15.3484 19.1236 15.1957C19.3325 15.1267 19.5568 15.3335 19.7038 15.7701C19.8415 16.0797 19.9964 16.3814 20.168 16.6739C19.9746 17.0339 19.7425 17.3862 19.5491 17.7462L17.0658 17.6007L14.9925 17.8151L13.4453 16.7045C13.4453 16.4901 13.5072 16.2833 13.5459 16.0688" fill="#1A1A18"/>
<path fill-rule="evenodd" clip-rule="evenodd" d="M16.1745 16.4788L16.2597 16.5179H16.3604H16.523H16.6082H16.7011H16.7863H16.9645H17.0109H17.5686H17.6538H17.7157H17.77H17.8087C17.9959 16.3112 18.1361 16.0656 18.2192 15.7983H18.2811C18.3818 15.9157 18.3508 16.2441 18.436 16.4397C18.5212 16.6352 18.7226 16.7134 18.8233 16.9011C17.4834 19.4821 13.6109 17.2843 12.1006 17.1749L12.3717 16.8151V16.3302H12.6505V16.2911V16.2441V16.205V16.1659C12.8185 16.5503 13.0099 16.9239 13.2236 17.2843C13.3444 17.3948 13.4942 17.4675 13.655 17.4939C13.8157 17.5203 13.9806 17.4991 14.1298 17.4329" fill="white"/>
<path fill-rule="evenodd" clip-rule="evenodd" d="M13.4907 15.4622C13.7253 15.898 13.7405 16.1431 15.1254 16.6334C15.6952 16.7439 16.2889 16.6964 16.8281 16.4972L17.4789 16.2657L17.4184 16.9058C16.8848 17.1611 16.3104 17.3403 15.7156 17.4369C15.2347 17.5174 14.7387 17.4821 14.2778 17.3348L13.4907 16.4972C13.4907 16.1636 13.4907 15.8163 13.4453 15.4963" fill="#1A1A18"/>
<path fill-rule="evenodd" clip-rule="evenodd" d="M17.4102 16.4254H17.4764V16.4763V16.5695C17.4798 16.5862 17.4798 16.6035 17.4764 16.6203V16.7051C17.4764 16.7051 17.4764 16.7051 17.4764 16.7474V16.8067H17.4268H17.3771H17.3357H17.286H17.2446H17.195H17.137H17.0874H17.0377H16.988H16.9384H16.8887H16.8308H16.7811H16.7232C16.7232 16.8067 16.7232 16.8067 16.6735 16.8067H16.6238H16.5659H16.5162H16.4583H16.4004H16.3424H16.2845H16.2265H16.1686H16.1106H16.0527H15.9948H15.9368H15.8789H15.8127H15.763H15.7133H15.6719H14.8856H14.8359H14.7449H14.6952H14.6538H14.6042H14.5628H14.5214H14.4717H14.4303L14.3558 16.7135L14.2896 16.6203L14.2068 16.5356L13.4453 16.4763V16.4085V16.1373V15.8831V15.7983V15.8407L13.4867 15.8831V15.9254L13.5364 15.9678H13.586L13.6357 16.0102L13.6854 16.0526C13.7073 16.0488 13.7297 16.0488 13.7516 16.0526L13.8178 16.0949H13.8923L13.9751 16.1458L14.0578 16.1881H14.1489L14.2482 16.239L14.3558 16.2814L14.4634 16.3322H14.5876L14.7118 16.383L14.8525 16.4339H14.927H14.9932H15.0594H15.1256H15.1918H15.2498H15.9948H16.0444H16.1106H16.1603H16.2182H16.2679H16.3259H16.3755H16.4169H16.4749H16.5245H16.5825H16.6321H16.6818H16.7315H16.7894H16.8556H16.9218H16.988H17.0543" fill="white"/>
<path fill-rule="evenodd" clip-rule="evenodd" d="M13.2343 15.2049C12.7011 15.8969 12.4205 16.7476 12.4383 17.618C12.4318 18.4841 12.7397 19.3237 13.3059 19.9837C14.2843 20.2641 15.2905 20.4386 16.3068 20.5042C17.3458 20.4368 18.3753 20.2651 19.3793 19.9916C20.5971 18.2094 20.1355 17.405 19.7693 16.7032C19.6403 16.5374 19.4875 16.3913 19.3156 16.2695C18.8342 16.0273 18.4314 15.6556 18.1535 15.197C18.0659 15.126 17.8271 15.0551 17.7395 15.268C17.6281 15.7482 17.4106 16.1979 17.1028 16.5849C16.8962 16.8318 16.6332 17.0264 16.3356 17.1526C16.038 17.2787 15.7143 17.3329 15.3914 17.3104C14.7467 17.129 13.9507 17.0581 13.6562 16.1118C13.4412 14.992 13.3218 15.1182 13.2104 15.1891" fill="#1A1A18"/>
<path fill-rule="evenodd" clip-rule="evenodd" d="M16.2939 14.4538C16.5273 14.4524 16.7559 14.5105 16.9507 14.6207C17.1455 14.7309 17.2976 14.8884 17.3877 15.0729C17.4778 15.2575 17.5018 15.4608 17.4567 15.6571C17.4116 15.8534 17.2994 16.0338 17.1343 16.1752C16.9693 16.3167 16.7589 16.4129 16.5299 16.4516C16.3009 16.4903 16.0636 16.4697 15.8483 16.3924C15.633 16.3152 15.4493 16.1848 15.3207 16.0179C15.1921 15.8509 15.1243 15.6549 15.126 15.4549C15.1283 15.19 15.252 14.9365 15.4706 14.7491C15.6891 14.5618 15.9848 14.4557 16.2939 14.4538Z" fill="white"/>
<path d="M19.511 17.0764C19.6714 18.2659 19.511 19.4713 19.6714 20.8284C19.6714 21.0679 19.5415 21.2834 20.0534 21.3632C20.5346 21.4399 21.0115 21.5438 21.482 21.6746C21.6456 21.7119 21.7949 21.7994 21.9106 21.926C22.0263 22.0526 22.1032 22.2125 22.1313 22.3851C22.1313 22.7203 21.9098 23.6304 22.1313 23.8859C22.2412 24.0053 22.3771 24.0952 22.5274 24.148C22.6777 24.2008 22.8379 24.2149 22.9946 24.1892C23.2576 24.1893 23.5178 24.1323 23.7585 24.0216C23.6389 23.9781 23.5349 23.8973 23.4606 23.7901C23.5276 23.7919 23.5937 23.7733 23.6507 23.7364C23.7077 23.6995 23.7531 23.646 23.7814 23.5825C23.6745 23.5825 23.6134 23.5107 23.4911 23.359C23.5827 23.3471 23.6683 23.3052 23.7356 23.2392C23.8029 23.1732 23.8483 23.0865 23.8655 22.9918C23.8655 22.9918 23.2008 22.9918 23.1015 22.6804C23.0014 22.2086 22.9249 21.7316 22.8723 21.2515C22.8357 21.0726 22.7379 20.9139 22.5973 20.8052C22.4566 20.6964 22.2827 20.645 22.1084 20.6607C21.6583 20.6378 21.2109 20.5737 20.7715 20.4691C20.6498 20.4379 20.5319 20.3924 20.4201 20.3334V20.086C20.4201 20.086 20.2978 18.6331 20.3208 18.218C20.3796 17.5986 20.2427 16.9762 19.9312 16.4457C19.7497 16.2351 19.5266 16.0681 19.2773 15.9565C19.028 15.8448 18.7584 15.7911 18.4873 15.7991C18.8922 16.2302 19.4117 16.318 19.511 17.0764Z" stroke="#C0932E" stroke-width="0.14" stroke-linecap="round" stroke-linejoin="round"/>
<path fill-rule="evenodd" clip-rule="evenodd" d="M19.511 17.0253C19.6714 18.1671 19.511 19.3244 19.6714 20.6272C19.6714 20.8571 19.5415 21.064 20.0534 21.1406C20.5346 21.2142 21.0115 21.314 21.482 21.4395C21.6456 21.4753 21.7949 21.5594 21.9106 21.6809C22.0263 21.8025 22.1032 21.9559 22.1313 22.1216C22.1313 22.4358 21.9098 23.3171 22.1313 23.5624C22.2412 23.677 22.3771 23.7633 22.5274 23.814C22.6777 23.8647 22.8379 23.8783 22.9946 23.8536C23.2576 23.8537 23.5178 23.7989 23.7585 23.6926C23.6389 23.6509 23.5349 23.5733 23.4606 23.4704C23.5276 23.4722 23.5937 23.4543 23.6507 23.4189C23.7077 23.3835 23.7531 23.3321 23.7814 23.2711C23.6745 23.2711 23.6134 23.2022 23.4911 23.0566C23.5827 23.0452 23.6683 23.0049 23.7356 22.9415C23.8029 22.8782 23.8484 22.795 23.8655 22.704C23.8655 22.704 23.1932 22.704 23.1015 22.4051C23.0013 21.9522 22.9248 21.4943 22.8723 21.0334C22.8357 20.8617 22.7379 20.7093 22.5973 20.6049C22.4566 20.5005 22.2827 20.4512 22.1084 20.4662C21.6583 20.4443 21.2109 20.3827 20.7715 20.2823C20.6498 20.2523 20.5319 20.2086 20.4201 20.152V19.9145C20.4201 19.9145 20.2978 18.5197 20.3208 18.1212C20.3796 17.5266 20.2427 16.9291 19.9312 16.4198C19.7497 16.2176 19.5266 16.0573 19.2773 15.9502C19.028 15.843 18.7584 15.7914 18.4873 15.7991C18.9457 16.1899 19.4346 16.2742 19.5339 17.0023" fill="#FFF7B2"/>
<path d="M13.0267 24.6484C13.0524 24.9072 13.0311 25.1685 12.9639 25.4201C12.8268 25.7196 12.6498 25.9999 12.4375 26.2536C12.9639 26.0066 12.8932 26.1456 13.3489 25.8523C13.4188 25.9017 13.4773 25.9651 13.5206 26.0382C13.564 26.1113 13.5911 26.1926 13.6003 26.2768C13.7731 26.161 14.0559 26.0221 14.2288 25.9063C14.3257 25.9829 14.4005 26.083 14.446 26.1967C14.4915 26.3103 14.506 26.4337 14.4881 26.5546C15.2344 26.1378 14.8495 24.9262 14.9045 24.2856C14.899 23.9738 14.9578 23.664 15.0773 23.375C15.1999 23.1556 15.2949 22.9223 15.3601 22.6804C15.3831 22.5169 15.4146 22.3546 15.4544 22.1942C15.4544 22.0013 15.4544 21.4919 15.4544 21.3453C15.4954 21.2419 15.5568 21.1474 15.6351 21.0675C15.8144 20.7007 15.9287 20.3066 15.9729 19.9021C15.9729 19.5394 15.8001 18.7291 15.8237 18.5438C15.8497 18.2326 15.9184 17.9263 16.0279 17.6332C16.2244 17.3245 16.1379 17.2704 15.8708 17.1933C15.7502 17.1509 15.6217 17.1349 15.4942 17.1464C15.3666 17.1579 15.2432 17.1966 15.1325 17.2598C15.0218 17.323 14.9264 17.4092 14.8531 17.5123C14.7798 17.6155 14.7303 17.7331 14.708 17.857C14.6302 18.1071 14.5904 18.3672 14.5902 18.6287C14.6173 19.1445 14.591 19.6617 14.5116 20.1722C14.2419 20.5211 14.0347 20.9126 13.8988 21.3298C13.923 21.7864 13.8341 22.2419 13.6396 22.6573C13.4784 22.7727 13.3454 22.9219 13.2503 23.0941C13.1552 23.2663 13.1003 23.4572 13.0896 23.6528C13.0425 24.2239 13.0267 24.6484 13.0267 24.6484Z" stroke="#C0932E" stroke-width="0.14" stroke-linecap="round" stroke-linejoin="round"/>
<path fill-rule="evenodd" clip-rule="evenodd" d="M13.0267 24.6468C13.0526 24.9059 13.0313 25.1674 12.9639 25.4192C12.8268 25.719 12.6498 25.9995 12.4375 26.2534C12.9639 26.0062 12.8932 26.1452 13.3489 25.8517C13.4188 25.9012 13.4773 25.9646 13.5206 26.0378C13.564 26.111 13.5911 26.1923 13.6003 26.2765C13.7731 26.1607 14.0559 26.0216 14.2288 25.9058C14.3257 25.9824 14.4005 26.0826 14.446 26.1964C14.4915 26.3101 14.506 26.4336 14.4881 26.5546C15.2344 26.1375 14.8495 24.9249 14.9045 24.2838C14.899 23.9716 14.9578 23.6616 15.0773 23.3724C15.1999 23.1528 15.2949 22.9194 15.3601 22.6772C15.383 22.5135 15.4145 22.3511 15.4544 22.1906C15.4544 21.9975 15.4544 21.4878 15.4544 21.341C15.4956 21.2376 15.557 21.1431 15.6351 21.0629C15.8136 20.6983 15.9278 20.3066 15.9729 19.9044C15.9729 19.5414 15.8001 18.7304 15.8237 18.545C15.8497 18.2335 15.9184 17.9269 16.0279 17.6336C16.2244 17.3246 16.1379 17.2706 15.8708 17.1933C15.7502 17.1509 15.6217 17.1349 15.4942 17.1464C15.3666 17.1579 15.2432 17.1967 15.1325 17.2599C15.0218 17.3232 14.9264 17.4094 14.8531 17.5127C14.7798 17.6159 14.7303 17.7336 14.708 17.8576C14.6302 18.1079 14.5904 18.3682 14.5902 18.6299C14.6173 19.1462 14.591 19.6637 14.5116 20.1747C14.2419 20.5239 14.0347 20.9157 13.8988 21.3333C13.923 21.7902 13.8341 22.2461 13.6396 22.6618C13.4932 22.7703 13.371 22.9072 13.2805 23.064C13.1899 23.2207 13.133 23.394 13.1132 23.5732C13.0425 24.222 13.0267 24.6468 13.0267 24.6468Z" fill="#FFF7B2"/>
<path d="M21.504 34.5004L22.0638 35.3103V35.3589L22.5212 35.0268L22.466 34.9458L22.4187 34.9863L22.1585 35.1726L21.914 34.8162L22.1742 34.63H22.2215L22.2452 34.549L22.1979 34.5895L21.9377 34.7757L21.7012 34.4275L21.9692 34.2412H22.0165L21.9692 34.1683L21.504 34.5004ZM21.1492 35.5128L21.0388 34.9944L21.4488 35.3265L21.1492 35.5128ZM21.1492 35.5938L21.4883 35.3751L21.7327 35.5776L21.914 35.4642H21.8667L21.031 34.7919L20.8969 34.8729L21.1256 35.934C21.1272 35.9502 21.1272 35.9664 21.1256 35.9826L21.2123 35.9259V35.8854L21.1492 35.5938ZM20.3608 35.1726V35.2212L20.7787 36.1284V36.177L20.9521 36.0879V36.0393L20.5737 35.1402C20.5714 35.1241 20.5714 35.1077 20.5737 35.0916L20.3608 35.1726ZM19.5723 35.529V35.6262H19.6354L19.8562 35.5371L20.211 36.4281C20.213 36.4442 20.213 36.4605 20.211 36.4767L20.3923 36.4038V36.3552L20.0375 35.4642L20.2583 35.3589H20.3213V35.2617L19.5723 35.529ZM18.8311 36.015L19.6748 36.6387L19.8246 36.5901C19.8209 36.5741 19.8209 36.5574 19.8246 36.5415L19.5092 35.5857C19.506 35.567 19.506 35.5478 19.5092 35.529H19.4146V35.5776L19.6748 36.3876L18.8863 35.7801L18.7208 35.8368V35.8854L19.0361 36.8412C19.0379 36.8573 19.0379 36.8736 19.0361 36.8898H19.1308V36.8412L18.8311 36.015ZM18.0427 36.015C18.0449 36.0311 18.0449 36.0475 18.0427 36.0636L18.2083 37.0517C18.211 37.0705 18.211 37.0896 18.2083 37.1084L18.7602 36.995V36.8979H18.705L18.3975 36.9626L18.3108 36.5334L18.6183 36.4686H18.6735V36.3795H18.6183L18.3108 36.4443L18.2083 36.0555L18.5236 35.9907H18.571V35.9016L18.0427 36.015ZM17.6169 36.096C17.6188 36.1121 17.6188 36.1284 17.6169 36.1446L17.751 37.1408C17.7533 37.1597 17.7533 37.1787 17.751 37.1975H17.9402C17.9379 37.1814 17.9379 37.1651 17.9402 37.1489L17.8061 36.1527C17.8027 36.1339 17.8027 36.1147 17.8061 36.096H17.6169ZM17.0177 36.7116V36.2499H17.1281C17.1569 36.2464 17.1861 36.2493 17.2138 36.2584C17.2415 36.2674 17.267 36.2824 17.2886 36.3023C17.3102 36.3222 17.3274 36.3466 17.3392 36.3738C17.3509 36.4011 17.3569 36.4306 17.3567 36.4605C17.3623 36.5015 17.3573 36.5434 17.3421 36.5818C17.3268 36.6202 17.302 36.6538 17.27 36.6792C17.2287 36.6905 17.1852 36.6905 17.1438 36.6792L17.0177 36.7116ZM17.0177 36.7926H17.136C17.3804 36.7926 17.5223 36.6387 17.5065 36.4362C17.4908 36.2337 17.3488 36.1365 17.136 36.1608H16.789C16.7909 36.1769 16.7909 36.1932 16.789 36.2094L16.86 37.2137C16.8623 37.2326 16.8623 37.2516 16.86 37.2704H17.0571C17.0543 37.2516 17.0543 37.2325 17.0571 37.2137L17.0177 36.7926ZM15.9927 36.8736L16.1583 36.3714L16.3396 36.8736H15.9927ZM15.9927 36.9545H16.3948L16.5052 37.2542C16.5084 37.2703 16.5084 37.2868 16.5052 37.3028H16.6313V37.2542L16.2529 36.2337H16.0952L15.7561 37.2623V37.3109H15.8429C15.8402 37.2948 15.8402 37.2784 15.8429 37.2623L15.9927 36.9545ZM15.015 37.1408C15.0993 37.2084 15.2004 37.2505 15.3067 37.2623C15.3864 37.2874 15.4715 37.2874 15.5511 37.2623C15.5943 37.2356 15.6309 37.199 15.6583 37.1555C15.6856 37.112 15.7029 37.0627 15.7088 37.0112C15.7305 36.9484 15.7305 36.8797 15.7088 36.8169C15.661 36.7444 15.5958 36.6859 15.5196 36.6468C15.3461 36.5415 15.3146 36.4929 15.3225 36.4038C15.3253 36.3805 15.3327 36.3581 15.3444 36.338C15.356 36.3178 15.3716 36.3004 15.3901 36.2867C15.4086 36.273 15.4296 36.2634 15.4519 36.2584C15.4742 36.2535 15.4972 36.2533 15.5196 36.258C15.6008 36.2705 15.6757 36.3104 15.7325 36.3714L15.7798 36.258C15.7062 36.209 15.6225 36.1785 15.5354 36.1689C15.4928 36.1569 15.4483 36.1543 15.4047 36.1611C15.3611 36.1679 15.3194 36.1841 15.2822 36.2085C15.2451 36.2329 15.2133 36.2651 15.189 36.3029C15.1647 36.3407 15.1484 36.3834 15.1411 36.4281C15.1411 36.5658 15.1884 36.6549 15.3619 36.7683L15.5117 36.8736C15.5349 36.8927 15.5528 36.9177 15.5639 36.9461C15.5749 36.9744 15.5787 37.0053 15.5748 37.0355C15.5711 37.0621 15.5621 37.0875 15.5483 37.1103C15.5346 37.1331 15.5164 37.1527 15.4949 37.1679C15.4735 37.1831 15.4492 37.1936 15.4235 37.1987C15.3979 37.2038 15.3716 37.2034 15.3461 37.1975C15.2971 37.1913 15.2499 37.1743 15.2077 37.1477C15.1656 37.1212 15.1294 37.0857 15.1017 37.0436L15.015 37.1408ZM13.7771 36.906C13.8512 36.9812 13.9439 37.0344 14.0452 37.0598C14.1273 37.0865 14.2154 37.0865 14.2975 37.0598C14.3446 37.0385 14.3863 37.0062 14.4191 36.9654C14.452 36.9246 14.4751 36.8765 14.4867 36.825C14.5077 36.762 14.5077 36.6936 14.4867 36.6306C14.4487 36.5523 14.3916 36.4853 14.3211 36.4362C14.1634 36.3066 14.1319 36.258 14.1556 36.1689C14.1618 36.1468 14.1724 36.1262 14.1866 36.1084C14.2008 36.0906 14.2184 36.0759 14.2383 36.0653C14.2583 36.0547 14.28 36.0484 14.3024 36.0467C14.3248 36.045 14.3472 36.048 14.3684 36.0555C14.4482 36.08 14.5177 36.1313 14.5656 36.2013L14.6286 36.096C14.5626 36.0378 14.4844 35.9962 14.4 35.9745C14.3592 35.9581 14.3156 35.9505 14.2718 35.9524C14.2281 35.9542 14.1852 35.9654 14.1459 35.9852C14.1066 36.005 14.0717 36.033 14.0435 36.0674C14.0153 36.1019 13.9944 36.1419 13.9821 36.1851C13.9821 36.3147 13.9821 36.42 14.1556 36.5496L14.2896 36.6711C14.3098 36.6935 14.3241 36.721 14.331 36.7508C14.3379 36.7806 14.3372 36.8117 14.329 36.8412C14.3228 36.8673 14.3113 36.8918 14.2953 36.9132C14.2793 36.9345 14.2592 36.9522 14.2363 36.9652C14.2133 36.9781 14.1879 36.986 14.1618 36.9884C14.1357 36.9907 14.1094 36.9875 14.0846 36.9788C14.0375 36.9671 13.9935 36.9451 13.9554 36.9143C13.9173 36.8836 13.8861 36.8448 13.8638 36.8007L13.7771 36.906ZM13.1384 35.6262C13.1403 35.6451 13.1403 35.6641 13.1384 35.6829V36.7521C13.1407 36.7682 13.1407 36.7845 13.1384 36.8007L13.2961 36.8493L13.919 35.9826H13.8244L13.2882 36.7359V35.8125L13.1384 35.6262ZM12.1607 35.4561L12.0819 36.3147L12.2238 36.3795L12.8073 35.7396L12.5786 36.5496L12.7521 36.6306C12.7511 36.6144 12.7511 36.5981 12.7521 36.582L13.0359 35.5857L12.8861 35.5128L12.2711 36.177L12.3579 35.2698V35.2779L12.2081 35.2131L11.664 36.0717V36.1122L11.7507 36.1527L12.1607 35.4561ZM11.53 34.8891C11.7192 35.0106 11.735 35.2131 11.5773 35.4885C11.4196 35.7639 11.2304 35.8368 11.049 35.7234C10.8677 35.61 10.8361 35.3994 11.0017 35.1159C11.1673 34.8324 11.2698 34.7838 11.4669 34.8972L11.53 34.8891ZM11.5773 34.8162C11.4836 34.7574 11.3752 34.7282 11.2655 34.7321C11.1558 34.7361 11.0497 34.7731 10.9603 34.8385C10.8709 34.904 10.8022 34.995 10.7628 35.1002C10.7233 35.2055 10.7149 35.3203 10.7385 35.4304C10.762 35.5405 10.8166 35.6411 10.8954 35.7196C10.9742 35.7981 11.0737 35.8511 11.1816 35.872C11.2895 35.8928 11.4009 35.8807 11.5021 35.837C11.6033 35.7933 11.6898 35.72 11.7507 35.6262C11.8003 35.5611 11.8338 35.4846 11.8482 35.4033C11.8626 35.3219 11.8576 35.2382 11.8335 35.1593C11.8095 35.0805 11.7671 35.0087 11.7101 34.9504C11.6531 34.892 11.5832 34.8488 11.5063 34.8243L11.5773 34.8162ZM9.88997 34.8729L10.3236 34.144L10.4182 34.2169C10.4626 34.2511 10.4992 34.2948 10.5257 34.3449C10.5521 34.395 10.5677 34.4504 10.5715 34.5073C10.5752 34.5642 10.567 34.6212 10.5473 34.6745C10.5277 34.7278 10.4971 34.7762 10.4577 34.8162C10.2842 35.0511 10.0713 35.1078 9.89785 34.9701L9.88997 34.8729ZM10.3394 33.9496V33.9982L9.74805 34.8081L10.0477 35.043C10.1035 35.0867 10.1676 35.1178 10.2358 35.1346C10.304 35.1513 10.3749 35.1533 10.4439 35.1404C10.5129 35.1274 10.5785 35.0998 10.6365 35.0593C10.6945 35.0189 10.7437 34.9664 10.7809 34.9053C10.834 34.8482 10.8737 34.7793 10.8969 34.7039C10.9201 34.6286 10.9263 34.5488 10.9149 34.4706C10.9035 34.3925 10.8748 34.318 10.8311 34.253C10.7874 34.1879 10.7298 34.134 10.6627 34.0954L10.3394 33.9496Z" fill="#1A1A18"/>
<path d="M23.8773 31.7064C23.7052 31.7581 23.5505 31.8557 23.4298 31.9886C23.3276 32.0913 23.2592 32.2225 23.2335 32.3649C23.2257 32.4519 23.2379 32.5395 23.2692 32.621C23.3005 32.7026 23.35 32.7759 23.4141 32.8353C23.4955 32.9122 23.6007 32.9592 23.7124 32.9686C23.8602 32.9718 24.0062 32.9366 24.1364 32.8667C24.4504 32.7334 24.5525 32.7256 24.6624 32.8667C24.69 32.893 24.7119 32.9247 24.7269 32.9597C24.7418 32.9947 24.7496 33.0324 24.7496 33.0705C24.7496 33.1086 24.7418 33.1463 24.7269 33.1813C24.7119 33.2164 24.69 33.248 24.6624 33.2744C24.5639 33.3764 24.434 33.4427 24.2934 33.4625L24.4033 33.635C24.5414 33.5802 24.665 33.4944 24.7645 33.3841C24.8177 33.3336 24.8601 33.2728 24.889 33.2054C24.918 33.138 24.9329 33.0655 24.9329 32.9921C24.9329 32.9188 24.918 32.8462 24.889 32.7789C24.8601 32.7115 24.8177 32.6507 24.7645 32.6001C24.5996 32.4512 24.4112 32.4433 24.0814 32.6001L23.7988 32.7021C23.7508 32.7147 23.7003 32.7149 23.6522 32.7026C23.6041 32.6902 23.5599 32.6657 23.524 32.6315C23.4904 32.6014 23.4635 32.5645 23.4451 32.5233C23.4267 32.4821 23.4172 32.4375 23.4172 32.3924C23.4172 32.3473 23.4267 32.3027 23.4451 32.2615C23.4635 32.2203 23.4904 32.1834 23.524 32.1533C23.5809 32.0919 23.6502 32.0434 23.7274 32.011C23.8046 31.9785 23.8878 31.9629 23.9715 31.9651L23.8773 31.7064ZM25.5653 32.3806L25.4868 32.3336L24.1992 31.2595L24.1364 31.1968L23.9244 31.4477L24.0029 31.4947L25.2905 32.5688L25.3533 32.6315L25.5653 32.3806ZM25.0314 30.1306C24.8672 30.2038 24.726 30.3204 24.6232 30.4677C24.5366 30.5836 24.4873 30.7231 24.4818 30.8676C24.4852 30.9557 24.5089 31.042 24.5511 31.1195C24.5933 31.197 24.6529 31.2637 24.7252 31.3144C24.8162 31.3805 24.9269 31.4137 25.0393 31.4085C25.1867 31.3924 25.3274 31.3384 25.4475 31.2517C25.7459 31.0792 25.8401 31.0557 25.9657 31.1498C25.9965 31.1728 26.0223 31.2018 26.0415 31.2351C26.0607 31.2684 26.0729 31.3053 26.0773 31.3435C26.0817 31.3817 26.0782 31.4203 26.0672 31.4571C26.0561 31.4939 26.0376 31.528 26.0128 31.5575C25.9275 31.6725 25.8058 31.7554 25.6674 31.7926L25.793 31.9494C25.9246 31.8771 26.0375 31.7751 26.1227 31.6515C26.1717 31.5964 26.2088 31.5318 26.2319 31.4618C26.255 31.3917 26.2634 31.3177 26.2568 31.2443C26.2502 31.1709 26.2286 31.0996 26.1934 31.0348C26.1582 30.97 26.1101 30.9131 26.0521 30.8676C25.8715 30.7421 25.6831 30.7578 25.3769 30.9303L25.1099 31.0714C25.0665 31.0947 25.0179 31.1069 24.9686 31.1069C24.9193 31.1069 24.8707 31.0947 24.8273 31.0714C24.7906 31.0459 24.7596 31.013 24.7363 30.9749C24.713 30.9368 24.698 30.8943 24.6921 30.85C24.6862 30.8058 24.6895 30.7608 24.702 30.7179C24.7145 30.675 24.7358 30.6352 24.7645 30.601C24.8127 30.5335 24.8748 30.4769 24.9465 30.435C25.0182 30.3931 25.098 30.3669 25.1806 30.358L25.0314 30.1306ZM27.0256 29.4799L25.2513 29.6602H25.1727L25.0393 29.8954H25.1178L26.5781 30.7264L26.6488 30.7813L26.7273 30.6402H26.6409L25.4318 29.9503L27.1827 29.7935H27.2533L27.4025 29.5348H27.3161L25.8637 28.7038L25.793 28.6489L25.7145 28.79H25.8008L27.0256 29.4799ZM27.9678 28.2256H27.8814L26.3583 27.5357L26.2798 27.4886L25.8794 28.3588L26.0285 28.4294C26.0245 28.3955 26.0245 28.3613 26.0285 28.3275L26.2484 27.8414L26.9079 28.1393L26.6802 28.6332C26.6688 28.6641 26.6529 28.6932 26.6331 28.7195L26.7665 28.7822C26.7614 28.751 26.7614 28.7193 26.7665 28.6881L26.9864 28.202L27.6302 28.4921L27.4025 28.9939C27.3911 29.02 27.3751 29.0438 27.3554 29.0644L27.4889 29.1271L27.9678 28.2256ZM27.5438 26.7909L28.2818 27.0496L28.219 27.2299C28.2055 27.2781 28.1816 27.3228 28.1491 27.3609C28.1165 27.399 28.076 27.4295 28.0305 27.4504C27.9849 27.4713 27.9353 27.482 27.8852 27.4819C27.835 27.4817 27.7855 27.4706 27.7401 27.4494C27.674 27.4322 27.6138 27.3976 27.5655 27.3494C27.5172 27.3012 27.4826 27.241 27.4653 27.175C27.4456 27.1032 27.4456 27.0274 27.4653 26.9555L27.5438 26.7909ZM27.4103 26.7439L27.3475 26.932C27.2062 27.324 27.3475 27.6297 27.638 27.716C27.9285 27.8022 28.1955 27.6689 28.3211 27.3162L28.5174 26.7595H28.431L26.8608 26.2107L26.7822 26.1716L26.6723 26.4851H26.7587L27.4103 26.7439ZM28.7372 26.0853H28.6508L27.0806 25.5836H27.0021L26.9 25.8972H26.9864L28.5566 26.3989H28.6351L28.7372 26.0853ZM29.1769 24.3057H29.0827L27.3161 24.5095H27.2376L27.1748 24.7918H27.2455L28.8157 25.709L28.8864 25.7639V25.5993H28.8157L27.481 24.8153L29.0513 24.635H29.1298L29.1769 24.3057ZM29.2475 23.2708C29.2386 23.355 29.2088 23.4357 29.1608 23.5055C29.1128 23.5753 29.0482 23.6321 28.9727 23.6707C28.7769 23.7421 28.5658 23.761 28.3603 23.7255C28.1443 23.7083 27.94 23.6201 27.7794 23.4747C27.7241 23.419 27.6836 23.3503 27.6617 23.275C27.6397 23.1997 27.637 23.1201 27.6537 23.0435C27.6593 22.9633 27.6844 22.8857 27.7268 22.8174C27.7692 22.7491 27.8277 22.6921 27.8971 22.6515C28.0919 22.5564 28.312 22.5262 28.5252 22.5653C29.0434 22.6829 29.2868 22.9181 29.2397 23.3022L29.2475 23.2708ZM27.2062 23.8196C27.2556 23.7173 27.3106 23.6179 27.3711 23.5217L27.4575 23.3884V23.3336C27.4617 23.4819 27.508 23.626 27.5909 23.7491C27.6743 23.8549 27.7787 23.9423 27.8976 24.0057C28.0166 24.0692 28.1474 24.1072 28.2818 24.1175C28.4186 24.1416 28.5589 24.1373 28.694 24.105C28.8291 24.0726 28.956 24.0128 29.067 23.9294C29.2244 23.7714 29.3216 23.5634 29.3418 23.3414C29.3867 23.1018 29.336 22.8542 29.2004 22.6515C29.0218 22.4538 28.7751 22.3307 28.5095 22.3066C28.2962 22.2716 28.0774 22.3017 27.8814 22.3928C27.7533 22.4733 27.6564 22.595 27.6066 22.7377C27.4559 23.0203 27.2713 23.2835 27.057 23.5217L27.2062 23.8196ZM29.5616 21.0914H29.4752L27.8029 20.9973H27.7165L27.6694 21.9538H27.8343C27.8296 21.9173 27.8296 21.8804 27.8343 21.844V21.3109L28.5645 21.3501V21.8911C28.5698 21.9248 28.5698 21.9592 28.5645 21.993H28.7137C28.7076 21.9593 28.7076 21.9248 28.7137 21.8911V21.3501H29.4203V21.8989C29.4256 21.9274 29.4256 21.9566 29.4203 21.9851H29.5694L29.5616 21.0914ZM28.7058 19.8919H29.4909V20.0252C29.4951 20.1167 29.4642 20.2064 29.4046 20.2761C29.3647 20.3161 29.3169 20.3473 29.2641 20.3676C29.2113 20.3879 29.1548 20.3968 29.0984 20.3937C29.0493 20.3949 29.0004 20.3858 28.955 20.3671C28.9096 20.3484 28.8686 20.3205 28.8346 20.2851C28.8007 20.2497 28.7744 20.2076 28.7577 20.1615C28.7409 20.1154 28.7339 20.0663 28.7372 20.0174L28.7058 19.8919ZM28.6037 19.8919L27.8186 20.4329H27.7401V20.8405C27.7581 20.8121 27.7823 20.788 27.8108 20.77L28.5959 20.182C28.6042 20.2514 28.62 20.3198 28.643 20.3858C28.6701 20.4748 28.7252 20.5526 28.8002 20.6077C28.8752 20.6628 28.966 20.6922 29.0591 20.6916C29.1313 20.6919 29.2028 20.6771 29.2689 20.6482C29.3351 20.6193 29.3944 20.5769 29.4432 20.5238C29.492 20.4706 29.5292 20.4079 29.5522 20.3396C29.5753 20.2713 29.5839 20.1989 29.5773 20.1271V19.5626H29.4909H27.8186H27.7323V19.8919H27.8186H28.6037ZM28.3918 18.2064L29.2475 18.4416L28.4624 18.7944L28.3918 18.2064ZM28.2504 18.2064L28.2975 18.8963L27.8108 19.1079H27.7323V19.4686L27.8029 19.4215L29.4674 18.6846H29.5302V18.418H29.4595L27.7165 17.932H27.638V18.1045H27.7165L28.2504 18.2064ZM27.4653 15.9642C27.4008 16.1342 27.3845 16.3187 27.4182 16.4973C27.4402 16.6416 27.5059 16.7757 27.6066 16.8815C27.6715 16.9407 27.7491 16.9842 27.8335 17.0087C27.918 17.0331 28.0069 17.0379 28.0934 17.0226C28.2054 17.0051 28.3079 16.9497 28.3839 16.8658C28.4767 16.7527 28.5389 16.6177 28.5645 16.4738C28.6508 16.1445 28.7058 16.0583 28.855 16.0348C28.8927 16.0293 28.9312 16.0315 28.9681 16.0412C29.005 16.051 29.0395 16.0681 29.0696 16.0916C29.0996 16.115 29.1247 16.1443 29.1431 16.1776C29.1615 16.211 29.173 16.2477 29.1769 16.2856C29.1972 16.4265 29.1695 16.57 29.0984 16.6933H29.3025C29.3366 16.5489 29.3366 16.3986 29.3025 16.2543C29.2397 15.8936 28.9884 15.6898 28.6901 15.7447C28.3918 15.7996 28.3446 15.9328 28.2583 16.27C28.2334 16.3686 28.2019 16.4655 28.1641 16.56C28.1442 16.6059 28.1128 16.6459 28.0729 16.6762C28.033 16.7064 27.986 16.7258 27.9364 16.7325C27.8923 16.7403 27.847 16.7388 27.8036 16.7281C27.7601 16.7175 27.7193 16.6979 27.6838 16.6706C27.6483 16.6433 27.619 16.6089 27.5976 16.5696C27.5762 16.5303 27.5632 16.487 27.5595 16.4424C27.5456 16.3596 27.5496 16.2748 27.5713 16.1936C27.593 16.1125 27.6318 16.0369 27.6851 15.972L27.4653 15.9642ZM29.0356 15.047H28.9492L27.3083 15.3919H27.2219L27.2926 15.7133H27.3789L29.0199 15.3684H29.1062L29.0356 15.047ZM27.1905 15.2586L27.3475 15.2194C27.342 15.1909 27.342 15.1617 27.3475 15.1332L27.2141 14.6236L28.7843 14.2159H28.8707L28.7843 13.8945H28.698L27.0727 14.3179H26.9864L27.1905 15.2586ZM27.1905 12.8518H28.0777L27.3946 13.4163L27.1905 12.8518ZM27.0492 12.8518L27.2847 13.5025L26.8686 13.8396L26.798 13.8788L26.9236 14.2159L26.9785 14.1454L28.3918 12.9537H28.4467L28.3918 12.6715H26.4289L26.4918 12.8361H26.5703L27.0492 12.8518ZM27.167 10.7351L26.3112 12.2325V12.2795L26.4211 12.5226C26.4404 12.5012 26.4646 12.4851 26.4918 12.4755L28.062 11.7935H28.1484L28.0777 11.6445L27.9992 11.6915L26.7273 12.256L27.6066 10.7586C27.6166 10.7361 27.633 10.717 27.6537 10.7037L27.536 10.4372L27.4575 10.4842L25.9265 11.1663H25.8401L25.9108 11.3152L25.9893 11.2682L27.167 10.7351ZM26.6095 9.26906C26.8137 9.59049 26.688 9.90408 26.2405 10.1942C25.793 10.4842 25.4554 10.4607 25.2513 10.1471C25.0471 9.83352 25.1649 9.50425 25.6281 9.21418C26.0913 8.92411 26.4525 8.92411 26.6566 9.24554L26.6095 9.26906ZM26.7273 9.19067C26.6691 9.08033 26.5872 8.9842 26.4874 8.90915C26.3877 8.8341 26.2725 8.78197 26.1503 8.75651C26.028 8.73104 25.9016 8.73286 25.7801 8.76184C25.6587 8.79081 25.5451 8.84622 25.4475 8.92411C25.3377 8.98171 25.2418 9.06268 25.1667 9.16133C25.0916 9.25997 25.039 9.37387 25.0128 9.49499C24.9866 9.61612 24.9874 9.74151 25.015 9.86231C25.0426 9.98312 25.0965 10.0964 25.1727 10.1942C25.2318 10.3071 25.3156 10.4052 25.418 10.4813C25.5203 10.5573 25.6385 10.6094 25.7638 10.6335C25.8891 10.6576 26.0182 10.6532 26.1415 10.6205C26.2648 10.5879 26.3792 10.5279 26.4761 10.445C26.5897 10.3905 26.6897 10.3114 26.7688 10.2135C26.848 10.1156 26.9043 10.0012 26.9336 9.87882C26.9629 9.75642 26.9646 9.62903 26.9384 9.50592C26.9122 9.38281 26.8589 9.26708 26.7822 9.16715L26.7273 9.19067ZM25.8165 7.77951L25.7537 7.84223L24.4661 8.87707L24.3876 8.92411L24.5918 9.18283L24.6546 9.12011L25.9736 8.08526L26.0521 8.03822L25.8165 7.77951ZM24.8901 6.62707L24.7566 6.73682L24.843 6.81522L25.0942 7.12881L23.8459 8.14014L23.7674 8.18718L23.9794 8.44589L24.0422 8.38317L25.2905 7.37184L25.5418 7.68543C25.5662 7.71429 25.5873 7.74585 25.6046 7.77951L25.738 7.66975L24.8901 6.62707ZM23.2649 6.62707L24.05 6.23508L23.681 7.01906L23.2649 6.62707ZM23.1393 6.68979L23.6339 7.16801L23.4141 7.65407C23.4026 7.67783 23.3866 7.69913 23.367 7.71679L23.6261 7.96766C23.6356 7.92254 23.6543 7.87985 23.681 7.84223L24.4661 6.1802V6.12532L24.2306 5.96069H24.1756L22.5504 6.74466H22.4719L22.5975 6.8701L22.6604 6.82306L23.1393 6.68979ZM22.1814 4.70633V6.47811C22.1814 6.47811 22.1814 6.47811 22.1814 6.53299L22.4013 6.68979C22.3952 6.664 22.3952 6.63718 22.4013 6.61139L23.3905 5.25511C23.4079 5.23094 23.4291 5.20976 23.4533 5.19239L23.3199 5.09832C23.308 5.12656 23.2921 5.15296 23.2727 5.17672L22.4876 6.2978V4.55738C22.4813 4.53428 22.4813 4.50991 22.4876 4.48682L22.2521 4.31434C22.2399 4.34245 22.2241 4.36881 22.205 4.39274L21.2236 5.77254L21.1608 5.83525L21.2942 5.92933C21.306 5.90104 21.3219 5.87463 21.3413 5.85093L22.1814 4.70633ZM19.355 4.70633C19.4535 4.85835 19.5921 4.9804 19.7554 5.05912C19.8828 5.12711 20.028 5.15448 20.1715 5.13752C20.2579 5.11957 20.339 5.08192 20.4085 5.02753C20.4779 4.97313 20.5339 4.90346 20.5719 4.82393C20.6208 4.72423 20.6346 4.611 20.6112 4.5025C20.5717 4.3602 20.496 4.23055 20.3913 4.12619C20.1715 3.86748 20.1401 3.7734 20.2029 3.63229C20.2202 3.59812 20.2443 3.56784 20.2737 3.54326C20.3031 3.51869 20.3372 3.50034 20.3739 3.48934C20.4106 3.47834 20.4492 3.47492 20.4873 3.47927C20.5254 3.48363 20.5622 3.49568 20.5955 3.51469C20.7214 3.58202 20.821 3.68972 20.8781 3.82044L21.0194 3.67148C20.9273 3.55441 20.809 3.46045 20.674 3.39709C20.6108 3.35409 20.5393 3.32493 20.464 3.3115C20.3888 3.29808 20.3116 3.30072 20.2374 3.31923C20.1632 3.33774 20.0938 3.37171 20.0338 3.41891C19.9737 3.46611 19.9243 3.52547 19.8889 3.59309C19.7946 3.79692 19.8418 3.97723 20.0616 4.25163C20.1272 4.3285 20.1875 4.40969 20.2422 4.49466C20.2669 4.539 20.2799 4.58893 20.2799 4.63969C20.2799 4.69046 20.2669 4.74038 20.2422 4.78473C20.2225 4.82471 20.1947 4.86017 20.1605 4.88886C20.1264 4.91755 20.0867 4.93883 20.0438 4.95136C20.001 4.9639 19.9561 4.9674 19.9118 4.96166C19.8676 4.95592 19.825 4.94105 19.7868 4.918C19.7127 4.88147 19.6472 4.82978 19.5944 4.7663C19.5417 4.70282 19.5029 4.62897 19.4806 4.54954L19.355 4.70633ZM18.3422 3.80476L18.8446 3.07566L18.9075 3.96156L18.3422 3.80476ZM18.2637 3.92236L18.9232 4.11051V4.64361C18.9429 4.66114 18.959 4.68247 18.9703 4.70633L19.3157 4.80041C19.312 4.77178 19.312 4.7428 19.3157 4.71417L19.1744 2.89535C19.1719 2.87452 19.1719 2.85347 19.1744 2.83263L18.9153 2.76207V2.82479L17.8083 4.32218L17.7533 4.3849L17.9182 4.43194C17.9145 4.40856 17.9145 4.38476 17.9182 4.36138L18.2637 3.92236ZM16.9289 2.40145V2.56608H17.0467L17.4471 2.6288L17.1959 4.19675C17.1999 4.22536 17.1999 4.25438 17.1959 4.28298L17.5256 4.33002C17.5217 4.30141 17.5217 4.27239 17.5256 4.24379L17.7769 2.67584L18.1773 2.73856H18.2872V2.57392L16.9289 2.40145ZM16.2537 2.40145C16.2574 2.43008 16.2574 2.45905 16.2537 2.48768V4.15755C16.2573 4.18619 16.2573 4.21515 16.2537 4.24379H16.5835C16.5789 4.21522 16.5789 4.18612 16.5835 4.15755V2.48768C16.5828 2.44136 16.5936 2.39559 16.6149 2.35441L16.2537 2.40145ZM14.8248 4.19675C14.989 4.27301 15.1709 4.30284 15.3508 4.28298C15.4945 4.27146 15.6314 4.2168 15.7434 4.12619C15.806 4.066 15.8541 3.99237 15.8841 3.91087C15.914 3.82938 15.925 3.74216 15.9161 3.65581C15.9067 3.54427 15.8597 3.43923 15.7827 3.3579C15.676 3.25227 15.5433 3.17656 15.398 3.13838C15.0761 3.02863 14.9975 2.97375 14.974 2.81695C14.9708 2.77861 14.9754 2.74002 14.9877 2.70354C14.9999 2.66707 15.0196 2.63348 15.0453 2.60485C15.071 2.57621 15.1024 2.55313 15.1373 2.53703C15.1723 2.52093 15.2103 2.51214 15.2488 2.5112C15.3908 2.50202 15.5318 2.54067 15.6492 2.62096V2.41713C15.5217 2.36817 15.3852 2.3468 15.2488 2.35441C14.8876 2.39361 14.6599 2.6288 14.6913 2.92671C14.7227 3.22462 14.8562 3.2795 15.186 3.39709L15.4686 3.50685C15.5122 3.53 15.5494 3.56361 15.5768 3.60467C15.6043 3.64572 15.621 3.69292 15.6256 3.74204C15.63 3.78616 15.6251 3.8307 15.6114 3.87285C15.5977 3.91501 15.5754 3.95388 15.5459 3.98701C15.5164 4.02014 15.4803 4.04682 15.44 4.06538C15.3997 4.08393 15.356 4.09396 15.3116 4.09483C15.2289 4.10222 15.1456 4.09208 15.0671 4.06505C14.9886 4.03803 14.9168 3.99475 14.8562 3.93804L14.8248 4.19675ZM13.6314 3.56173L13.4744 2.82479H13.6C13.6857 2.79075 13.7812 2.79075 13.867 2.82479C13.9145 2.85264 13.9558 2.88999 13.9882 2.93451C14.0206 2.97903 14.0435 3.02975 14.0554 3.0835C14.0695 3.13038 14.0736 3.17966 14.0676 3.22823C14.0616 3.27679 14.0455 3.32357 14.0204 3.3656C13.9953 3.40763 13.9617 3.44398 13.9218 3.47234C13.8819 3.50071 13.8364 3.52047 13.7885 3.53037L13.6314 3.56173ZM13.6314 3.66365L14.3616 4.29082L14.4166 4.36138L14.8091 4.26731C14.7765 4.2558 14.747 4.23703 14.7227 4.21243L13.9376 3.57741C14.004 3.55046 14.0672 3.51628 14.1261 3.47549C14.2047 3.42652 14.2655 3.35359 14.2994 3.26747C14.3333 3.18135 14.3386 3.08662 14.3145 2.99727C14.296 2.92728 14.2631 2.86194 14.2178 2.80546C14.1725 2.74898 14.1158 2.70262 14.0514 2.66937C13.9871 2.63613 13.9164 2.61673 13.8441 2.61244C13.7717 2.60816 13.6993 2.61907 13.6314 2.64448L13.0818 2.77775C13.0851 2.8064 13.0851 2.83534 13.0818 2.86399L13.4744 4.48682C13.4784 4.51543 13.4784 4.54445 13.4744 4.57306L13.7963 4.49466C13.7924 4.46604 13.7924 4.43704 13.7963 4.40842L13.6314 3.66365ZM11.7157 3.24814C11.7326 3.2722 11.7458 3.29861 11.755 3.32654L12.336 4.89448C12.3399 4.92309 12.3399 4.95211 12.336 4.98072L13.2389 4.65145L13.1839 4.49466L13.0897 4.5417L12.6265 4.70633L12.3752 4.02427L12.8856 3.83612H12.9798L12.9248 3.695L12.8306 3.74204L12.3281 3.92236L12.0847 3.25598L12.6029 3.06782H12.6893L12.6343 2.92671L11.7157 3.24814ZM10.0356 4.13403L10.1141 4.19675L11.4409 5.38055L11.4959 5.43543L11.7471 5.29431V5.22375L11.4095 3.45981C11.4057 3.43119 11.4057 3.4022 11.4095 3.37357L11.2604 3.45981C11.2652 3.48308 11.2652 3.5071 11.2604 3.53037L11.5508 5.05128L10.3889 4.02427L10.3339 3.97723V3.92236L10.0356 4.13403ZM9.54878 4.43978L9.60374 4.51034L10.5223 5.91365C10.5253 5.9397 10.5253 5.966 10.5223 5.99205L10.7971 5.81173C10.775 5.79147 10.7564 5.76762 10.7422 5.74118L9.90209 4.33786C9.88488 4.314 9.87163 4.28753 9.86283 4.25947L9.54878 4.43978ZM8.29258 5.85877L10.0042 6.32916H10.0591L10.3339 6.18804C10.3088 6.17515 10.2872 6.15631 10.2711 6.13316L9.19548 4.82393C9.17549 4.80061 9.15957 4.77411 9.14837 4.74553L9.02275 4.84745L9.08556 4.91016L9.9649 5.99205L8.29258 5.53734H8.22977L7.97854 5.69414L8.04135 5.75686L9.11696 7.05825L9.16407 7.13665L9.28969 7.05825L9.22688 6.99554L8.29258 5.85877ZM6.70663 7.05825H6.80085L8.42606 7.77951H8.49672L8.693 7.56784L8.64589 7.50512L7.78225 5.93717C7.77927 5.91112 7.77927 5.88482 7.78225 5.85877L7.66449 5.98421C7.68389 5.99897 7.69995 6.01768 7.71159 6.03909L8.45746 7.4032L7.04424 6.77602H6.98928L6.70663 7.05825ZM5.92151 8.04606L6.25126 8.56349L6.40829 8.46941L6.13349 7.91279L5.92151 8.04606ZM5.67812 8.39101L6.00787 8.90843L6.17275 8.80652L5.89796 8.2499L5.67812 8.39101ZM6.33763 10.7429C6.49536 10.6543 6.62571 10.5241 6.71449 10.3666C6.79028 10.2418 6.8259 10.0968 6.81655 9.95112C6.80532 9.86357 6.77397 9.7798 6.72494 9.70636C6.6759 9.63292 6.61052 9.5718 6.53391 9.52777C6.43687 9.47092 6.32333 9.4488 6.21201 9.46506C6.06709 9.49293 5.93186 9.55774 5.81944 9.65321C5.54465 9.8492 5.44258 9.88056 5.31697 9.80217C5.28426 9.78224 5.25596 9.75588 5.23377 9.7247C5.21158 9.69351 5.19597 9.65814 5.1879 9.62075C5.17982 9.58335 5.17944 9.54471 5.18678 9.50716C5.19412 9.46962 5.20903 9.43395 5.2306 9.40234C5.30474 9.27979 5.41818 9.18586 5.5525 9.13579L5.41118 8.98683C5.28834 9.06969 5.18626 9.17967 5.11283 9.30826C5.06748 9.36789 5.03503 9.43628 5.01752 9.50909C5.00001 9.58189 4.99782 9.65754 5.01111 9.73123C5.02439 9.80493 5.05285 9.87506 5.09469 9.9372C5.13653 9.99934 5.19083 10.0521 5.25416 10.0922C5.45044 10.202 5.63887 10.1706 5.92151 9.9668L6.1806 9.80217C6.22476 9.77671 6.27486 9.7633 6.32585 9.7633C6.37684 9.7633 6.42694 9.77671 6.4711 9.80217C6.50967 9.82451 6.54318 9.85461 6.56949 9.89057C6.5958 9.92653 6.61434 9.96755 6.62394 10.011C6.63353 10.0545 6.63398 10.0995 6.62524 10.1432C6.6165 10.1869 6.59876 10.2282 6.57316 10.2647C6.53147 10.3368 6.47492 10.3993 6.40725 10.4479C6.33957 10.4966 6.26232 10.5303 6.1806 10.5469L6.33763 10.7429ZM4.09217 11.3544H4.19424L5.96077 11.5818H6.03928L6.1649 11.3231L6.10209 11.276L4.83804 10.0217L4.78308 9.95112L4.70457 10.1079L4.76738 10.1471L5.86655 11.2447L4.2963 11.0408H4.23349L4.09217 11.3544ZM3.83308 12.9929L5.5368 12.499H5.59176L5.67812 12.2482H5.59176L4.02151 11.6915L3.943 11.6523L3.88804 11.8091H3.9744L5.28556 12.2638L3.61325 12.7499H3.54259L3.44837 13.0243H3.53473L5.10498 13.5731L5.18349 13.6123L5.23845 13.4555H5.15209L3.83308 12.9929ZM3.23639 13.7299H3.32275L4.893 14.2316H4.97151L5.07358 13.918H4.98721L3.41697 13.4163H3.33845L3.23639 13.7299ZM2.84383 15.2037L3.0087 15.2429C3.00394 15.2039 3.00394 15.1644 3.0087 15.1254L3.11077 14.7334L4.68102 15.141H4.76738L4.85374 14.8196H4.76738L3.19713 14.4119L3.2992 14.0199C3.3079 13.9819 3.32108 13.9451 3.33845 13.9102L3.17358 13.871L2.84383 15.2037ZM4.31986 16.7717C4.44077 16.6368 4.52224 16.4714 4.5554 16.2935C4.59829 16.1556 4.59829 16.008 4.5554 15.8701C4.51689 15.7917 4.46069 15.7233 4.39121 15.6702C4.32173 15.6172 4.24086 15.5809 4.15498 15.5644C4.04632 15.541 3.93292 15.5548 3.83308 15.6036C3.70667 15.6779 3.60129 15.7831 3.52688 15.9093C3.3306 16.1837 3.24424 16.2464 3.09507 16.2151C3.05734 16.2069 3.02169 16.1911 2.99031 16.1686C2.95894 16.1462 2.93251 16.1175 2.91264 16.0845C2.89278 16.0514 2.87991 16.0146 2.87483 15.9764C2.86974 15.9382 2.87255 15.8994 2.88308 15.8623C2.91467 15.7234 2.99209 15.5992 3.10292 15.5095L2.92234 15.4154C2.83219 15.5331 2.7704 15.6699 2.74176 15.8152C2.71788 15.8862 2.70901 15.9614 2.71571 16.0359C2.72242 16.1105 2.74455 16.1829 2.78071 16.2485C2.81687 16.314 2.86628 16.3714 2.92579 16.4169C2.98531 16.4625 3.05364 16.4952 3.12647 16.513C3.3463 16.5522 3.51118 16.4659 3.72316 16.1837C3.78077 16.1013 3.84372 16.0227 3.91159 15.9485C3.94675 15.9129 3.99052 15.887 4.03867 15.8732C4.08682 15.8595 4.1377 15.8584 4.18639 15.8701C4.23019 15.8791 4.27164 15.8971 4.30809 15.923C4.34453 15.9489 4.37518 15.982 4.39808 16.0204C4.42098 16.0587 4.43563 16.1014 4.44108 16.1458C4.44654 16.1901 4.44269 16.235 4.42978 16.2778C4.41315 16.3594 4.37935 16.4365 4.33062 16.5041C4.2819 16.5717 4.21935 16.6282 4.14713 16.6698L4.31986 16.7717ZM2.42771 18.128H2.52193L4.25705 17.736H4.33556V17.4538H4.2649L2.63184 16.709L2.56118 16.6619V16.8344H2.63184L4.04506 17.4851L2.53763 17.8301H2.48267L2.42771 18.128ZM2.46697 18.3945C2.39628 18.558 2.35891 18.7339 2.35705 18.9119C2.34404 19.0398 2.35927 19.1689 2.40167 19.2902C2.44408 19.4114 2.51262 19.522 2.60246 19.6139C2.69231 19.7059 2.80127 19.777 2.92165 19.8224C3.04204 19.8677 3.17092 19.8861 3.2992 19.8762C3.43701 19.8851 3.57517 19.8653 3.70491 19.8181C3.83466 19.7708 3.95316 19.6972 4.05292 19.6018C4.13603 19.5191 4.20068 19.4198 4.24263 19.3103C4.28457 19.2009 4.30287 19.0838 4.2963 18.9668C4.30193 18.7474 4.26459 18.5291 4.18639 18.324C4.15026 18.3326 4.1126 18.3326 4.07647 18.324H3.36201H3.27564V18.6454H3.36201H4.08432C4.13635 18.7329 4.16096 18.8339 4.15498 18.9355C4.15498 19.3118 3.84878 19.5313 3.36986 19.5156C3.14447 19.5305 2.92209 19.4574 2.74961 19.3118C2.69123 19.2551 2.64563 19.1866 2.61584 19.1109C2.58606 19.0352 2.57278 18.954 2.57688 18.8727C2.58189 18.6892 2.64822 18.5126 2.76531 18.371L2.46697 18.3945ZM2.37275 21.4128L2.46697 21.3736L4.14713 20.7935H4.22564V20.5113H4.14713L2.48267 19.9154H2.40416V20.0879H2.48267L3.9587 20.5818L2.48267 21.06H2.41986L2.37275 21.4128ZM3.64465 22.4398L2.78102 22.236L3.56614 21.8519L3.64465 22.4398ZM3.78597 22.4398L3.71531 21.7578L4.19424 21.5304H4.27275V21.1698L4.20209 21.2247L2.56118 22.0086H2.49837V22.2752H2.56903L4.32771 22.7064H4.40622V22.5339H4.32771L3.78597 22.4398ZM4.65746 24.6506C4.7068 24.4764 4.7068 24.2918 4.65746 24.1175C4.63177 23.9751 4.56331 23.8439 4.46118 23.7412C4.39492 23.6848 4.31665 23.6441 4.2323 23.6224C4.14795 23.6006 4.05975 23.5984 3.9744 23.6158C3.86421 23.6371 3.76454 23.6951 3.69176 23.7804C3.60338 23.8974 3.54661 24.0351 3.52688 24.1803C3.45622 24.5174 3.40126 24.5958 3.25209 24.6271C3.21434 24.6338 3.17562 24.6327 3.1383 24.624C3.10097 24.6153 3.06581 24.599 3.03497 24.5763C3.00412 24.5536 2.97823 24.5248 2.95887 24.4917C2.9395 24.4587 2.92708 24.4221 2.92234 24.3841C2.89726 24.245 2.91937 24.1015 2.98515 23.9764H2.78102C2.74721 24.1208 2.74721 24.2711 2.78102 24.4154C2.78656 24.4903 2.80766 24.5633 2.84297 24.6296C2.87828 24.6959 2.92703 24.7541 2.98611 24.8006C3.04519 24.847 3.11332 24.8807 3.18614 24.8994C3.25897 24.9181 3.33491 24.9215 3.40912 24.9094C3.62895 24.8623 3.74672 24.7134 3.82523 24.3762C3.84749 24.2777 3.87634 24.1808 3.91159 24.0862C3.92968 24.0398 3.95939 23.9989 3.99789 23.9673C4.03639 23.9357 4.08238 23.9146 4.13143 23.9059C4.17491 23.8969 4.21978 23.8969 4.26323 23.9061C4.30667 23.9152 4.34775 23.9333 4.38388 23.959C4.42002 23.9848 4.45042 24.0178 4.47318 24.0558C4.49594 24.0939 4.51057 24.1363 4.51614 24.1803C4.53222 24.262 4.53074 24.3461 4.51179 24.4272C4.49284 24.5083 4.45686 24.5845 4.40622 24.6506H4.65746ZM3.36201 26.5714L3.44052 26.5087L4.9244 25.5365H4.99506L4.9244 25.2621H4.83804L3.04796 25.1367H2.96159L3.0087 25.3013H3.07936L4.64961 25.4189L3.35416 26.2656H3.2992L3.36201 26.5714ZM3.88804 27.9825L4.04506 27.9277C4.02254 27.8961 4.00408 27.8619 3.99011 27.8257L3.87234 27.4416L5.38763 26.9006H5.47399L5.36407 26.5871L5.28556 26.6263L3.77027 27.1672L3.6368 26.7909C3.63265 26.7544 3.63265 26.7176 3.6368 26.6811L3.47978 26.736L3.88804 27.9825ZM3.9744 28.0688C3.98003 28.2186 4.0175 28.3656 4.08432 28.5C4.12498 28.6208 4.19219 28.731 4.28105 28.8226C4.3699 28.9141 4.47814 28.9846 4.59784 29.029C4.71753 29.0733 4.84565 29.0904 4.9728 29.0789C5.09995 29.0674 5.22291 29.0276 5.33267 28.9625C5.45551 28.928 5.56887 28.866 5.66415 28.7813C5.75942 28.6965 5.83411 28.5912 5.88255 28.4733C5.93098 28.3555 5.95188 28.2281 5.94367 28.101C5.93546 27.9738 5.89834 27.8502 5.83515 27.7395C5.76822 27.5849 5.66281 27.45 5.52895 27.3475L5.30911 27.4494C5.38862 27.4721 5.46217 27.512 5.52457 27.5662C5.58697 27.6204 5.63671 27.6876 5.67027 27.763C5.8273 28.108 5.67027 28.4608 5.1992 28.6646C4.72812 28.8684 4.41407 28.7822 4.21779 28.4372C4.18605 28.3615 4.1697 28.2802 4.1697 28.1981C4.1697 28.116 4.18605 28.0347 4.21779 27.959L3.9744 28.0688ZM5.62316 30.7264L6.40829 29.1585V29.1115L6.27482 28.8763C6.25869 28.8994 6.23712 28.9182 6.21201 28.9311L4.74383 29.7151H4.65746L4.73597 29.8562L4.83804 29.7935L6.05498 29.1193L5.26986 30.6872C5.26338 30.7116 5.2497 30.7335 5.2306 30.75L5.37192 31.0087L5.44259 30.9538L6.91077 30.1698H6.99713L6.91862 30.0287L6.84796 30.0836L5.62316 30.7264ZM7.25622 31.628L6.40829 31.9102L6.87936 31.1263L7.25622 31.628ZM7.38969 31.581L6.96572 31.04L7.24837 30.5932C7.26217 30.5687 7.28088 30.5473 7.30333 30.5304L7.08349 30.2482C7.08728 30.2768 7.08728 30.3058 7.08349 30.3345L6.11779 31.9024L6.07854 31.9494L6.24341 32.1611H6.30622L7.97854 31.5261H8.0649L7.97854 31.3615H7.90787L7.38969 31.581ZM8.76366 32.4512C8.7309 32.2731 8.64937 32.1076 8.52812 31.973C8.43376 31.8622 8.30774 31.7829 8.16696 31.7456C8.08102 31.7292 7.99247 31.7328 7.90809 31.7559C7.82372 31.779 7.74576 31.821 7.68019 31.8789C7.59476 31.9516 7.53661 32.0511 7.51531 32.1611C7.49611 32.3072 7.51504 32.4557 7.57027 32.5923C7.67234 32.9216 7.66449 33.0156 7.57027 33.1176C7.54082 33.1423 7.50662 33.1607 7.46978 33.1718C7.43293 33.1829 7.39421 33.1863 7.35599 33.1819C7.31776 33.1775 7.28084 33.1654 7.24749 33.1462C7.21413 33.127 7.18504 33.1013 7.16201 33.0705C7.06926 32.9605 7.01667 32.8223 7.01283 32.6785L6.8244 32.7648C6.86458 32.9074 6.93711 33.0388 7.03639 33.1489C7.07843 33.2103 7.13272 33.2625 7.19584 33.302C7.25897 33.3415 7.32959 33.3676 7.40327 33.3786C7.47696 33.3897 7.55214 33.3854 7.6241 33.3661C7.69606 33.3468 7.76327 33.3129 7.82151 33.2665C7.98639 33.1176 8.01779 32.9294 7.91573 32.5923C7.88549 32.4947 7.86189 32.3952 7.84506 32.2944C7.83763 32.2449 7.84312 32.1944 7.861 32.1477C7.87888 32.101 7.90855 32.0597 7.94713 32.0278C7.98038 31.9983 8.0194 31.976 8.06171 31.9623C8.10403 31.9486 8.14873 31.9438 8.19299 31.9483C8.23725 31.9527 8.28012 31.9662 8.31888 31.988C8.35764 32.0098 8.39146 32.0394 8.4182 32.0749C8.47326 32.1376 8.51433 32.2112 8.53869 32.291C8.56306 32.3707 8.57016 32.4547 8.55953 32.5374L8.76366 32.4512ZM8.29258 33.5644L7.73515 33.8388L7.82151 34.0113L8.4025 33.7996L8.29258 33.5644ZM8.60663 33.8388L8.0492 34.1132L8.13556 34.2857L8.71655 34.074L8.60663 33.8388Z" fill="#1A1A18"/>
<path d="M36.335 32.4231H36.6018V33.8823C36.6018 34.0329 36.5663 34.1675 36.4953 34.2858C36.425 34.4035 36.3256 34.4964 36.1972 34.5645C36.0688 34.632 35.9181 34.6657 35.7452 34.6657C35.5724 34.6657 35.4217 34.632 35.2933 34.5645C35.1649 34.4964 35.0652 34.4035 34.9941 34.2858C34.9238 34.1675 34.8887 34.0329 34.8887 33.8823V32.4231H35.1555V33.8608C35.1555 33.9684 35.1792 34.0641 35.2266 34.1481C35.2739 34.2313 35.3414 34.2969 35.4289 34.345C35.5171 34.3924 35.6226 34.416 35.7452 34.416C35.8679 34.416 35.9734 34.3924 36.0616 34.345C36.1499 34.2969 36.2173 34.2313 36.2639 34.1481C36.3113 34.0641 36.335 33.9684 36.335 33.8608V32.4231Z" fill="#990537"/>
<path d="M38.8824 32.4231V34.6269H38.6241L37.4232 32.8966H37.4016V34.6269H37.1348V32.4231H37.393L38.5983 34.1578H38.6198V32.4231H38.8824Z" fill="#990537"/>
<path d="M39.6832 32.4231V34.6269H39.4164V32.4231H39.6832Z" fill="#990537"/>
<path d="M40.3087 32.4231L40.963 34.2783H40.9888L41.6431 32.4231H41.9229L41.1137 34.6269H40.8382L40.0289 32.4231H40.3087Z" fill="#990537"/>
<path d="M42.2662 34.6269V32.4231H43.5962V32.6598H42.533V33.4045H43.5274V33.6412H42.533V34.3902H43.6134V34.6269H42.2662Z" fill="#990537"/>
<path d="M44.0772 34.6269V32.4231H44.8219C44.9941 32.4231 45.1354 32.4525 45.2459 32.5113C45.3564 32.5694 45.4381 32.6494 45.4912 32.7513C45.5443 32.8532 45.5709 32.969 45.5709 33.0989C45.5709 33.2287 45.5443 33.3439 45.4912 33.4443C45.4381 33.5447 45.3567 33.6237 45.247 33.6811C45.1372 33.7377 44.9969 33.7661 44.8262 33.7661H44.2236V33.525H44.8176C44.9353 33.525 45.0299 33.5078 45.1017 33.4734C45.1741 33.4389 45.2265 33.3901 45.2588 33.327C45.2918 33.2632 45.3083 33.1871 45.3083 33.0989C45.3083 33.0106 45.2918 32.9335 45.2588 32.8675C45.2258 32.8015 45.1731 32.7506 45.1006 32.7147C45.0282 32.6781 44.9324 32.6598 44.8133 32.6598H44.3441V34.6269H44.0772ZM45.1146 33.6369L45.657 34.6269H45.347L44.8133 33.6369H45.1146Z" fill="#990537"/>
<path d="M47.2208 32.9741C47.2079 32.865 47.1555 32.7804 47.0637 32.7201C46.9719 32.6598 46.8592 32.6297 46.7258 32.6297C46.6282 32.6297 46.5429 32.6455 46.4697 32.6771C46.3972 32.7086 46.3406 32.752 46.2997 32.8073C46.2595 32.8625 46.2394 32.9253 46.2394 32.9956C46.2394 33.0544 46.2534 33.105 46.2814 33.1473C46.3101 33.1889 46.3466 33.2237 46.3911 33.2517C46.4356 33.279 46.4822 33.3016 46.531 33.3195C46.5798 33.3367 46.6246 33.3507 46.6655 33.3615L46.8894 33.4217C46.9468 33.4368 47.0106 33.4576 47.0809 33.4841C47.1519 33.5107 47.2197 33.5469 47.2843 33.5928C47.3496 33.638 47.4034 33.6961 47.4457 33.7671C47.488 33.8382 47.5092 33.9253 47.5092 34.0286C47.5092 34.1477 47.478 34.2553 47.4156 34.3515C47.3539 34.4476 47.2635 34.524 47.1444 34.5807C47.026 34.6374 46.8822 34.6657 46.7129 34.6657C46.5551 34.6657 46.4184 34.6402 46.3029 34.5893C46.1881 34.5384 46.0977 34.4673 46.0317 34.3762C45.9664 34.2851 45.9295 34.1793 45.9209 34.0588H46.1964C46.2035 34.142 46.2315 34.2109 46.2803 34.2654C46.3298 34.3192 46.3922 34.3594 46.4675 34.3859C46.5436 34.4117 46.6254 34.4246 46.7129 34.4246C46.8148 34.4246 46.9062 34.4081 46.9873 34.3751C47.0684 34.3414 47.1326 34.2948 47.1799 34.2352C47.2273 34.175 47.2509 34.1047 47.2509 34.0243C47.2509 33.9512 47.2305 33.8916 47.1896 33.8457C47.1487 33.7998 47.0949 33.7625 47.0282 33.7338C46.9615 33.7051 46.8894 33.68 46.8119 33.6585L46.5407 33.581C46.3685 33.5315 46.2322 33.4608 46.1318 33.369C46.0314 33.2772 45.9811 33.157 45.9811 33.0085C45.9811 32.8851 46.0145 32.7775 46.0812 32.6857C46.1486 32.5931 46.239 32.5214 46.3524 32.4704C46.4665 32.4188 46.5938 32.393 46.7344 32.393C46.8764 32.393 47.0027 32.4184 47.1132 32.4694C47.2237 32.5196 47.3112 32.5885 47.3758 32.676C47.441 32.7635 47.4755 32.8629 47.4791 32.9741H47.2208Z" fill="#990537"/>
<path d="M48.2149 32.4231V34.6269H47.948V32.4231H48.2149Z" fill="#990537"/>
<path d="M49.43 34.6269H48.7499V32.4231H49.4602C49.674 32.4231 49.8569 32.4672 50.009 32.5555C50.1611 32.643 50.2776 32.7689 50.3587 32.9332C50.4398 33.0967 50.4803 33.2926 50.4803 33.5207C50.4803 33.7503 50.4394 33.9479 50.3576 34.1136C50.2759 34.2787 50.1568 34.4056 50.0004 34.4946C49.844 34.5828 49.6539 34.6269 49.43 34.6269ZM49.0168 34.3902H49.4128C49.595 34.3902 49.7461 34.3551 49.8659 34.2847C49.9857 34.2144 50.075 34.1144 50.1338 33.9845C50.1926 33.8547 50.2221 33.7001 50.2221 33.5207C50.2221 33.3428 50.193 33.1896 50.1349 33.0612C50.0768 32.9321 49.99 32.8331 49.8745 32.7642C49.759 32.6946 49.6151 32.6598 49.443 32.6598H49.0168V34.3902Z" fill="#990537"/>
<path d="M50.9148 34.6269H50.635L51.4442 32.4231H51.7197L52.5289 34.6269H52.2492L51.5906 32.7717H51.5734L50.9148 34.6269ZM51.0181 33.7661H52.1459V34.0028H51.0181V33.7661Z" fill="#990537"/>
<path d="M53.5523 34.6269H52.8722V32.4231H53.5824C53.7962 32.4231 53.9792 32.4672 54.1313 32.5555C54.2833 32.643 54.3999 32.7689 54.481 32.9332C54.5621 33.0967 54.6026 33.2926 54.6026 33.5207C54.6026 33.7503 54.5617 33.9479 54.4799 34.1136C54.3981 34.2787 54.279 34.4056 54.1227 34.4946C53.9663 34.5828 53.7761 34.6269 53.5523 34.6269ZM53.1391 34.3902H53.5351C53.7173 34.3902 53.8683 34.3551 53.9881 34.2847C54.1079 34.2144 54.1973 34.1144 54.2561 33.9845C54.3149 33.8547 54.3443 33.7001 54.3443 33.5207C54.3443 33.3428 54.3153 33.1896 54.2572 33.0612C54.1991 32.9321 54.1122 32.8331 53.9967 32.7642C53.8812 32.6946 53.7374 32.6598 53.5652 32.6598H53.1391V34.3902Z" fill="#990537"/>
<path d="M57.6501 32.4231V34.6269H57.3918L56.1909 32.8966H56.1694V34.6269H55.9025V32.4231H56.1608L57.366 34.1578H57.3875V32.4231H57.6501Z" fill="#990537"/>
<path d="M58.2745 34.6269H57.9947L58.804 32.4231H59.0794L59.8887 34.6269H59.6089L58.9503 32.7717H58.9331L58.2745 34.6269ZM58.3778 33.7661H59.5056V34.0028H58.3778V33.7661Z" fill="#990537"/>
<path d="M61.9018 33.1118H61.6349C61.6191 33.035 61.5915 32.9676 61.5521 32.9095C61.5133 32.8514 61.466 32.8026 61.41 32.7631C61.3548 32.723 61.2934 32.6928 61.226 32.6727C61.1586 32.6527 61.0883 32.6426 61.0151 32.6426C60.8816 32.6426 60.7608 32.6763 60.6524 32.7438C60.5448 32.8112 60.4591 32.9106 60.3953 33.0419C60.3321 33.1731 60.3006 33.3342 60.3006 33.525C60.3006 33.7158 60.3321 33.8769 60.3953 34.0082C60.4591 34.1395 60.5448 34.2388 60.6524 34.3063C60.7608 34.3737 60.8816 34.4074 61.0151 34.4074C61.0883 34.4074 61.1586 34.3974 61.226 34.3773C61.2934 34.3572 61.3548 34.3274 61.41 34.288C61.466 34.2478 61.5133 34.1987 61.5521 34.1406C61.5915 34.0817 61.6191 34.0143 61.6349 33.9382H61.9018C61.8817 34.0509 61.8451 34.1517 61.792 34.2406C61.7389 34.3296 61.6729 34.4053 61.594 34.4677C61.5151 34.5294 61.4265 34.5764 61.3282 34.6087C61.2307 34.6409 61.1263 34.6571 61.0151 34.6571C60.8271 34.6571 60.66 34.6112 60.5136 34.5193C60.3673 34.4275 60.2521 34.2969 60.1682 34.1276C60.0843 33.9583 60.0423 33.7575 60.0423 33.525C60.0423 33.2926 60.0843 33.0917 60.1682 32.9224C60.2521 32.7531 60.3673 32.6225 60.5136 32.5307C60.66 32.4389 60.8271 32.393 61.0151 32.393C61.1263 32.393 61.2307 32.4091 61.3282 32.4414C61.4265 32.4737 61.5151 32.521 61.594 32.5834C61.6729 32.6451 61.7389 32.7205 61.792 32.8094C61.8451 32.8977 61.8817 32.9984 61.9018 33.1118Z" fill="#990537"/>
<path d="M62.5999 32.4231V34.6269H62.333V32.4231H62.5999Z" fill="#990537"/>
<path d="M64.9945 33.525C64.9945 33.7575 64.9525 33.9583 64.8686 34.1276C64.7847 34.2969 64.6695 34.4275 64.5232 34.5193C64.3768 34.6112 64.2097 34.6571 64.0217 34.6571C63.8338 34.6571 63.6666 34.6112 63.5203 34.5193C63.3739 34.4275 63.2588 34.2969 63.1748 34.1276C63.0909 33.9583 63.0489 33.7575 63.0489 33.525C63.0489 33.2926 63.0909 33.0917 63.1748 32.9224C63.2588 32.7531 63.3739 32.6225 63.5203 32.5307C63.6666 32.4389 63.8338 32.393 64.0217 32.393C64.2097 32.393 64.3768 32.4389 64.5232 32.5307C64.6695 32.6225 64.7847 32.7531 64.8686 32.9224C64.9525 33.0917 64.9945 33.2926 64.9945 33.525ZM64.7362 33.525C64.7362 33.3342 64.7043 33.1731 64.6405 33.0419C64.5773 32.9106 64.4916 32.8112 64.3833 32.7438C64.2757 32.6763 64.1552 32.6426 64.0217 32.6426C63.8883 32.6426 63.7674 32.6763 63.6591 32.7438C63.5515 32.8112 63.4657 32.9106 63.4019 33.0419C63.3387 33.1731 63.3072 33.3342 63.3072 33.525C63.3072 33.7158 63.3387 33.8769 63.4019 34.0082C63.4657 34.1395 63.5515 34.2388 63.6591 34.3063C63.7674 34.3737 63.8883 34.4074 64.0217 34.4074C64.1552 34.4074 64.2757 34.3737 64.3833 34.3063C64.4916 34.2388 64.5773 34.1395 64.6405 34.0082C64.7043 33.8769 64.7362 33.7158 64.7362 33.525Z" fill="#990537"/>
<path d="M67.1908 32.4231V34.6269H66.9326L65.7316 32.8966H65.7101V34.6269H65.4432V32.4231H65.7015L66.9067 34.1578H66.9283V32.4231H67.1908Z" fill="#990537"/>
<path d="M67.8152 34.6269H67.5355L68.3447 32.4231H68.6202L69.4294 34.6269H69.1496L68.491 32.7717H68.4738L67.8152 34.6269ZM67.9185 33.7661H69.0463V34.0028H67.9185V33.7661Z" fill="#990537"/>
<path d="M69.7727 34.6269V32.4231H70.0395V34.3902H71.064V34.6269H69.7727Z" fill="#990537"/>
<path d="M73.0096 34.6269H72.3295V32.4231H73.0397C73.2535 32.4231 73.4364 32.4672 73.5885 32.5555C73.7406 32.643 73.8572 32.7689 73.9383 32.9332C74.0193 33.0967 74.0599 33.2926 74.0599 33.5207C74.0599 33.7503 74.019 33.9479 73.9372 34.1136C73.8554 34.2787 73.7363 34.4056 73.5799 34.4946C73.4235 34.5828 73.2334 34.6269 73.0096 34.6269ZM72.5964 34.3902H72.9924C73.1746 34.3902 73.3256 34.3551 73.4454 34.2847C73.5652 34.2144 73.6545 34.1144 73.7134 33.9845C73.7722 33.8547 73.8016 33.7001 73.8016 33.5207C73.8016 33.3428 73.7725 33.1896 73.7144 33.0612C73.6563 32.9321 73.5695 32.8331 73.454 32.7642C73.3385 32.6946 73.1947 32.6598 73.0225 32.6598H72.5964V34.3902Z" fill="#990537"/>
<path d="M74.5075 34.6269V32.4231H75.8376V32.6598H74.7744V33.4045H75.7687V33.6412H74.7744V34.3902H75.8548V34.6269H74.5075Z" fill="#990537"/>
<path d="M78.3761 32.9741C78.3632 32.865 78.3108 32.7804 78.219 32.7201C78.1272 32.6598 78.0145 32.6297 77.8811 32.6297C77.7835 32.6297 77.6982 32.6455 77.625 32.6771C77.5525 32.7086 77.4959 32.752 77.455 32.8073C77.4148 32.8625 77.3947 32.9253 77.3947 32.9956C77.3947 33.0544 77.4087 33.105 77.4367 33.1473C77.4654 33.1889 77.502 33.2237 77.5464 33.2517C77.5909 33.279 77.6375 33.3016 77.6863 33.3195C77.7351 33.3367 77.7799 33.3507 77.8208 33.3615L78.0447 33.4217C78.1021 33.4368 78.1659 33.4576 78.2362 33.4841C78.3072 33.5107 78.375 33.5469 78.4396 33.5928C78.5049 33.638 78.5587 33.6961 78.601 33.7671C78.6433 33.8382 78.6645 33.9253 78.6645 34.0286C78.6645 34.1477 78.6333 34.2553 78.5709 34.3515C78.5092 34.4476 78.4188 34.524 78.2997 34.5807C78.1813 34.6374 78.0375 34.6657 77.8682 34.6657C77.7104 34.6657 77.5737 34.6402 77.4582 34.5893C77.3434 34.5384 77.253 34.4673 77.187 34.3762C77.1217 34.2851 77.0848 34.1793 77.0762 34.0588H77.3517C77.3588 34.142 77.3868 34.2109 77.4356 34.2654C77.4851 34.3192 77.5475 34.3594 77.6228 34.3859C77.6989 34.4117 77.7807 34.4246 77.8682 34.4246C77.9701 34.4246 78.0615 34.4081 78.1426 34.3751C78.2237 34.3414 78.2879 34.2948 78.3352 34.2352C78.3826 34.175 78.4062 34.1047 78.4062 34.0243C78.4062 33.9512 78.3858 33.8916 78.3449 33.8457C78.304 33.7998 78.2502 33.7625 78.1835 33.7338C78.1168 33.7051 78.0447 33.68 77.9672 33.6585L77.696 33.581C77.5238 33.5315 77.3875 33.4608 77.2871 33.369C77.1867 33.2772 77.1364 33.157 77.1364 33.0085C77.1364 32.8851 77.1698 32.7775 77.2365 32.6857C77.304 32.5931 77.3943 32.5214 77.5077 32.4704C77.6218 32.4188 77.7491 32.393 77.8897 32.393C78.0318 32.393 78.158 32.4184 78.2685 32.4694C78.379 32.5196 78.4665 32.5885 78.5311 32.676C78.5963 32.7635 78.6308 32.8629 78.6344 32.9741H78.3761Z" fill="#990537"/>
<path d="M79.1937 34.6269H78.9139L79.7231 32.4231H79.9986L80.8078 34.6269H80.528L79.8695 32.7717H79.8522L79.1937 34.6269ZM79.297 33.7661H80.4247V34.0028H79.297V33.7661Z" fill="#990537"/>
<path d="M82.8987 32.4231V34.6269H82.6404L81.4395 32.8966H81.418V34.6269H81.1511V32.4231H81.4094L82.6146 34.1578H82.6361V32.4231H82.8987Z" fill="#990537"/>
<path d="M84.3754 34.6269H84.0956L84.9048 32.4231H85.1803L85.9895 34.6269H85.7097L85.0512 32.7717H85.034L84.3754 34.6269ZM84.4787 33.7661H85.6064V34.0028H84.4787V33.7661Z" fill="#990537"/>
<path d="M87.7358 33.1118C87.7121 33.0393 87.6809 32.9744 87.6422 32.917C87.6041 32.8589 87.5586 32.8094 87.5055 32.7685C87.4531 32.7276 87.3936 32.6964 87.3269 32.6749C87.2601 32.6534 87.187 32.6426 87.1073 32.6426C86.9768 32.6426 86.858 32.6763 86.7511 32.7438C86.6442 32.8112 86.5592 32.9106 86.4961 33.0419C86.433 33.1731 86.4014 33.3342 86.4014 33.525C86.4014 33.7158 86.4333 33.8769 86.4972 34.0082C86.561 34.1395 86.6475 34.2388 86.7565 34.3063C86.8656 34.3737 86.9882 34.4074 87.1245 34.4074C87.2508 34.4074 87.362 34.3805 87.4581 34.3267C87.555 34.2722 87.6303 34.1954 87.6841 34.0964C87.7386 33.9967 87.7659 33.8794 87.7659 33.7445L87.8477 33.7618H87.1848V33.525H88.0242V33.7618C88.0242 33.9433 87.9854 34.1011 87.908 34.2352C87.8312 34.3694 87.725 34.4734 87.5894 34.5473C87.4546 34.6205 87.2996 34.6571 87.1245 34.6571C86.9294 34.6571 86.758 34.6112 86.6102 34.5193C86.4631 34.4275 86.3483 34.2969 86.2658 34.1276C86.184 33.9583 86.1431 33.7575 86.1431 33.525C86.1431 33.3507 86.1665 33.1939 86.2131 33.0548C86.2604 32.9149 86.3272 32.7958 86.4132 32.6975C86.4993 32.5992 86.6012 32.5239 86.7189 32.4715C86.8365 32.4191 86.966 32.393 87.1073 32.393C87.2235 32.393 87.3319 32.4105 87.4323 32.4457C87.5335 32.4801 87.6235 32.5293 87.7024 32.5931C87.7821 32.6562 87.8484 32.7319 87.9015 32.8202C87.9546 32.9077 87.9912 33.0049 88.0113 33.1118H87.7358Z" fill="#990537"/>
<path d="M89.9275 32.4231H90.1944V33.8823C90.1944 34.0329 90.1589 34.1675 90.0879 34.2858C90.0176 34.4035 89.9182 34.4964 89.7898 34.5645C89.6614 34.632 89.5107 34.6657 89.3378 34.6657C89.1649 34.6657 89.0143 34.632 88.8859 34.5645C88.7574 34.4964 88.6577 34.4035 88.5867 34.2858C88.5164 34.1675 88.4812 34.0329 88.4812 33.8823V32.4231H88.7481V33.8608C88.7481 33.9684 88.7718 34.0641 88.8191 34.1481C88.8665 34.2313 88.9339 34.2969 89.0214 34.345C89.1097 34.3924 89.2151 34.416 89.3378 34.416C89.4605 34.416 89.566 34.3924 89.6542 34.345C89.7424 34.2969 89.8099 34.2313 89.8565 34.1481C89.9039 34.0641 89.9275 33.9684 89.9275 33.8608V32.4231Z" fill="#990537"/>
<path d="M91.9326 32.9741C91.9197 32.865 91.8673 32.7804 91.7755 32.7201C91.6836 32.6598 91.571 32.6297 91.4376 32.6297C91.34 32.6297 91.2546 32.6455 91.1815 32.6771C91.109 32.7086 91.0523 32.752 91.0114 32.8073C90.9713 32.8625 90.9512 32.9253 90.9512 32.9956C90.9512 33.0544 90.9652 33.105 90.9931 33.1473C91.0218 33.1889 91.0584 33.2237 91.1029 33.2517C91.1474 33.279 91.194 33.3016 91.2428 33.3195C91.2916 33.3367 91.3364 33.3507 91.3773 33.3615L91.6011 33.4217C91.6585 33.4368 91.7224 33.4576 91.7927 33.4841C91.8637 33.5107 91.9315 33.5469 91.9961 33.5928C92.0613 33.638 92.1152 33.6961 92.1575 33.7671C92.1998 33.8382 92.221 33.9253 92.221 34.0286C92.221 34.1477 92.1898 34.2553 92.1273 34.3515C92.0657 34.4476 91.9753 34.524 91.8562 34.5807C91.7378 34.6374 91.594 34.6657 91.4247 34.6657C91.2668 34.6657 91.1302 34.6402 91.0147 34.5893C90.8999 34.5384 90.8095 34.4673 90.7435 34.3762C90.6782 34.2851 90.6413 34.1793 90.6326 34.0588H90.9081C90.9153 34.142 90.9433 34.2109 90.9921 34.2654C91.0416 34.3192 91.104 34.3594 91.1793 34.3859C91.2553 34.4117 91.3371 34.4246 91.4247 34.4246C91.5265 34.4246 91.618 34.4081 91.6991 34.3751C91.7801 34.3414 91.8443 34.2948 91.8917 34.2352C91.939 34.175 91.9627 34.1047 91.9627 34.0243C91.9627 33.9512 91.9423 33.8916 91.9014 33.8457C91.8605 33.7998 91.8067 33.7625 91.7399 33.7338C91.6732 33.7051 91.6011 33.68 91.5237 33.6585L91.2525 33.581C91.0803 33.5315 90.944 33.4608 90.8436 33.369C90.7431 33.2772 90.6929 33.157 90.6929 33.0085C90.6929 32.8851 90.7263 32.7775 90.793 32.6857C90.8604 32.5931 90.9508 32.5214 91.0642 32.4704C91.1782 32.4188 91.3056 32.393 91.4462 32.393C91.5882 32.393 91.7145 32.4184 91.825 32.4694C91.9354 32.5196 92.023 32.5885 92.0875 32.676C92.1528 32.7635 92.1873 32.8629 92.1908 32.9741H91.9326Z" fill="#990537"/>
<path d="M92.5392 32.6598V32.4231H94.1921V32.6598H93.4991V34.6269H93.2322V32.6598H92.5392Z" fill="#990537"/>
<path d="M94.8709 32.4231V34.6269H94.604V32.4231H94.8709ZM94.6212 32.1993L94.8838 31.7H95.1808L94.845 32.1993H94.6212Z" fill="#990537"/>
<path d="M97.1536 32.4231V34.6269H96.8953L95.6944 32.8966H95.6728V34.6269H95.406V32.4231H95.6642L96.8695 34.1578H96.891V32.4231H97.1536Z" fill="#990537"/>
<path d="M99.2199 34.6269H98.5398V32.4231H99.2501C99.4639 32.4231 99.6468 32.4672 99.7989 32.5555C99.951 32.643 100.068 32.7689 100.149 32.9332C100.23 33.0967 100.27 33.2926 100.27 33.5207C100.27 33.7503 100.229 33.9479 100.148 34.1136C100.066 34.2787 99.9467 34.4056 99.7903 34.4946C99.6339 34.5828 99.4438 34.6269 99.2199 34.6269ZM98.8067 34.3902H99.2027C99.3849 34.3902 99.5359 34.3551 99.6558 34.2847C99.7756 34.2144 99.8649 34.1144 99.9237 33.9845C99.9825 33.8547 100.012 33.7001 100.012 33.5207C100.012 33.3428 99.9829 33.1896 99.9248 33.0612C99.8667 32.9321 99.7799 32.8331 99.6644 32.7642C99.5489 32.6946 99.405 32.6598 99.2328 32.6598H98.8067V34.3902Z" fill="#990537"/>
<path d="M100.718 34.6269V32.4231H102.048V32.6598H100.985V33.4045H101.979V33.6412H100.985V34.3902H102.065V34.6269H100.718Z" fill="#990537"/>
<path d="M103.472 34.6269H103.192L104.001 32.4231H104.277L105.086 34.6269H104.806L104.147 32.7717H104.13L103.472 34.6269ZM103.575 33.7661H104.703V34.0028H103.575V33.7661Z" fill="#990537"/>
<path d="M105.429 34.6269V32.4231H106.174C106.346 32.4231 106.487 32.4525 106.598 32.5113C106.708 32.5694 106.79 32.6494 106.843 32.7513C106.896 32.8532 106.923 32.969 106.923 33.0989C106.923 33.2287 106.896 33.3439 106.843 33.4443C106.79 33.5447 106.709 33.6237 106.599 33.6811C106.489 33.7377 106.349 33.7661 106.178 33.7661H105.575V33.525H106.169C106.287 33.525 106.382 33.5078 106.453 33.4734C106.526 33.4389 106.578 33.3901 106.611 33.327C106.644 33.2632 106.66 33.1871 106.66 33.0989C106.66 33.0106 106.644 32.9335 106.611 32.8675C106.578 32.8015 106.525 32.7506 106.452 32.7147C106.38 32.6781 106.284 32.6598 106.165 32.6598H105.696V34.6269H105.429ZM106.466 33.6369L107.009 34.6269H106.699L106.165 33.6369H106.466Z" fill="#990537"/>
<path d="M107.367 34.6269V32.4231H108.697V32.6598H107.634V33.4045H108.629V33.6412H107.634V34.3902H108.715V34.6269H107.367Z" fill="#990537"/>
<path d="M109.979 33.9382H110.272L110.517 34.2611L110.582 34.3472L110.948 34.8336H110.655L110.414 34.5107L110.354 34.4289L109.979 33.9382ZM111.038 33.525C111.038 33.7575 110.996 33.9583 110.912 34.1276C110.828 34.2969 110.713 34.4275 110.567 34.5193C110.42 34.6112 110.253 34.6571 110.065 34.6571C109.877 34.6571 109.71 34.6112 109.564 34.5193C109.417 34.4275 109.302 34.2969 109.218 34.1276C109.134 33.9583 109.092 33.7575 109.092 33.525C109.092 33.2926 109.134 33.0917 109.218 32.9224C109.302 32.7531 109.417 32.6225 109.564 32.5307C109.71 32.4389 109.877 32.393 110.065 32.393C110.253 32.393 110.42 32.4389 110.567 32.5307C110.713 32.6225 110.828 32.7531 110.912 32.9224C110.996 33.0917 111.038 33.2926 111.038 33.525ZM110.78 33.525C110.78 33.3342 110.748 33.1731 110.684 33.0419C110.621 32.9106 110.535 32.8112 110.427 32.7438C110.319 32.6763 110.199 32.6426 110.065 32.6426C109.932 32.6426 109.811 32.6763 109.703 32.7438C109.595 32.8112 109.509 32.9106 109.445 33.0419C109.382 33.1731 109.351 33.3342 109.351 33.525C109.351 33.7158 109.382 33.8769 109.445 34.0082C109.509 34.1395 109.595 34.2388 109.703 34.3063C109.811 34.3737 109.932 34.4074 110.065 34.4074C110.199 34.4074 110.319 34.3737 110.427 34.3063C110.535 34.2388 110.621 34.1395 110.684 34.0082C110.748 33.8769 110.78 33.7158 110.78 33.525Z" fill="#990537"/>
<path d="M112.933 32.4231H113.2V33.8823C113.2 34.0329 113.164 34.1675 113.093 34.2858C113.023 34.4035 112.924 34.4964 112.795 34.5645C112.667 34.632 112.516 34.6657 112.343 34.6657C112.17 34.6657 112.02 34.632 111.891 34.5645C111.763 34.4964 111.663 34.4035 111.592 34.2858C111.522 34.1675 111.487 34.0329 111.487 33.8823V32.4231H111.754V33.8608C111.754 33.9684 111.777 34.0641 111.825 34.1481C111.872 34.2313 111.939 34.2969 112.027 34.345C112.115 34.3924 112.221 34.416 112.343 34.416C112.466 34.416 112.571 34.3924 112.66 34.345C112.748 34.2969 112.815 34.2313 112.862 34.1481C112.909 34.0641 112.933 33.9684 112.933 33.8608V32.4231Z" fill="#990537"/>
<path d="M114 32.4231V34.6269H113.733V32.4231H114Z" fill="#990537"/>
<path d="M114.535 34.6269V32.4231H115.279C115.452 32.4231 115.594 32.4543 115.703 32.5167C115.814 32.5784 115.896 32.662 115.949 32.7674C116.002 32.8729 116.028 32.9906 116.028 33.1204C116.028 33.2503 116.002 33.3683 115.949 33.4744C115.896 33.5806 115.815 33.6653 115.706 33.7284C115.596 33.7908 115.455 33.822 115.284 33.822H114.75V33.5853H115.275C115.393 33.5853 115.489 33.5648 115.56 33.5239C115.632 33.4831 115.684 33.4278 115.716 33.3582C115.749 33.2879 115.766 33.2086 115.766 33.1204C115.766 33.0322 115.749 32.9533 115.716 32.8837C115.684 32.8141 115.632 32.7596 115.559 32.7201C115.487 32.6799 115.391 32.6598 115.271 32.6598H114.802V34.6269H114.535Z" fill="#990537"/>
<path d="M116.324 34.6269H116.044L116.853 32.4231H117.129L117.938 34.6269H117.658L117 32.7717H116.982L116.324 34.6269ZM116.427 33.7661H117.555V34.0028H116.427V33.7661Z" fill="#990537"/>
</svg>
