<svg width="171" height="58" viewBox="0 0 171 58" fill="none" xmlns="http://www.w3.org/2000/svg">
<path fill-rule="evenodd" clip-rule="evenodd" d="M73.7462 6.8289H73.3262C73.0915 6.8015 72.8536 6.82781 72.6305 6.90587C72.4073 6.98392 72.2047 7.11169 72.0376 7.27962C71.8705 7.44755 71.7434 7.65129 71.6657 7.87559C71.5881 8.09988 71.5619 8.33893 71.5892 8.57483V28.2821C71.5892 33.9878 68.1833 37.4111 62.5976 37.4111C57.012 37.4111 53.5152 33.9878 53.5152 28.2821V8.57483C53.5422 8.33999 53.5162 8.10207 53.4392 7.87871C53.3621 7.65535 53.2361 7.45228 53.0703 7.28458C52.9046 7.11687 52.7034 6.98883 52.4816 6.90995C52.2599 6.83106 52.0234 6.80336 51.7896 6.8289H51.3695C51.1348 6.8015 50.897 6.82781 50.6739 6.90587C50.4507 6.98392 50.248 7.11169 50.0809 7.27962C49.9139 7.44755 49.7868 7.65129 49.7091 7.87559C49.6315 8.09988 49.6053 8.33893 49.6325 8.57483V28.2821C49.6325 36.4184 54.4803 41.2682 62.5976 41.2682C70.715 41.2682 75.4719 36.4069 75.4719 28.2821V8.57483C75.4991 8.33893 75.473 8.09988 75.3953 7.87559C75.3177 7.65129 75.1905 7.44755 75.0235 7.27962C74.8564 7.11169 74.6537 6.98392 74.4305 6.90587C74.2074 6.82781 73.9696 6.8015 73.7349 6.8289M108.316 6.8289H107.896C107.661 6.8015 107.423 6.82781 107.2 6.90587C106.977 6.98392 106.774 7.11169 106.607 7.27962C106.44 7.44755 106.313 7.65129 106.236 7.87559C106.158 8.09988 106.132 8.33893 106.159 8.57483V34.8208L86.6205 7.86733C86.4139 7.53499 86.1232 7.26375 85.7781 7.08131C85.433 6.89886 85.046 6.81176 84.6564 6.8289H83.1805C82.9459 6.8015 82.708 6.82781 82.4849 6.90587C82.2617 6.98392 82.059 7.11169 81.892 7.27962C81.7249 7.44755 81.5978 7.65129 81.5201 7.87559C81.4425 8.09988 81.4163 8.33893 81.4435 8.57483V38.7805C81.4163 39.0164 81.4425 39.2554 81.5201 39.4797C81.5978 39.704 81.7249 39.9078 81.892 40.0757C82.059 40.2436 82.2617 40.3714 82.4849 40.4495C82.708 40.5275 82.9459 40.5538 83.1805 40.5264H83.6006C83.8308 40.5447 84.0622 40.5116 84.2782 40.4295C84.4942 40.3474 84.6895 40.2183 84.85 40.0514C85.0106 39.8846 85.1325 39.6841 85.207 39.4644C85.2814 39.2447 85.3067 39.0112 85.2808 38.7805V12.5345L104.831 39.4994C105.037 39.8317 105.328 40.103 105.673 40.2854C106.018 40.4679 106.405 40.555 106.795 40.5378H108.271C108.505 40.5652 108.743 40.5389 108.966 40.4609C109.189 40.3828 109.392 40.255 109.559 40.0871C109.726 39.9192 109.853 39.7154 109.931 39.4911C110.009 39.2669 110.035 39.0278 110.008 38.7919V8.57483C110.033 8.34417 110.008 8.11062 109.934 7.8909C109.859 7.67118 109.737 7.47073 109.577 7.3039C109.416 7.13706 109.221 7.00797 109.005 6.92585C108.789 6.84373 108.558 6.81063 108.327 6.8289H108.316ZM125.686 20.648C121.361 19.2786 119.896 17.9777 119.896 15.4558C119.914 14.7339 120.078 14.023 120.375 13.3658C120.673 12.7085 121.1 12.1184 121.63 11.6306C122.16 11.1427 122.782 10.7672 123.459 10.5265C124.137 10.2858 124.855 10.1848 125.573 10.2295C126.512 10.2395 127.434 10.4886 128.252 10.9536C129.07 11.4185 129.757 12.0841 130.25 12.8883C130.415 13.2723 130.692 13.5969 131.045 13.819C131.398 14.0411 131.81 14.1503 132.225 14.1321H132.963C133.227 14.1526 133.492 14.1082 133.736 14.0028C133.979 13.8975 134.193 13.7343 134.36 13.5273C134.493 13.3165 134.571 13.0752 134.587 12.8258C134.603 12.5765 134.556 12.3271 134.451 12.1009C133.727 10.3448 132.489 8.85118 130.901 7.81799C129.314 6.7848 127.452 6.26079 125.561 6.3154C119.885 6.3154 115.832 10.161 115.832 15.4444C115.832 20.7278 119.692 23.147 125.493 24.9386C130.681 26.559 132.521 28.1566 132.521 31.0551C132.521 34.5697 129.66 37.0232 125.561 37.0232C124.199 37.062 122.854 36.6977 121.696 35.9755C120.538 35.2533 119.616 34.205 119.045 32.9607C118.936 32.5411 118.687 32.1716 118.34 31.9141C117.993 31.6565 117.568 31.5265 117.137 31.5457H116.581C116.318 31.524 116.054 31.5643 115.81 31.6634C115.565 31.7625 115.347 31.9176 115.173 32.1163C115.034 32.3165 114.944 32.5476 114.913 32.79C114.881 33.0324 114.908 33.2789 114.992 33.5085C115.72 35.7251 117.141 37.646 119.044 38.9846C120.946 40.3233 123.228 41.0082 125.55 40.9372C131.907 40.9372 136.528 36.7835 136.528 31.0665C136.528 25.3494 132.248 22.7248 125.697 20.648H125.686Z" fill="#6E6E6E"/>
<path fill-rule="evenodd" clip-rule="evenodd" d="M170.777 38.2132L157.071 8.04648C156.913 7.66444 156.64 7.33971 156.289 7.11649C155.938 6.89327 155.526 6.78241 155.108 6.79899H153.846C153.427 6.78328 153.014 6.89581 152.662 7.12116C152.311 7.34651 152.039 7.67366 151.883 8.05782L138.188 38.2132C138.055 38.4407 137.985 38.6989 137.985 38.9617C137.985 39.2244 138.055 39.4826 138.188 39.7102C138.341 39.9142 138.546 40.0751 138.782 40.1765C139.017 40.278 139.276 40.3167 139.531 40.2886H140.14C140.558 40.3043 140.972 40.1917 141.323 39.9664C141.674 39.741 141.947 39.4139 142.103 39.0297L144.398 33.8696H152.135C152.358 33.8696 152.571 33.7824 152.728 33.6271C152.885 33.4719 152.973 33.2613 152.973 33.0417V30.9323C152.973 30.7128 152.885 30.5022 152.728 30.3469C152.571 30.1917 152.358 30.1045 152.135 30.1045H146.086L154.282 12.2086C154.301 12.1677 154.332 12.1331 154.371 12.1089C154.409 12.0847 154.454 12.0719 154.5 12.0719C154.546 12.0719 154.59 12.0847 154.629 12.1089C154.668 12.1331 154.699 12.1677 154.718 12.2086L162.834 30.1045H156.807C156.585 30.1045 156.372 30.1917 156.215 30.3469C156.058 30.5022 155.969 30.7128 155.969 30.9323V33.0304C155.969 33.25 156.058 33.4605 156.215 33.6158C156.372 33.7711 156.585 33.8583 156.807 33.8583H164.521L166.897 39.0297C167.055 39.4118 167.328 39.7365 167.679 39.9597C168.03 40.1829 168.443 40.2938 168.86 40.2772H169.423C169.684 40.3012 169.947 40.2598 170.188 40.1567C170.428 40.0536 170.639 39.8922 170.8 39.6875C170.931 39.4634 171 39.2091 171 38.9503C171 38.6915 170.931 38.4373 170.8 38.2132" fill="white"/>
<path d="M170.514 43.2104H49.6221V43.696H170.514V43.2104Z" fill="white"/>
<path fill-rule="evenodd" clip-rule="evenodd" d="M23.1679 0C35.8978 0 46.2239 12.9313 46.2239 28.8878C46.2239 44.8443 35.8978 57.7755 23.1679 57.7755C10.438 57.7755 0.100586 44.8443 0.100586 28.8878C0.100586 12.9313 10.4267 0 23.1679 0Z" fill="#1A1A18"/>
<path fill-rule="evenodd" clip-rule="evenodd" d="M23.1621 0.485352C35.6226 0.485352 45.7382 13.1755 45.7382 28.8876C45.7382 44.5997 35.6339 57.2899 23.1621 57.2899C10.6903 57.2899 0.585938 44.4861 0.585938 28.8308C0.585938 13.1755 10.6903 0.485352 23.1621 0.485352Z" fill="#D7B46A"/>
<path fill-rule="evenodd" clip-rule="evenodd" d="M23.1618 1.45654C35.0787 1.45654 44.7669 13.6363 44.7669 28.645C44.7669 43.6538 35.1128 55.8335 23.1618 55.8335C11.2107 55.8335 1.55664 43.6538 1.55664 28.645C1.55664 13.6363 11.2107 1.45654 23.1618 1.45654Z" fill="#1A1A18"/>
<path fill-rule="evenodd" clip-rule="evenodd" d="M23.1683 1.94189C34.8341 1.94189 44.2822 14.0038 44.2822 28.8876C44.2822 43.7715 34.8228 55.8334 23.1683 55.8334C11.5137 55.8334 2.04297 43.7715 2.04297 28.8876C2.04297 14.0038 11.5024 1.94189 23.1683 1.94189Z" fill="#D7B46A"/>
<path fill-rule="evenodd" clip-rule="evenodd" d="M23.1618 7.76807C31.875 7.76807 38.9409 17.2181 38.9409 28.8877C38.9409 40.5573 31.875 50.0073 23.1618 50.0073C14.4487 50.0073 7.38281 40.5458 7.38281 28.8877C7.38281 17.2296 14.4487 7.76807 23.1618 7.76807Z" fill="#1A1A18"/>
<path fill-rule="evenodd" clip-rule="evenodd" d="M23.1627 8.25391C31.609 8.25391 38.4562 17.4915 38.4562 28.888C38.4562 40.2845 31.609 49.5222 23.1627 49.5222C14.7163 49.5222 7.86914 40.2845 7.86914 28.888C7.86914 17.4915 14.7163 8.25391 23.1627 8.25391Z" fill="#860E04"/>
<path fill-rule="evenodd" clip-rule="evenodd" d="M38.3572 28.1597C39.4749 37.1011 33.7971 49.7757 23.2126 49.7757C12.6281 49.7757 6.68203 37.7047 8.06796 28.1597H38.3572Z" fill="#1A1A18"/>
<mask id="mask0_574_1103" style="mask-type:alpha" maskUnits="userSpaceOnUse" x="7" y="28" width="32" height="22">
<path fill-rule="evenodd" clip-rule="evenodd" d="M38.3572 28.1597C39.4749 37.1011 33.7971 49.7757 23.2126 49.7757C12.6281 49.7757 6.68203 37.7047 8.06796 28.1597H38.3572Z" fill="#1A1A18"/>
</mask>
<g mask="url(#mask0_574_1103)">
<path d="M-3.83496 50.1112L-3.75672 49.9771L-2.02431 46.9146L-0.314254 43.8075L1.3958 40.6556C1.95465 39.6199 2.52467 38.5842 3.10586 37.5484C3.67588 36.509 4.22355 35.4807 4.81592 34.4413C5.40829 33.4018 5.9336 32.3736 6.52598 31.3453L8.23603 28.2381L8.30309 28.104" stroke="#A37400" stroke-width="0.57" stroke-miterlimit="22.93"/>
<path d="M0.467773 50.1114L0.534834 49.9773L1.95429 46.9148L3.38493 43.8077L4.81557 40.7005C5.27382 39.6611 5.7656 38.6328 6.2462 37.5934C6.72681 36.5539 7.19624 35.5256 7.67684 34.4862C8.15744 33.4468 8.62687 32.4185 9.10748 31.3902C9.58808 30.3619 10.0575 29.3225 10.5381 28.283L10.594 28.1489" stroke="#A37400" stroke-width="0.57" stroke-miterlimit="22.93"/>
<path d="M4.7373 50.1112V49.9771C5.12849 48.9488 5.49733 47.9094 5.85499 46.8699L6.97267 43.7628L8.09036 40.6556C8.45919 39.6162 8.85038 38.5879 9.20804 37.5484C9.5657 36.509 9.96807 35.4807 10.3257 34.4413C10.6834 33.4018 11.0858 32.3736 11.4434 31.3453L12.5611 28.2381V28.104" stroke="#A37400" stroke-width="0.57" stroke-miterlimit="22.93"/>
<path d="M8.99609 50.1113V49.9771L9.91259 46.9147L10.7844 43.8075L11.6562 40.7004C11.9393 39.6646 12.2299 38.6289 12.528 37.5932C12.8186 36.5538 13.098 35.5255 13.3998 34.486C13.7015 33.4466 13.9698 32.4183 14.2716 31.3901L15.1657 28.2494C15.1684 28.2047 15.1684 28.1599 15.1657 28.1152" stroke="#A37400" stroke-width="0.57" stroke-miterlimit="22.93"/>
<path d="M13.2766 50.1112C13.2737 50.0666 13.2737 50.0218 13.2766 49.9771C13.4777 48.9414 13.6715 47.9056 13.8578 46.8699C14.0589 45.8417 14.2489 44.8022 14.4501 43.7628C14.6513 42.7233 14.8413 41.6951 15.0313 40.6556C15.2213 39.6162 15.4225 38.5879 15.6125 37.5484C15.8025 36.509 16.0037 35.4807 16.2049 34.4413C16.4061 33.4018 16.5961 32.3736 16.7973 31.3453C16.9984 30.317 17.1885 29.2776 17.3785 28.2381V28.104" stroke="#A37400" stroke-width="0.57" stroke-miterlimit="22.93"/>
<path d="M17.5459 50.1114C17.5459 50.1114 17.5459 50.022 17.5459 49.9773L17.87 46.9148C17.9706 45.8866 18.0712 44.8471 18.1718 43.8077C18.2724 42.7682 18.373 41.74 18.4848 40.7005C18.5965 39.6611 18.6859 38.6328 18.7865 37.5934C18.8871 36.5539 18.9877 35.5256 19.0995 34.4862C19.2112 33.4468 19.3007 32.4185 19.4124 31.3902C19.5242 30.3619 19.6136 29.3225 19.7142 28.283C19.7172 28.2384 19.7172 28.1936 19.7142 28.1489" stroke="#A37400" stroke-width="0.57" stroke-miterlimit="22.93"/>
<path d="M21.8721 50.1112V49.9771C21.8721 48.9488 21.8721 47.9094 21.8721 46.8699C21.8721 45.8305 21.8721 44.8022 21.8721 43.7628C21.8721 42.7233 21.8721 41.6951 21.8721 40.6556C21.8721 39.6162 21.8721 38.5879 21.8721 37.5484C21.8721 36.509 21.8721 35.4807 21.8721 34.4413C21.8721 33.4018 21.8721 32.3736 21.8721 31.3453C21.8721 30.317 21.8721 29.2776 21.8721 28.2381C21.8752 28.1935 21.8752 28.1487 21.8721 28.104" stroke="#A37400" stroke-width="0.57" stroke-miterlimit="22.93"/>
<path d="M26.0857 50.1114C26.0857 50.1114 26.0857 50.022 26.0857 49.9773L25.8175 46.9148C25.7392 45.8866 25.6386 44.8471 25.5604 43.8077L25.3145 40.7005C25.2251 39.6611 25.1357 38.6328 25.0463 37.5934C24.9569 36.5539 24.8786 35.5256 24.8004 34.4862C24.7221 33.4468 24.6327 32.4185 24.5545 31.3902L24.3086 28.283C24.3116 28.2384 24.3116 28.1936 24.3086 28.1489" stroke="#A37400" stroke-width="0.57" stroke-miterlimit="22.93"/>
<path d="M30.3546 50.1112C30.3546 50.1112 30.3546 50.0218 30.3546 49.9771C30.1832 48.9414 30.0044 47.9056 29.8181 46.8699C29.6393 45.8417 29.4604 44.8022 29.2816 43.7628C29.1028 42.7233 28.924 41.6951 28.7451 40.6556C28.5663 39.6162 28.3875 38.5879 28.2086 37.5484C28.0298 36.509 27.851 35.4807 27.6722 34.4413C27.4933 33.4018 27.3145 32.3736 27.1468 31.3453C26.9792 30.317 26.7892 29.2776 26.6104 28.2381C26.613 28.1935 26.613 28.1487 26.6104 28.104" stroke="#A37400" stroke-width="0.57" stroke-miterlimit="22.93"/>
<path d="M34.6248 50.1113C34.6275 50.0666 34.6275 50.0218 34.6248 49.9771L33.7753 46.9147C33.4996 45.879 33.2277 44.8432 32.9594 43.8075C32.6912 42.7718 32.4192 41.7361 32.1435 40.7004L31.3164 37.5932C31.0482 36.5538 30.7799 35.5255 30.5005 34.486C30.2211 33.4466 29.964 32.3848 29.6958 31.3565C29.4275 30.3282 29.1481 29.2888 28.8799 28.2494C28.8824 28.2047 28.8824 28.1599 28.8799 28.1152" stroke="#A37400" stroke-width="0.57" stroke-miterlimit="22.93"/>
<path d="M38.8943 50.1112C38.8943 50.1112 38.8943 50.0218 38.8943 49.9771C38.5367 48.9488 38.1678 47.9094 37.7766 46.8699C37.3854 45.8305 37.0501 44.8022 36.659 43.7628C36.2678 42.7233 35.9325 41.6951 35.5413 40.6556L34.4236 37.5484C34.0659 36.5127 33.6934 35.477 33.3059 34.4413C32.9371 33.413 32.5794 32.3736 32.1882 31.3453L31.0705 28.2381C31.0544 28.1924 31.0358 28.1476 31.0146 28.104" stroke="#A37400" stroke-width="0.57" stroke-miterlimit="22.93"/>
<path d="M43.1082 50.1113V49.966L41.7223 46.9147L40.3363 43.8075L38.9728 40.6557C38.5033 39.6162 38.0563 38.5879 37.5868 37.5485C37.1174 36.509 36.6703 35.4808 36.2121 34.4413C35.7538 33.4019 35.2844 32.3848 34.8485 31.3565L33.4626 28.2494L33.3955 28.1152" stroke="#A37400" stroke-width="0.57" stroke-miterlimit="22.93"/>
<path d="M47.4334 50.1112C47.4334 50.1112 47.3775 50.0218 47.3551 49.9771L45.701 46.9146L44.0356 43.8075L42.3926 40.6556L40.7273 37.5484C40.1796 36.509 39.6096 35.4807 39.0731 34.4413L37.4301 31.3453C36.8713 30.317 36.3124 29.2776 35.7648 28.2381L35.6865 28.104" stroke="#A37400" stroke-width="0.57" stroke-miterlimit="22.93"/>
<path d="M51.7026 50.1113L51.6132 49.9771L49.6796 46.9147L47.7348 43.8075L45.8012 40.6557L43.8565 37.5485C43.2194 36.509 42.5711 35.4808 41.9229 34.4413L39.9893 31.3453L38.0445 28.2494L37.9551 28.1152" stroke="#A37400" stroke-width="0.57" stroke-miterlimit="22.93"/>
<path d="M-8.12695 49.9658H56.017" stroke="#A37400" stroke-width="0.57" stroke-miterlimit="22.93"/>
<path d="M-6.07031 46.9146H53.7929" stroke="#A37400" stroke-width="0.57" stroke-miterlimit="22.93"/>
<path d="M-4.12598 43.7627H51.5571" stroke="#A37400" stroke-width="0.57" stroke-miterlimit="22.93"/>
<path d="M-2.125 40.6558H49.2885" stroke="#A37400" stroke-width="0.57" stroke-miterlimit="22.93"/>
<path d="M-0.124023 37.5596H47.0981" stroke="#A37400" stroke-width="0.57" stroke-miterlimit="22.93"/>
<path d="M1.87598 34.4526H44.8733" stroke="#A37400" stroke-width="0.57" stroke-miterlimit="22.93"/>
<path d="M3.87695 31.3564H42.6494" stroke="#A37400" stroke-width="0.57" stroke-miterlimit="22.93"/>
<path d="M5.87793 28.2495H40.4256" stroke="#A37400" stroke-width="0.57" stroke-miterlimit="22.93"/>
</g>
<path d="M10.4823 32.841V33.366C17.5656 33.4207 24.9662 33.8472 31.2109 33.5519C32.0835 32.0644 33.1489 30.5331 34.0215 29.0347L34.3502 31.091L31.2335 35.5863L11.3776 35.2691V34.5472C11.0716 35.0394 10.6183 35.5426 10.3123 36.0348C10.3123 36.0348 10.1649 36.3957 10.7543 36.4285C11.3436 36.4613 31.1542 36.8988 31.1542 36.8988C31.1542 36.8988 31.6189 36.8113 31.7549 36.5598C31.8909 36.3082 34.8148 31.7472 34.8148 31.7472L35.0075 31.441C35.0755 30.8175 35.1548 28.444 34.6335 28.1597L16.0582 28.3456C16.0582 28.3456 11.3436 32.1519 10.4823 32.841Z" stroke="#3A3A39" stroke-width="0.23" stroke-linecap="round" stroke-linejoin="round"/>
<path fill-rule="evenodd" clip-rule="evenodd" d="M10.4823 32.8468V33.3725C17.5656 33.4273 24.9662 33.8544 31.2109 33.5587C32.0835 32.0693 33.1489 30.5361 34.0215 29.0358L34.3502 31.0837L31.2335 35.5847L11.3776 35.2671V34.5443C11.0716 35.0371 10.6183 35.5409 10.3123 36.0337C10.3123 36.0337 10.1649 36.3951 10.7543 36.4279C11.3436 36.4608 31.1542 36.8988 31.1542 36.8988C31.1542 36.8988 31.6189 36.8112 31.7549 36.5593C31.8909 36.3075 34.8148 31.7517 34.8148 31.7517L35.0075 31.4451C35.0755 30.8208 35.1548 28.4444 34.6335 28.1597L16.0582 28.3458C16.0582 28.3458 11.3549 32.1569 10.4823 32.8468Z" fill="#0075BE"/>
<path fill-rule="evenodd" clip-rule="evenodd" d="M11.2676 33.677V35.5962L30.9907 35.9275L34.0865 31.2323L33.7938 29.2903V29.1304L33.6925 29.3246L31.0132 33.8941C25.0467 34.2025 17.9883 33.7913 11.3126 33.7227" fill="#FFF7B2"/>
<path d="M11.2676 33.677V35.5962L30.9907 35.9275L34.0865 31.2323L33.7938 29.2903V29.1304L33.6925 29.3246L31.0132 33.8941C24.9904 34.1568 17.9433 33.7456 11.2676 33.677Z" stroke="#6E6E6E" stroke-width="0.28" stroke-linecap="round" stroke-linejoin="round"/>
<path d="M17.5787 29.9491L14.1157 29.6162L12.7236 30.7813V31.0554C12.7236 31.0554 12.7236 31.0554 12.8594 31.0554C13.024 31.0059 13.1831 30.9437 13.3348 30.8694C13.651 30.8447 13.9692 30.8447 14.2854 30.8694L14.9644 30.9379C15.1227 31.026 15.3082 31.0704 15.4964 31.0652C15.8246 31.0652 16.2207 31.0652 16.4244 31.0652C16.5939 31.0752 16.7641 31.0752 16.9336 31.0652L17.0581 30.9477L17.5787 29.9491Z" stroke="#C0932E" stroke-width="0.22" stroke-linecap="round" stroke-linejoin="round"/>
<path fill-rule="evenodd" clip-rule="evenodd" d="M17.5787 29.9491L14.1157 29.6162L12.7236 30.7813V31.0554C12.7236 31.0554 12.7236 31.0554 12.8594 31.0554C13.024 31.006 13.1831 30.9437 13.3348 30.8694C13.651 30.8448 13.9692 30.8448 14.2854 30.8694L14.9644 30.9379C15.1227 31.026 15.3082 31.0704 15.4964 31.0652C15.8246 31.0652 16.2207 31.0652 16.4244 31.0652C16.5939 31.0752 16.7641 31.0752 16.9336 31.0652L17.0581 30.9477L17.5787 29.9491Z" fill="#FFF7B2"/>
<path fill-rule="evenodd" clip-rule="evenodd" d="M19.0131 28.1693L16.6084 30.433V31.0329L26.102 31.5082V32.6401L16.6084 32.3345V33.206L25.8855 33.5003C26.2132 33.4383 26.5148 33.2807 26.7517 33.0475C26.7517 32.923 28.7461 30.4783 28.7461 30.4783L28.4156 28.2146C25.2245 28.3278 22.2271 28.1128 19.0131 28.1693Z" fill="#9C0A0F"/>
<path d="M19.0131 28.1693L16.6084 30.433V31.0329L26.102 31.5082V32.6401L16.6084 32.3345V33.206L25.8855 33.5003C26.2132 33.4383 26.5148 33.2807 26.7517 33.0475C26.7517 32.923 28.7461 30.4783 28.7461 30.4783L28.4156 28.2146C25.2245 28.3278 22.2271 28.1128 19.0131 28.1693Z" stroke="#3A3A39" stroke-width="0.23" stroke-linecap="round" stroke-linejoin="round"/>
<path fill-rule="evenodd" clip-rule="evenodd" d="M16.6084 31.0728V32.2599L25.8331 32.5293V31.5317L16.6084 31.0728Z" fill="#FFF7B2"/>
<path d="M16.6084 31.0728V32.2599L25.8331 32.5293V31.5317L16.6084 31.0728Z" stroke="#3A3A39" stroke-width="0.23" stroke-linecap="round" stroke-linejoin="round"/>
<path d="M25.833 31.5582L28.2606 28.1597" stroke="#3A3A39" stroke-width="0.23" stroke-linecap="round" stroke-linejoin="round"/>
<path d="M24.1932 17.9639C24.1728 17.9959 24.1638 18.0349 24.1679 18.0736C24.172 18.1123 24.1889 18.1481 24.2156 18.1743C24.2422 18.2005 24.2767 18.2154 24.3127 18.2161C24.3487 18.2169 24.3837 18.2035 24.4112 18.1784V18.1784C24.4116 18.2093 24.4201 18.2394 24.4359 18.2652C24.4516 18.291 24.4739 18.3113 24.5 18.3238C24.5261 18.3362 24.555 18.3402 24.5832 18.3354C24.6114 18.3305 24.6377 18.317 24.659 18.2964V18.2964C24.6612 18.324 24.6724 18.3499 24.6905 18.3696C24.7086 18.3892 24.7325 18.4013 24.7581 18.4037V18.4037C24.7581 18.4321 24.7685 18.4594 24.7871 18.4795C24.8057 18.4996 24.8309 18.5109 24.8572 18.5109V18.5109C24.8534 18.5286 24.8534 18.5469 24.8572 18.5646C24.857 18.5941 24.8672 18.6226 24.8855 18.6444C24.9038 18.6663 24.9291 18.6799 24.9563 18.6826C24.9419 18.6982 24.9324 18.7182 24.929 18.7399C24.9255 18.7616 24.9283 18.7839 24.937 18.8038C24.9456 18.8237 24.9597 18.8402 24.9773 18.8512C24.995 18.8621 25.0153 18.8669 25.0355 18.8649C25.0157 18.872 24.9984 18.8856 24.9862 18.9039C24.974 18.9222 24.9674 18.9442 24.9674 18.9668C24.9674 18.9894 24.974 19.0114 24.9862 19.0297C24.9984 19.048 25.0157 19.0617 25.0355 19.0687C25.0129 19.0829 24.9941 19.1032 24.981 19.1277C24.9679 19.1521 24.961 19.1799 24.961 19.2082C24.961 19.2365 24.9679 19.2643 24.981 19.2887C24.9941 19.3132 25.0129 19.3335 25.0355 19.3476C25.0151 19.3623 24.9983 19.3822 24.9867 19.4056C24.9751 19.429 24.9691 19.4552 24.9691 19.4817C24.9691 19.5083 24.9751 19.5344 24.9867 19.5578C24.9983 19.5812 25.0151 19.6011 25.0355 19.6158C25.0068 19.6268 24.9818 19.6471 24.9641 19.674C24.9464 19.7009 24.9367 19.733 24.9364 19.766C24.9251 19.8007 24.9251 19.8386 24.9364 19.8733V19.8733C24.897 19.8733 24.8592 19.8902 24.8313 19.9204C24.8034 19.9506 24.7878 19.9915 24.7878 20.0342C24.785 20.0519 24.785 20.0701 24.7878 20.0878C24.7553 20.0949 24.726 20.1136 24.7045 20.1408C24.683 20.168 24.6704 20.2022 24.6689 20.238C24.6649 20.2592 24.6649 20.2811 24.6689 20.3023V20.3023C24.6294 20.3023 24.5916 20.3193 24.5638 20.3495C24.5359 20.3796 24.5202 20.4206 24.5202 20.4632V20.4632C24.4885 20.4643 24.4579 20.4763 24.4329 20.4976C24.408 20.5188 24.3899 20.5481 24.3815 20.5812V20.5812C24.3726 20.6039 24.359 20.6241 24.3418 20.6402C24.3246 20.6563 24.3042 20.6679 24.2822 20.6741C24.2601 20.6803 24.2371 20.681 24.2148 20.6761C24.1925 20.6711 24.1716 20.6607 24.1536 20.6456C24.1501 20.6937 24.1617 20.7416 24.1864 20.7816C24.2112 20.8217 24.2477 20.8516 24.29 20.8665C24.3324 20.8813 24.3781 20.8803 24.4199 20.8636C24.4616 20.8469 24.497 20.8154 24.5202 20.7743C24.5596 20.7743 24.5975 20.7574 24.6253 20.7272C24.6532 20.697 24.6689 20.6561 24.6689 20.6134V20.6134C24.6938 20.6139 24.7184 20.6076 24.7404 20.595C24.7625 20.5825 24.7813 20.5642 24.7951 20.5418C24.8089 20.5194 24.8173 20.4936 24.8194 20.4667C24.8216 20.4399 24.8176 20.4129 24.8076 20.3882V20.3882C24.8122 20.4093 24.8205 20.4292 24.8322 20.4469C24.8439 20.4645 24.8586 20.4795 24.8757 20.4909C24.8927 20.5024 24.9116 20.5101 24.9314 20.5136C24.9512 20.5172 24.9714 20.5164 24.9909 20.5115C25.0105 20.5066 25.0289 20.4975 25.0452 20.4849C25.0615 20.4723 25.0753 20.4563 25.0859 20.4378C25.0965 20.4194 25.1036 20.3989 25.1069 20.3775C25.1101 20.3561 25.1095 20.3342 25.1049 20.3131C25.1079 20.2953 25.1079 20.2772 25.1049 20.2594C25.1301 20.2524 25.1532 20.2383 25.1718 20.2186C25.1905 20.1988 25.204 20.1742 25.211 20.147C25.218 20.1198 25.2183 20.0911 25.2119 20.0638C25.2054 20.0365 25.1925 20.0115 25.1743 19.9913V19.9913C25.2055 19.9913 25.2359 19.9806 25.2612 19.9609C25.2865 19.9411 25.3054 19.9133 25.3153 19.8812C25.3252 19.8492 25.3255 19.8146 25.3162 19.7824C25.3068 19.7501 25.2884 19.7219 25.2635 19.7016C25.2886 19.6885 25.3098 19.6679 25.3246 19.6423C25.3394 19.6167 25.3473 19.587 25.3473 19.5568C25.3473 19.5266 25.3394 19.497 25.3246 19.4714C25.3098 19.4458 25.2886 19.4252 25.2635 19.412C25.2886 19.3988 25.3098 19.3783 25.3246 19.3526C25.3394 19.327 25.3473 19.2974 25.3473 19.2672C25.3473 19.237 25.3394 19.2074 25.3246 19.1817C25.3098 19.1561 25.2886 19.1356 25.2635 19.1224V19.1224C25.2766 19.1081 25.2858 19.09 25.2899 19.0703C25.294 19.0506 25.2929 19.03 25.2867 19.011C25.2805 18.9919 25.2694 18.9751 25.2548 18.9626C25.2402 18.95 25.2226 18.9422 25.204 18.94V18.94C25.2269 18.9298 25.2454 18.9106 25.2559 18.8862C25.2664 18.8619 25.268 18.8342 25.2606 18.8086C25.2531 18.783 25.2371 18.7614 25.2156 18.748C25.1941 18.7346 25.1687 18.7304 25.1445 18.7362C25.1588 18.7206 25.1684 18.7006 25.1718 18.6789C25.1753 18.6572 25.1725 18.6349 25.1638 18.615C25.1552 18.5951 25.1411 18.5786 25.1234 18.5676C25.1058 18.5567 25.0855 18.5519 25.0653 18.5539H25.0058C25.0234 18.5399 25.0362 18.52 25.0423 18.4974C25.0484 18.4747 25.0474 18.4505 25.0395 18.4285C25.0316 18.4065 25.0172 18.388 24.9986 18.3757C24.9799 18.3635 24.9581 18.3582 24.9364 18.3608H24.8671M24.1139 18.5431C24.1139 18.5431 24.2428 18.7791 24.1833 18.9293C24.1443 19.0123 24.1111 19.0983 24.0842 19.1867C24.0842 19.2833 24.0049 19.2726 24.0247 19.3906C24.0168 19.5263 24.0168 19.6624 24.0247 19.7982C24.0247 19.9913 24.1337 19.9805 24.1536 20.2165C24.1838 20.3468 24.1838 20.4831 24.1536 20.6134C24.2147 20.6122 24.2748 20.596 24.3294 20.5662C24.384 20.5363 24.4316 20.4934 24.4688 20.4409C24.5059 20.3883 24.5316 20.3273 24.544 20.2624C24.5563 20.1976 24.555 20.1306 24.54 20.0664C24.4211 19.6051 24.322 19.5193 24.3319 19.4442C24.3418 19.3691 24.3914 19.3369 24.4608 19.1975C24.5301 19.058 24.5995 18.822 24.5301 18.7362C24.4608 18.6504 24.5301 18.5646 24.5301 18.4466C24.4103 18.3458 24.2653 18.2861 24.1139 18.2749C24.0148 18.1999 24.1139 18.5431 24.1139 18.5431ZM23.8563 18.5431C23.8563 18.5431 23.7274 18.7791 23.7869 18.9293C23.8226 19.0125 23.8525 19.0986 23.8761 19.1867C23.8761 19.2833 23.9554 19.2726 23.9356 19.3906C23.9433 19.5263 23.9433 19.6624 23.9356 19.7982C23.9356 19.9913 23.8265 19.9698 23.7968 20.2165C23.7662 20.3468 23.7662 20.4832 23.7968 20.6134C23.7354 20.611 23.6753 20.5936 23.6211 20.5624C23.5668 20.5312 23.5198 20.4871 23.4835 20.4334C23.4473 20.3797 23.4228 20.3178 23.4118 20.2524C23.4008 20.1869 23.4037 20.1197 23.4202 20.0556C23.5392 19.5944 23.6482 19.5085 23.6383 19.4335C23.6283 19.3584 23.5788 19.3262 23.5094 19.1867C23.4401 19.0473 23.3806 18.8006 23.45 18.7255C23.5193 18.6504 23.45 18.5538 23.4995 18.4359C23.6061 18.3349 23.7365 18.2681 23.8761 18.2428C23.9752 18.1999 23.8662 18.5431 23.8662 18.5431H23.8563Z" stroke="#A37400" stroke-width="0.14" stroke-linecap="round" stroke-linejoin="round"/>
<path d="M23.7869 18.9187C23.7274 18.7702 23.8563 18.5368 23.8563 18.5368L23.8662 18.4944C23.8662 18.4944 23.9752 18.1655 23.8761 18.2397C23.7365 18.2647 23.6061 18.3309 23.4995 18.4307C23.45 18.5474 23.5193 18.6429 23.45 18.7172C23.3806 18.7914 23.4401 19.0355 23.5094 19.1734C23.5788 19.3113 23.6283 19.3431 23.6383 19.4174C23.6482 19.4917 23.5392 19.5765 23.4202 20.0328C23.4037 20.0961 23.4008 20.1627 23.4118 20.2274C23.4228 20.2921 23.4473 20.3533 23.4835 20.4064C23.5198 20.4595 23.5668 20.5031 23.6211 20.534C23.6753 20.5648 23.7354 20.5821 23.7968 20.5845C23.7662 20.4557 23.7662 20.3207 23.7968 20.1919C23.8265 19.9479 23.9356 19.9691 23.9356 19.7781C23.9433 19.6439 23.9433 19.5092 23.9356 19.375C23.9554 19.2583 23.8761 19.2689 23.8761 19.1734C23.8525 19.0862 23.8226 19.0011 23.7869 18.9187Z" fill="#FFF381"/>
<path fill-rule="evenodd" clip-rule="evenodd" d="M26.5856 33.0271C26.5115 33.0392 26.4417 33.0674 26.3825 33.1094C26.3232 33.1514 26.2763 33.2058 26.2457 33.268L25.833 33.9248C25.833 33.9905 25.833 37.0777 25.833 37.0777C25.8557 37.1602 25.9065 37.2343 25.9784 37.2893C26.0503 37.3443 26.1396 37.3775 26.2336 37.3842C26.5735 37.3842 27.8966 37.3842 27.8966 37.3842C27.9368 37.3583 27.9691 37.3236 27.9903 37.2834C28.0115 37.2432 28.0211 37.1988 28.018 37.1543C28.018 37.012 27.9452 33.8701 27.9452 33.8701L28.2487 33.2242C28.2596 33.1992 28.2631 33.1721 28.2587 33.1456C28.2544 33.1191 28.2424 33.094 28.224 33.0729C28.2056 33.0519 28.1813 33.0356 28.1537 33.0256C28.1261 33.0156 28.096 33.0124 28.0666 33.0162L26.5856 33.0271Z" fill="#1A1A18"/>
<path fill-rule="evenodd" clip-rule="evenodd" d="M26.587 33.0157C26.5127 33.0278 26.4428 33.0561 26.3835 33.0982C26.3241 33.1403 26.2771 33.1949 26.2465 33.2571L25.833 33.9157C25.833 33.9816 25.833 37.0769 25.833 37.0769C25.8557 37.1597 25.9067 37.2339 25.9787 37.289C26.0507 37.3442 26.1402 37.3775 26.2343 37.3842C26.5748 37.3842 27.9004 37.3842 27.9004 37.3842C27.9407 37.3583 27.973 37.3235 27.9942 37.2832C28.0155 37.2428 28.0251 37.1983 28.022 37.1537C28.022 37.011 27.9491 33.8608 27.9491 33.8608L28.2531 33.2132C28.2614 33.1888 28.2628 33.163 28.2572 33.1379C28.2516 33.1129 28.2392 33.0895 28.2211 33.0699C28.203 33.0503 28.1798 33.0351 28.1535 33.0256C28.1272 33.0162 28.0988 33.0127 28.0707 33.0157H26.587Z" fill="#D7B46A"/>
<path fill-rule="evenodd" clip-rule="evenodd" d="M26.9231 33.9872H27.1698C27.2016 33.9927 27.231 34.0147 27.2528 34.0494C27.2747 34.084 27.2875 34.129 27.2892 34.1764V36.7428C27.2894 36.7652 27.2863 36.7873 27.2801 36.8077C27.274 36.8281 27.2649 36.8462 27.2535 36.8608C27.2422 36.8755 27.2288 36.8863 27.2143 36.8924C27.1999 36.8986 27.1847 36.9 27.1698 36.8966H26.9231C26.8914 36.8911 26.862 36.869 26.8401 36.8344C26.8183 36.7998 26.8054 36.7548 26.8037 36.7073V34.1409C26.8035 34.1186 26.8066 34.0965 26.8128 34.0761C26.819 34.0557 26.828 34.0375 26.8394 34.0229C26.8508 34.0083 26.8642 33.9975 26.8786 33.9913C26.8931 33.9852 26.9082 33.9837 26.9231 33.9872Z" fill="#1A1A18"/>
<path fill-rule="evenodd" clip-rule="evenodd" d="M26.9231 33.9872H27.1698C27.2016 33.9927 27.231 34.0147 27.2528 34.0494C27.2747 34.084 27.2875 34.129 27.2892 34.1764V36.7428C27.2894 36.7652 27.2863 36.7873 27.2801 36.8077C27.274 36.8281 27.2649 36.8462 27.2535 36.8608C27.2422 36.8755 27.2288 36.8863 27.2143 36.8924C27.1999 36.8986 27.1847 36.9 27.1698 36.8966H26.9231C26.8914 36.8911 26.862 36.869 26.8401 36.8344C26.8183 36.7998 26.8054 36.7548 26.8037 36.7073V34.1409C26.8035 34.1186 26.8066 34.0965 26.8128 34.0761C26.819 34.0557 26.8281 34.0375 26.8394 34.0229C26.8508 34.0083 26.8642 33.9975 26.8786 33.9913C26.8931 33.9852 26.9082 33.9837 26.9231 33.9872Z" fill="#9C0A0F"/>
<path fill-rule="evenodd" clip-rule="evenodd" d="M13.4763 33.0271C13.4021 33.0392 13.3323 33.0674 13.2731 33.1094C13.2138 33.1514 13.1669 33.2058 13.1364 33.268L12.7236 33.9248C12.7236 33.9905 12.7236 37.0777 12.7236 37.0777C12.7463 37.1602 12.7972 37.2343 12.8691 37.2893C12.9409 37.3443 13.0302 37.3775 13.1242 37.3842C13.4641 37.3842 14.7873 37.3842 14.7873 37.3842C14.8275 37.3583 14.8597 37.3236 14.8809 37.2834C14.9021 37.2432 14.9117 37.1988 14.9087 37.1543C14.9087 37.0011 14.8358 33.8701 14.8358 33.8701L15.1393 33.2242C15.1502 33.1992 15.1537 33.1721 15.1494 33.1456C15.145 33.1191 15.1331 33.094 15.1146 33.0729C15.0962 33.0519 15.0719 33.0356 15.0443 33.0256C15.0167 33.0156 14.9867 33.0124 14.9572 33.0162L13.4763 33.0271Z" fill="#1A1A18"/>
<path fill-rule="evenodd" clip-rule="evenodd" d="M13.4763 32.5432C13.4021 32.5566 13.3323 32.588 13.2731 32.6346C13.2138 32.6813 13.1669 32.7417 13.1364 32.8108L12.7236 33.5406C12.7236 33.6136 12.7236 37.0438 12.7236 37.0438C12.7463 37.1355 12.7972 37.2178 12.8691 37.2789C12.9409 37.34 13.0302 37.3769 13.1242 37.3844C13.4641 37.3844 14.7873 37.3844 14.7873 37.3844C14.8275 37.3556 14.8597 37.3171 14.8809 37.2724C14.9021 37.2277 14.9117 37.1783 14.9087 37.1289C14.9087 36.9587 14.8358 33.4798 14.8358 33.4798L15.1393 32.7621C15.1502 32.7344 15.1537 32.7043 15.1494 32.6748C15.145 32.6453 15.1331 32.6175 15.1146 32.5941C15.0962 32.5707 15.0719 32.5525 15.0443 32.5415C15.0167 32.5304 14.9867 32.5268 14.9572 32.531L13.4763 32.5432Z" fill="#D7B46A"/>
<path fill-rule="evenodd" clip-rule="evenodd" d="M13.4478 33.9857H13.9412C14.0046 33.9857 14.0653 34.0013 14.1101 34.029C14.1548 34.0568 14.18 34.0944 14.18 34.1337V36.2744C14.1801 36.2934 14.1738 36.3122 14.1617 36.3297C14.1495 36.3471 14.1316 36.3628 14.1092 36.3758C14.0868 36.3887 14.0603 36.3987 14.0314 36.405C14.0025 36.4113 13.9718 36.4139 13.9412 36.4125H13.4478C13.3844 36.4125 13.3237 36.397 13.2789 36.3692C13.2341 36.3414 13.209 36.3038 13.209 36.2646V34.1238C13.2089 34.1048 13.2152 34.086 13.2273 34.0686C13.2395 34.0511 13.2574 34.0355 13.2798 34.0225C13.3022 34.0095 13.3287 33.9996 13.3576 33.9932C13.3865 33.9869 13.4172 33.9843 13.4478 33.9857Z" fill="#1A1A18"/>
<path fill-rule="evenodd" clip-rule="evenodd" d="M13.4478 33.9857H13.9412C14.0046 33.9857 14.0653 34.0013 14.1101 34.029C14.1548 34.0568 14.18 34.0944 14.18 34.1337V36.2744C14.1801 36.2934 14.1738 36.3122 14.1617 36.3297C14.1495 36.3471 14.1316 36.3628 14.1092 36.3757C14.0868 36.3887 14.0603 36.3987 14.0314 36.405C14.0025 36.4113 13.9718 36.4139 13.9412 36.4125H13.4478C13.3844 36.4125 13.3237 36.397 13.2789 36.3692C13.2341 36.3414 13.209 36.3038 13.209 36.2646V34.1238C13.2089 34.1048 13.2152 34.086 13.2273 34.0686C13.2395 34.0511 13.2574 34.0355 13.2798 34.0225C13.3022 34.0095 13.3287 33.9996 13.3576 33.9932C13.3865 33.9869 13.4172 33.9843 13.4478 33.9857Z" fill="#9C0A0F"/>
<path fill-rule="evenodd" clip-rule="evenodd" d="M19.6109 23.2426C20.069 23.1541 20.4154 23.2426 20.8735 22.4903C21.0454 22.2996 21.2023 22.0962 21.3428 21.8818C21.4546 21.7601 21.6222 21.9703 21.9574 22.4018C22.1585 22.5788 22.6167 23.8289 22.5608 22.8111C22.8737 23.1098 23.3206 23.3311 23.9687 23.9174L25.9465 23.6851C26.4605 23.3975 26.9522 23.4085 27.4438 22.5788C27.5623 22.3805 27.6561 22.1688 27.7232 21.9482C28.0249 21.8486 28.3489 22.1473 28.5612 22.7779C28.76 23.2251 28.9838 23.6609 29.2317 24.0834C28.9523 24.6033 28.6171 25.1122 28.3377 25.6322L24.7509 25.422L21.7563 25.7317L19.5215 24.1276C19.5215 23.8178 19.6109 23.5191 19.6667 23.2094" fill="#1A1A18"/>
<path fill-rule="evenodd" clip-rule="evenodd" d="M23.4634 23.8017L23.5864 23.8581H23.7319H23.9668H24.0898H24.2241H24.3471H24.6044H24.6716H25.477H25.6001H25.6896H25.7679H25.8238C26.0943 23.5596 26.2967 23.2049 26.4167 22.8188H26.5062C26.6516 22.9883 26.6069 23.4628 26.7299 23.7452C26.853 24.0276 27.1438 24.1406 27.2893 24.4117C25.354 28.1396 19.7605 24.9652 17.5791 24.8071L17.9706 24.2874V23.587H18.3734V23.5305V23.4628V23.4063V23.3498C18.616 23.905 18.8925 24.4445 19.2012 24.9652C19.3756 25.1247 19.592 25.2298 19.8242 25.2679C20.0564 25.306 20.2946 25.2754 20.5101 25.1799" fill="white"/>
<path fill-rule="evenodd" clip-rule="evenodd" d="M19.5871 22.3335C19.9259 22.9629 19.9478 23.317 21.9481 24.0251C22.7712 24.1848 23.6287 24.1162 24.4075 23.8284L25.3476 23.494L25.2601 24.4186C24.4894 24.7873 23.6597 25.0461 22.8007 25.1857C22.1061 25.3019 21.3896 25.251 20.7239 25.0382L19.5871 23.8284C19.5871 23.3465 19.5871 22.8449 19.5215 22.3827" fill="#1A1A18"/>
<path fill-rule="evenodd" clip-rule="evenodd" d="M25.2483 23.7246H25.344V23.798V23.9327C25.3488 23.9569 25.3488 23.9819 25.344 24.0061V24.1285C25.344 24.1285 25.344 24.1285 25.344 24.1897V24.2754H25.2722H25.2005H25.1407H25.069H25.0092H24.9375H24.8538H24.782H24.7103H24.6386H24.5668H24.4951H24.4114H24.3397H24.256C24.256 24.2754 24.256 24.2754 24.1843 24.2754H24.1125H24.0288H23.9571H23.8734H23.7897H23.706H23.6223H23.5386H23.4549H23.3713H23.2876H23.2039H23.1202H23.0365H22.9408H22.8691H22.7974H22.7376H21.6018H21.5301H21.3985H21.3268H21.267H21.1953H21.1355H21.0757H21.004H20.9442L20.8366 24.1407L20.741 24.0061L20.6214 23.8837L19.5215 23.798V23.7001V23.3084V22.9412V22.8188V22.88L19.5813 22.9412V23.0024L19.653 23.0636H19.7247L19.7965 23.1248L19.8682 23.186C19.8999 23.1806 19.9322 23.1806 19.9639 23.186L20.0595 23.2472H20.1671L20.2867 23.3207L20.4062 23.3819H20.5377L20.6812 23.4553L20.8366 23.5165L20.9921 23.5899H21.1714L21.3507 23.6634L21.554 23.7368H21.6616H21.7572H21.8529H21.9485H22.0442H22.1279H23.2039H23.2756H23.3713H23.443H23.5267H23.5984H23.6821H23.7538H23.8136H23.8973H23.969H24.0527H24.1245H24.1962H24.2679H24.3516H24.4473H24.5429H24.6386H24.7342" fill="white"/>
<path fill-rule="evenodd" clip-rule="evenodd" d="M19.2153 21.9616C18.4452 22.9611 18.0399 24.1898 18.0656 25.447C18.0562 26.698 18.501 27.9107 19.3188 28.864C20.7319 29.269 22.1852 29.5211 23.6532 29.6158C25.154 29.5185 26.6409 29.2704 28.0911 28.8754C29.8501 26.3012 29.1833 25.1394 28.6544 24.1257C28.4681 23.8862 28.2473 23.6751 27.9991 23.4992C27.3038 23.1494 26.722 22.6125 26.3205 21.9502C26.1941 21.8477 25.8491 21.7451 25.7227 22.0527C25.5616 22.7463 25.2475 23.3959 24.8029 23.9549C24.5045 24.3115 24.1247 24.5925 23.6948 24.7748C23.2649 24.957 22.7974 25.0352 22.331 25.0028C21.3998 24.7408 20.2501 24.6383 19.8247 23.2714C19.5142 21.654 19.3418 21.8363 19.1808 21.9388" fill="#1A1A18"/>
<path fill-rule="evenodd" clip-rule="evenodd" d="M23.6352 20.877C23.9723 20.8749 24.3025 20.9588 24.5839 21.118C24.8652 21.2773 25.0849 21.5046 25.2151 21.7712C25.3452 22.0378 25.3799 22.3315 25.3148 22.615C25.2496 22.8986 25.0875 23.1591 24.8491 23.3634C24.6107 23.5677 24.3068 23.7067 23.976 23.7625C23.6452 23.8184 23.3025 23.7887 22.9915 23.6771C22.6805 23.5655 22.4153 23.3772 22.2295 23.1361C22.0437 22.8949 21.9458 22.6119 21.9483 22.3229C21.9515 21.9403 22.1303 21.5741 22.446 21.3036C22.7616 21.033 23.1888 20.8798 23.6352 20.877Z" fill="white"/>
<path d="M28.2823 24.6648C28.514 26.3829 28.2823 28.124 28.514 30.0842C28.514 30.4301 28.3264 30.7414 29.0657 30.8567C29.7608 30.9675 30.4496 31.1176 31.1292 31.3064C31.3656 31.3603 31.5812 31.4868 31.7483 31.6696C31.9154 31.8525 32.0264 32.0834 32.0671 32.3326C32.0671 32.8169 31.7471 34.1314 32.0671 34.5004C32.2258 34.6728 32.4221 34.8027 32.6392 34.879C32.8562 34.9553 33.0877 34.9757 33.3139 34.9385C33.6938 34.9387 34.0696 34.8563 34.4174 34.6964C34.2446 34.6336 34.0943 34.5169 33.987 34.362C34.0838 34.3647 34.1793 34.3377 34.2616 34.2845C34.344 34.2312 34.4096 34.154 34.4505 34.0622C34.296 34.0622 34.2077 33.9584 34.0312 33.7393C34.1635 33.7222 34.2871 33.6616 34.3843 33.5663C34.4815 33.4709 34.5471 33.3458 34.5719 33.2089C34.5719 33.2089 33.6119 33.2089 33.4684 32.7593C33.3238 32.0777 33.2133 31.3888 33.1374 30.6953C33.0845 30.437 32.9433 30.2078 32.7401 30.0506C32.5369 29.8935 32.2858 29.8193 32.034 29.842C31.3838 29.8089 30.7377 29.7163 30.103 29.5653C29.9272 29.5202 29.7569 29.4545 29.5954 29.3693V29.0118C29.5954 29.0118 29.4188 26.9133 29.4519 26.3137C29.5369 25.4191 29.3392 24.5201 28.8892 23.7539C28.6271 23.4497 28.3049 23.2085 27.9448 23.0473C27.5847 22.886 27.1953 22.8084 26.8037 22.82C27.3885 23.4426 28.1389 23.5695 28.2823 24.6648Z" stroke="#C0932E" stroke-width="0.14" stroke-linecap="round" stroke-linejoin="round"/>
<path fill-rule="evenodd" clip-rule="evenodd" d="M28.2823 24.591C28.514 26.2403 28.2823 27.9118 28.514 29.7936C28.514 30.1256 28.3264 30.4245 29.0657 30.5352C29.7608 30.6415 30.4497 30.7856 31.1292 30.9669C31.3656 31.0186 31.5812 31.1401 31.7483 31.3156C31.9154 31.4911 32.0264 31.7128 32.0671 31.9521C32.0671 32.4059 31.7471 33.6789 32.0671 34.0331C32.2258 34.1987 32.4221 34.3234 32.6392 34.3966C32.8562 34.4698 33.0877 34.4894 33.3139 34.4537C33.6938 34.4539 34.0696 34.3748 34.4174 34.2213C34.2446 34.161 34.0943 34.0489 33.987 33.9003C34.0838 33.9029 34.1793 33.877 34.2616 33.8259C34.344 33.7747 34.4096 33.7006 34.4505 33.6125C34.296 33.6125 34.2077 33.5128 34.0312 33.3025C34.1635 33.2861 34.2871 33.2279 34.3843 33.1364C34.4815 33.0449 34.5471 32.9247 34.5719 32.7933C34.5719 32.7933 33.6008 32.7933 33.4684 32.3616C33.3237 31.7074 33.2132 31.046 33.1374 30.3802C33.0845 30.1323 32.9433 29.9122 32.7401 29.7614C32.5369 29.6105 32.2858 29.5393 32.034 29.5611C31.3838 29.5294 30.7377 29.4405 30.103 29.2954C29.9272 29.2522 29.7569 29.189 29.5954 29.1073V28.7641C29.5954 28.7641 29.4188 26.7495 29.4519 26.1739C29.5369 25.3151 29.3392 24.452 28.8892 23.7165C28.6271 23.4244 28.3049 23.1929 27.9448 23.0381C27.5847 22.8833 27.1953 22.8089 26.8037 22.8199C27.4658 23.3845 28.172 23.5062 28.3154 24.5578" fill="#FFF7B2"/>
<path d="M18.9155 35.6017C18.9526 35.9756 18.9219 36.353 18.8248 36.7164C18.6268 37.149 18.3711 37.5538 18.0645 37.9203C18.8248 37.5635 18.7226 37.7642 19.3808 37.3406C19.4818 37.412 19.5663 37.5035 19.6289 37.6091C19.6915 37.7148 19.7307 37.8322 19.7439 37.9537C19.9936 37.7865 20.4021 37.5858 20.6518 37.4186C20.7917 37.5292 20.8998 37.6738 20.9655 37.838C21.0312 38.0022 21.0521 38.1804 21.0263 38.355C22.1043 37.753 21.5483 36.003 21.6277 35.0778C21.6199 34.6273 21.7048 34.1799 21.8774 33.7624C22.0544 33.4455 22.1916 33.1086 22.2859 32.7592C22.3191 32.523 22.3645 32.2886 22.4221 32.0569C22.4221 31.7782 22.4221 31.0425 22.4221 30.8307C22.4813 30.6814 22.57 30.545 22.6831 30.4294C22.9421 29.8997 23.1071 29.3305 23.171 28.7462C23.171 28.2223 22.9214 27.0519 22.9554 26.7843C22.993 26.3348 23.0922 25.8924 23.2504 25.469C23.5341 25.0231 23.4093 24.9451 23.0235 24.8336C22.8493 24.7724 22.6637 24.7494 22.4795 24.766C22.2953 24.7826 22.117 24.8385 21.9571 24.9298C21.7971 25.021 21.6594 25.1455 21.5535 25.2945C21.4477 25.4435 21.3761 25.6133 21.344 25.7923C21.2315 26.1535 21.1741 26.5292 21.1738 26.907C21.213 27.652 21.175 28.3989 21.0603 29.1364C20.6708 29.6403 20.3714 30.2058 20.1752 30.8084C20.2101 31.4679 20.0816 32.1258 19.8007 32.7257C19.5679 32.8925 19.3759 33.108 19.2385 33.3567C19.1011 33.6055 19.0218 33.8811 19.0063 34.1637C18.9382 34.9886 18.9155 35.6017 18.9155 35.6017Z" stroke="#C0932E" stroke-width="0.14" stroke-linecap="round" stroke-linejoin="round"/>
<path fill-rule="evenodd" clip-rule="evenodd" d="M18.9155 35.5994C18.9529 35.9736 18.9221 36.3514 18.8248 36.715C18.6268 37.148 18.3711 37.5532 18.0645 37.9199C18.8248 37.5629 18.7226 37.7637 19.3808 37.3398C19.4818 37.4112 19.5663 37.5028 19.6289 37.6085C19.6915 37.7142 19.7307 37.8317 19.7439 37.9534C19.9936 37.786 20.4021 37.5852 20.6518 37.4179C20.7917 37.5286 20.8998 37.6732 20.9655 37.8376C21.0312 38.0019 21.0521 38.1803 21.0263 38.355C22.1043 37.7526 21.5483 36.001 21.6277 35.0751C21.6199 34.6242 21.7048 34.1764 21.8774 33.7586C22.0544 33.4415 22.1916 33.1043 22.2859 32.7546C22.319 32.5181 22.3644 32.2836 22.4221 32.0517C22.4221 31.7728 22.4221 31.0365 22.4221 30.8246C22.4815 30.6752 22.5702 30.5387 22.6831 30.4229C22.9408 29.8963 23.1058 29.3304 23.171 28.7495C23.171 28.2252 22.9214 27.0538 22.9554 26.786C22.993 26.3361 23.0922 25.8933 23.2504 25.4696C23.5341 25.0233 23.4093 24.9452 23.0235 24.8337C22.8493 24.7725 22.6637 24.7494 22.4795 24.766C22.2953 24.7826 22.117 24.8385 21.9571 24.9299C21.7971 25.0213 21.6594 25.1458 21.5535 25.2949C21.4477 25.444 21.3761 25.614 21.344 25.7931C21.2315 26.1547 21.1741 26.5306 21.1738 26.9087C21.213 27.6543 21.175 28.4019 21.0603 29.14C20.6708 29.6443 20.3714 30.2102 20.1752 30.8134C20.2101 31.4734 20.0816 32.1319 19.8007 32.7323C19.5893 32.8891 19.4128 33.0868 19.282 33.3132C19.1513 33.5396 19.069 33.7899 19.0404 34.0487C18.9382 34.9858 18.9155 35.5994 18.9155 35.5994Z" fill="#FFF7B2"/>
<path d="M31.1609 49.8317L31.9695 51.0016V51.0718L32.63 50.5921L32.5503 50.4751L32.4819 50.5336L32.1061 50.8027L31.7531 50.2879L32.1289 50.0188H32.1972L32.2314 49.9019L32.1631 49.9604L31.7872 50.2294L31.4456 49.7264L31.8328 49.4573H31.9011L31.8328 49.352L31.1609 49.8317ZM30.6484 51.294L30.489 50.5453L31.0812 51.025L30.6484 51.294ZM30.6484 51.411L31.1381 51.0952L31.4911 51.3876L31.7531 51.2238H31.6847L30.4776 50.2528L30.284 50.3698L30.6142 51.9024C30.6166 51.9257 30.6166 51.9492 30.6142 51.9726L30.7395 51.8907V51.8322L30.6484 51.411ZM29.5096 50.8027V50.8729L30.1131 52.1832V52.2534L30.3637 52.1247V52.0545L29.817 50.7559C29.8138 50.7326 29.8138 50.709 29.817 50.6857L29.5096 50.8027ZM28.3707 51.3174V51.4578H28.4618L28.7807 51.3291L29.2932 52.616C29.2962 52.6393 29.2962 52.6629 29.2932 52.6862L29.5551 52.5809V52.5107L29.0426 51.2238L29.3615 51.0718H29.4526V50.9314L28.3707 51.3174ZM27.3002 52.0194L28.5188 52.9202L28.7351 52.85C28.7298 52.8269 28.7298 52.8029 28.7351 52.7798L28.2796 51.3993C28.2749 51.3722 28.2749 51.3445 28.2796 51.3174H28.1429V51.3876L28.5188 52.5575L27.3799 51.6801L27.1407 51.762V51.8322L27.5963 53.2127C27.5988 53.236 27.5988 53.2595 27.5963 53.2829H27.7329V53.2127L27.3002 52.0194ZM26.1613 52.0194C26.1646 52.0427 26.1646 52.0663 26.1613 52.0896L26.4005 53.5169C26.4044 53.544 26.4044 53.5716 26.4005 53.5987L27.1977 53.435V53.2946H27.118L26.6738 53.3882L26.5485 52.7681L26.9927 52.6745H27.0724V52.5458H26.9927L26.5485 52.6394L26.4005 52.0779L26.856 51.9843H26.9244V51.8556L26.1613 52.0194ZM25.5464 52.1364C25.5491 52.1597 25.5491 52.1833 25.5464 52.2066L25.74 53.6455C25.7434 53.6727 25.7434 53.7003 25.74 53.7274H26.0133C26.01 53.7042 26.01 53.6805 26.0133 53.6572L25.8197 52.2183C25.8147 52.1912 25.8147 52.1634 25.8197 52.1364H25.5464ZM24.6808 53.0255V52.3586H24.8403C24.8819 52.3537 24.9241 52.3579 24.9641 52.3709C25.0041 52.3839 25.0409 52.4056 25.0721 52.4343C25.1033 52.4631 25.1283 52.4983 25.1452 52.5377C25.1622 52.5771 25.1708 52.6197 25.1705 52.6628C25.1787 52.7222 25.1714 52.7826 25.1494 52.8381C25.1274 52.8936 25.0914 52.9421 25.0453 52.9787C24.9856 52.9951 24.9227 52.9951 24.8631 52.9787L24.6808 53.0255ZM24.6808 53.1425H24.8517C25.2047 53.1425 25.4097 52.9202 25.3869 52.6277C25.3641 52.3353 25.1592 52.1949 24.8517 52.23H24.3506C24.3532 52.2533 24.3532 52.2768 24.3506 52.3002L24.4531 53.7508C24.4564 53.778 24.4564 53.8055 24.4531 53.8327H24.7378C24.7337 53.8056 24.7337 53.778 24.7378 53.7508L24.6808 53.1425ZM23.2003 53.2595L23.4395 52.5341L23.7014 53.2595H23.2003ZM23.2003 53.3765H23.7811L23.9406 53.8093C23.9452 53.8325 23.9452 53.8564 23.9406 53.8795H24.1228V53.8093L23.5762 52.3353H23.3484L22.8587 53.821V53.8912H22.984C22.9801 53.868 22.9801 53.8443 22.984 53.821L23.2003 53.3765ZM21.7882 53.6455C21.91 53.7431 22.0559 53.8039 22.2095 53.821C22.3246 53.8572 22.4475 53.8572 22.5626 53.821C22.6249 53.7824 22.6778 53.7296 22.7173 53.6668C22.7568 53.6039 22.7818 53.5326 22.7904 53.4584C22.8216 53.3675 22.8216 53.2684 22.7904 53.1776C22.7213 53.073 22.6271 52.9884 22.517 52.9319C22.2665 52.7798 22.2209 52.7096 22.2323 52.5809C22.2364 52.5474 22.2471 52.515 22.2639 52.4859C22.2807 52.4568 22.3032 52.4316 22.3299 52.4118C22.3566 52.392 22.3871 52.3781 22.4193 52.371C22.4515 52.3639 22.4847 52.3636 22.517 52.3704C22.6344 52.3884 22.7425 52.446 22.8245 52.5341L22.8928 52.3704C22.7866 52.2997 22.6657 52.2556 22.5398 52.2417C22.4783 52.2244 22.414 52.2206 22.3511 52.2304C22.2881 52.2403 22.2278 52.2636 22.1741 52.2989C22.1205 52.3342 22.0746 52.3806 22.0395 52.4353C22.0044 52.4899 21.9809 52.5515 21.9704 52.616C21.9704 52.8149 22.0387 52.9436 22.2893 53.1074L22.5056 53.2595C22.5391 53.2872 22.565 53.3232 22.581 53.3642C22.5969 53.4052 22.6024 53.4497 22.5967 53.4935C22.5914 53.5318 22.5784 53.5685 22.5585 53.6014C22.5387 53.6343 22.5124 53.6626 22.4814 53.6846C22.4504 53.7066 22.4153 53.7217 22.3783 53.7291C22.3413 53.7365 22.3032 53.7359 22.2665 53.7274C22.1956 53.7184 22.1275 53.6938 22.0666 53.6555C22.0057 53.6172 21.9535 53.5659 21.9134 53.5052L21.7882 53.6455ZM20.0002 53.3063C20.1073 53.415 20.2411 53.4918 20.3874 53.5285C20.506 53.5671 20.6332 53.5671 20.7518 53.5285C20.8199 53.4977 20.8801 53.451 20.9275 53.3921C20.975 53.3332 21.0084 53.2638 21.0251 53.1893C21.0555 53.0983 21.0555 52.9995 21.0251 52.9085C20.9702 52.7954 20.8878 52.6987 20.786 52.6277C20.5582 52.4405 20.5127 52.3704 20.5468 52.2417C20.5559 52.2097 20.5711 52.18 20.5917 52.1543C20.6122 52.1286 20.6376 52.1074 20.6664 52.0921C20.6952 52.0768 20.7266 52.0676 20.7589 52.0652C20.7912 52.0627 20.8237 52.067 20.8543 52.0779C20.9695 52.1132 21.0698 52.1874 21.139 52.2885L21.2301 52.1364C21.1348 52.0523 21.0217 51.9922 20.8999 51.9609C20.841 51.9372 20.778 51.9263 20.7148 51.9289C20.6516 51.9316 20.5896 51.9478 20.5328 51.9764C20.4761 52.005 20.4257 52.0454 20.385 52.0951C20.3442 52.1448 20.314 52.2027 20.2963 52.2651C20.2963 52.4522 20.2963 52.6043 20.5468 52.7915L20.7404 52.967C20.7697 52.9995 20.7903 53.0391 20.8002 53.0822C20.8102 53.1252 20.8092 53.1702 20.7974 53.2127C20.7883 53.2504 20.7717 53.2859 20.7487 53.3167C20.7256 53.3475 20.6966 53.3731 20.6634 53.3918C20.6302 53.4105 20.5936 53.4219 20.5559 53.4253C20.5182 53.4287 20.4802 53.424 20.4443 53.4116C20.3764 53.3945 20.3127 53.3628 20.2577 53.3184C20.2027 53.274 20.1576 53.218 20.1254 53.1542L20.0002 53.3063ZM19.0777 51.4578C19.0805 51.4851 19.0805 51.5125 19.0777 51.5397V53.084C19.081 53.1073 19.081 53.1309 19.0777 53.1542L19.3055 53.2244L20.2052 51.9726H20.0685L19.2941 53.0606V51.7269L19.0777 51.4578ZM17.6655 51.2121L17.5517 52.4522L17.7566 52.5458L18.5994 51.6216L18.2691 52.7915L18.5197 52.9085C18.5183 52.8851 18.5183 52.8617 18.5197 52.8383L18.9297 51.3993L18.7133 51.294L17.825 52.2534L17.9502 50.9431V50.9548L17.7339 50.8612L16.9481 52.1013V52.1598L17.0733 52.2183L17.6655 51.2121ZM16.7545 50.3932C17.0278 50.5687 17.0506 50.8612 16.8228 51.2589C16.595 51.6567 16.3217 51.762 16.0598 51.5982C15.7978 51.4344 15.7523 51.1303 15.9914 50.7208C16.2306 50.3113 16.3786 50.2411 16.6634 50.4049L16.7545 50.3932ZM16.8228 50.2879C16.6875 50.203 16.5309 50.1607 16.3725 50.1664C16.214 50.1721 16.0607 50.2256 15.9316 50.3201C15.8025 50.4147 15.7033 50.5461 15.6463 50.6981C15.5894 50.8501 15.5771 51.0159 15.6112 51.175C15.6453 51.3341 15.7241 51.4793 15.8379 51.5927C15.9517 51.7061 16.0955 51.7827 16.2513 51.8128C16.4071 51.843 16.5681 51.8254 16.7143 51.7623C16.8604 51.6991 16.9853 51.5933 17.0733 51.4578C17.1449 51.3638 17.1932 51.2533 17.2141 51.1358C17.2349 51.0183 17.2276 50.8974 17.1929 50.7835C17.1582 50.6695 17.097 50.566 17.0147 50.4817C16.9324 50.3974 16.8313 50.3349 16.7203 50.2996L16.8228 50.2879ZM14.3857 50.3698L15.012 49.3169L15.1487 49.4222C15.2127 49.4717 15.2657 49.5348 15.3038 49.6072C15.342 49.6795 15.3646 49.7595 15.37 49.8417C15.3754 49.9238 15.3635 50.0062 15.3352 50.0832C15.3068 50.1602 15.2626 50.23 15.2056 50.2879C14.9551 50.6272 14.6476 50.7091 14.397 50.5102L14.3857 50.3698ZM15.0348 49.0361V49.1063L14.1807 50.2762L14.6134 50.6155C14.6941 50.6785 14.7866 50.7235 14.8851 50.7477C14.9837 50.7719 15.086 50.7748 15.1857 50.7561C15.2854 50.7373 15.3801 50.6975 15.464 50.6391C15.5478 50.5806 15.6188 50.5048 15.6726 50.4166C15.7493 50.334 15.8066 50.2345 15.8401 50.1257C15.8736 50.0168 15.8825 49.9016 15.866 49.7887C15.8495 49.6758 15.8081 49.5683 15.745 49.4744C15.6819 49.3804 15.5986 49.3026 15.5017 49.2467L15.0348 49.0361Z" fill="#1A1A18"/>
<path d="M34.5891 45.7963C34.3406 45.871 34.1171 46.012 33.9427 46.2039C33.7952 46.3522 33.6963 46.5418 33.6592 46.7475C33.6479 46.8731 33.6655 46.9996 33.7108 47.1174C33.756 47.2351 33.8276 47.341 33.9201 47.4269C34.0377 47.538 34.1896 47.6058 34.351 47.6194C34.5644 47.624 34.7754 47.5732 34.9634 47.4722C35.417 47.2797 35.5644 47.2684 35.7232 47.4722C35.7629 47.5102 35.7946 47.5559 35.8162 47.6065C35.8379 47.6571 35.849 47.7116 35.849 47.7666C35.849 47.8216 35.8379 47.8761 35.8162 47.9267C35.7946 47.9773 35.7629 48.023 35.7232 48.061C35.5808 48.2085 35.3932 48.3041 35.1902 48.3328L35.3489 48.5819C35.5484 48.5028 35.7269 48.3788 35.8706 48.2196C35.9474 48.1466 36.0086 48.0587 36.0504 47.9614C36.0923 47.8641 36.1138 47.7593 36.1138 47.6534C36.1138 47.5475 36.0923 47.4427 36.0504 47.3453C36.0086 47.248 35.9474 47.1602 35.8706 47.0872C35.6324 46.872 35.3603 46.8607 34.884 47.0872L34.4757 47.2344C34.4064 47.2527 34.3335 47.253 34.264 47.2351C34.1945 47.2173 34.1307 47.1819 34.0788 47.1325C34.0303 47.0889 33.9915 47.0357 33.9649 46.9762C33.9383 46.9167 33.9246 46.8523 33.9246 46.7871C33.9246 46.722 33.9383 46.6575 33.9649 46.598C33.9915 46.5385 34.0303 46.4853 34.0788 46.4417C34.161 46.3532 34.2612 46.2831 34.3727 46.2362C34.4841 46.1894 34.6043 46.1668 34.7252 46.17L34.5891 45.7963ZM37.0273 46.7701L36.9139 46.7022L35.0541 45.1508L34.9634 45.0603L34.6572 45.4226L34.7706 45.4906L36.6304 47.0419L36.7211 47.1325L37.0273 46.7701ZM36.2561 43.5202C36.0189 43.626 35.815 43.7943 35.6665 44.0072C35.5414 44.1746 35.4702 44.376 35.4623 44.5847C35.4671 44.712 35.5014 44.8366 35.5623 44.9485C35.6233 45.0605 35.7094 45.1569 35.8139 45.2301C35.9452 45.3256 36.1052 45.3735 36.2675 45.366C36.4804 45.3428 36.6836 45.2647 36.8572 45.1395C37.2881 44.8904 37.4242 44.8564 37.6056 44.9923C37.6501 45.0255 37.6874 45.0675 37.7151 45.1156C37.7428 45.1637 37.7604 45.217 37.7667 45.2721C37.7731 45.3272 37.7681 45.3831 37.7521 45.4362C37.7361 45.4893 37.7094 45.5387 37.6737 45.5811C37.5504 45.7473 37.3746 45.867 37.1747 45.9209L37.3561 46.1473C37.5463 46.0428 37.7094 45.8955 37.8324 45.717C37.9031 45.6373 37.9568 45.5441 37.9901 45.4429C38.0234 45.3418 38.0356 45.2349 38.0261 45.1289C38.0165 45.0228 37.9854 44.9198 37.9345 44.8263C37.8837 44.7327 37.8142 44.6505 37.7304 44.5847C37.4695 44.4035 37.1974 44.4261 36.7551 44.6753L36.3695 44.8791C36.3068 44.9128 36.2367 44.9304 36.1654 44.9304C36.0942 44.9304 36.024 44.9128 35.9613 44.8791C35.9083 44.8423 35.8635 44.7948 35.8299 44.7397C35.7963 44.6847 35.7745 44.6233 35.766 44.5593C35.7574 44.4954 35.7623 44.4304 35.7803 44.3685C35.7983 44.3066 35.8291 44.2491 35.8706 44.1997C35.9403 44.1021 36.0299 44.0204 36.1335 43.9599C36.2371 43.8994 36.3523 43.8615 36.4716 43.8486L36.2561 43.5202ZM39.1366 42.5804L36.5737 42.8408H36.4603L36.2675 43.1805H36.3809L38.4902 44.3808L38.5922 44.4601L38.7056 44.2563H38.5809L36.8345 43.2598L39.3634 43.0333H39.4654L39.6809 42.6596H39.5562L37.4582 41.4593L37.3561 41.3801L37.2427 41.5839H37.3675L39.1366 42.5804ZM40.4974 40.7686H40.3726L38.1726 39.7721L38.0592 39.7042L37.4809 40.9611L37.6964 41.063C37.6905 41.0141 37.6905 40.9647 37.6964 40.9158L38.0139 40.2137L38.9665 40.644L38.6376 41.3574C38.6211 41.402 38.5982 41.444 38.5695 41.482L38.7623 41.5726C38.7549 41.5276 38.7549 41.4817 38.7623 41.4367L39.0799 40.7346L40.0098 41.1536L39.6809 41.8783C39.6644 41.916 39.6413 41.9505 39.6129 41.9802L39.8056 42.0708L40.4974 40.7686ZM39.885 38.6964L40.951 39.0701L40.8603 39.3305C40.8408 39.4001 40.8063 39.4647 40.7592 39.5197C40.7122 39.5747 40.6538 39.6188 40.5879 39.649C40.5221 39.6792 40.4505 39.6947 40.3781 39.6944C40.3056 39.6942 40.2341 39.6782 40.1685 39.6476C40.0731 39.6226 39.986 39.5728 39.9163 39.5031C39.8465 39.4335 39.7966 39.3465 39.7716 39.2512C39.7432 39.1475 39.7432 39.0379 39.7716 38.9342L39.885 38.6964ZM39.6922 38.6284L39.6015 38.9002C39.3974 39.4664 39.6015 39.908 40.0211 40.0326C40.4407 40.1571 40.8263 39.9646 41.0077 39.4551L41.2912 38.6511H41.1665L38.8984 37.8584L38.785 37.8018L38.6263 38.2548H38.751L39.6922 38.6284ZM41.6087 37.6772H41.484L39.2159 36.9525H39.1025L38.9551 37.4055H39.0799L41.3479 38.1302H41.4613L41.6087 37.6772ZM42.2438 35.1068H42.1077L39.5562 35.4012H39.4427L39.352 35.8088H39.4541L41.7221 37.1337L41.8242 37.213V36.9752H41.7221L39.7943 35.8428L42.0623 35.5824H42.1757L42.2438 35.1068ZM42.3458 33.6121C42.3329 33.7337 42.2899 33.8502 42.2206 33.951C42.1513 34.0518 42.0579 34.1338 41.9489 34.1896C41.6661 34.2927 41.3611 34.32 41.0644 34.2688C40.7523 34.2439 40.4572 34.1165 40.2252 33.9065C40.1454 33.826 40.087 33.7269 40.0553 33.6181C40.0236 33.5093 40.0196 33.3944 40.0438 33.2837C40.0518 33.1679 40.088 33.0558 40.1493 32.9571C40.2106 32.8584 40.295 32.7762 40.3953 32.7175C40.6766 32.5801 40.9946 32.5364 41.3025 32.5929C42.051 32.7628 42.4026 33.1025 42.3345 33.6574L42.3458 33.6121ZM39.3974 34.4047C39.4686 34.2569 39.5481 34.1133 39.6355 33.9744L39.7603 33.7819V33.7027C39.7664 33.9169 39.8332 34.125 39.9531 34.3028C40.0734 34.4557 40.2243 34.5819 40.3961 34.6735C40.5678 34.7652 40.7568 34.8201 40.951 34.835C41.1486 34.8698 41.3512 34.8636 41.5463 34.8169C41.7414 34.7701 41.9248 34.6838 42.085 34.5632C42.3124 34.335 42.4528 34.0346 42.4819 33.714C42.5469 33.3679 42.4736 33.0103 42.2778 32.7175C42.0198 32.432 41.6634 32.2541 41.2799 32.2193C40.9718 32.1688 40.6557 32.2122 40.3726 32.3438C40.1876 32.4601 40.0476 32.6358 39.9757 32.8421C39.758 33.2502 39.4914 33.6304 39.1819 33.9744L39.3974 34.4047ZM42.7995 30.4641H42.6747L40.2592 30.3282H40.1345L40.0665 31.7097H40.3046C40.2978 31.6571 40.2978 31.6038 40.3046 31.5512V30.7812L41.3592 30.8378V31.6191C41.3669 31.6679 41.3669 31.7175 41.3592 31.7663H41.5747C41.566 31.7176 41.566 31.6678 41.5747 31.6191V30.8378H42.5953V31.6304C42.603 31.6716 42.603 31.7138 42.5953 31.755H42.8108L42.7995 30.4641ZM41.5634 28.7316H42.6974V28.9241C42.7034 29.0563 42.6588 29.1859 42.5727 29.2864C42.5151 29.3443 42.446 29.3894 42.3697 29.4187C42.2935 29.4479 42.2119 29.4608 42.1304 29.4563C42.0595 29.458 41.989 29.445 41.9234 29.418C41.8578 29.391 41.7985 29.3506 41.7495 29.2994C41.7004 29.2483 41.6625 29.1875 41.6383 29.1209C41.614 29.0543 41.604 28.9834 41.6087 28.9128L41.5634 28.7316ZM41.416 28.7316L40.2819 29.5129H40.1685V30.1017C40.1946 30.0606 40.2294 30.0258 40.2706 29.9998L41.4046 29.1506C41.4166 29.2508 41.4394 29.3496 41.4726 29.445C41.5118 29.5734 41.5914 29.6858 41.6997 29.7654C41.808 29.845 41.9392 29.8875 42.0737 29.8866C42.178 29.887 42.2812 29.8657 42.3767 29.824C42.4723 29.7822 42.558 29.721 42.6285 29.6442C42.699 29.5675 42.7526 29.4769 42.7859 29.3782C42.8193 29.2795 42.8316 29.175 42.8221 29.0713V28.256H42.6974H40.2819H40.1572V28.7316H40.2819H41.416ZM41.1098 26.297L42.3458 26.6367L41.2118 27.1463L41.1098 26.297ZM40.9056 26.297L40.9737 27.2935L40.2706 27.5992H40.1572V28.1201L40.2592 28.0522L42.6634 26.9877H42.7541V26.6027H42.652L40.1345 25.9007H40.0211V26.1498H40.1345L40.9056 26.297ZM39.7716 23.0584C39.6784 23.304 39.6549 23.5704 39.7036 23.8284C39.7353 24.0368 39.8303 24.2305 39.9757 24.3833C40.0694 24.4688 40.1816 24.5317 40.3035 24.567C40.4254 24.6024 40.5538 24.6093 40.6788 24.5871C40.8405 24.5619 40.9887 24.4819 41.0984 24.3607C41.2324 24.1973 41.3222 24.0024 41.3592 23.7945C41.484 23.3189 41.5634 23.1943 41.7788 23.1604C41.8334 23.1524 41.889 23.1556 41.9422 23.1697C41.9955 23.1838 42.0454 23.2085 42.0888 23.2424C42.1322 23.2763 42.1684 23.3185 42.195 23.3667C42.2216 23.4149 42.2382 23.468 42.2438 23.5227C42.2731 23.7261 42.2332 23.9335 42.1304 24.1115H42.4252C42.4745 23.903 42.4745 23.6859 42.4252 23.4774C42.3345 22.9565 41.9716 22.6621 41.5407 22.7414C41.1098 22.8206 41.0417 23.0131 40.917 23.5001C40.881 23.6426 40.8355 23.7826 40.7809 23.919C40.7522 23.9853 40.7069 24.0431 40.6493 24.0868C40.5916 24.1304 40.5237 24.1585 40.452 24.1682C40.3883 24.1794 40.323 24.1773 40.2602 24.1618C40.1974 24.1464 40.1384 24.1181 40.0872 24.0787C40.036 24.0393 39.9936 23.9896 39.9626 23.9328C39.9317 23.8761 39.913 23.8135 39.9077 23.7492C39.8876 23.6296 39.8934 23.507 39.9247 23.3898C39.956 23.2726 40.0121 23.1635 40.0891 23.0698L39.7716 23.0584ZM42.0397 21.7336H41.9149L39.5448 22.2318H39.4201L39.5221 22.6961H39.6469L42.017 22.1978H42.1417L42.0397 21.7336ZM39.3747 22.0393L39.6015 21.9827C39.5936 21.9416 39.5936 21.8993 39.6015 21.8581L39.4087 21.1221L41.6768 20.5333H41.8015L41.6768 20.069H41.552L39.2046 20.6805H39.0799L39.3747 22.0393ZM39.3747 18.563H40.6562L39.6696 19.3783L39.3747 18.563ZM39.1706 18.563L39.5108 19.5028L38.9098 19.9897L38.8077 20.0464L38.9891 20.5333L39.0685 20.4314L41.1098 18.7102H41.1891L41.1098 18.3025H38.2747L38.3654 18.5403H38.4788L39.1706 18.563ZM39.3407 15.5056L38.1046 17.6684V17.7363L38.2634 18.0874C38.2912 18.0566 38.3263 18.0332 38.3654 18.0194L40.6335 17.0343H40.7582L40.6562 16.8191L40.5428 16.8871L38.7056 17.7024L39.9757 15.5395C39.9901 15.507 40.0138 15.4795 40.0438 15.4603L39.8737 15.0753L39.7603 15.1432L37.5489 16.1284H37.4242L37.5262 16.3435L37.6396 16.2756L39.3407 15.5056ZM38.5355 13.3881C38.8304 13.8523 38.6489 14.3053 38.0025 14.7242C37.3561 15.1432 36.8685 15.1092 36.5737 14.6563C36.2788 14.2034 36.4489 13.7278 37.118 13.3088C37.7871 12.8898 38.3087 12.8898 38.6036 13.3541L38.5355 13.3881ZM38.7056 13.2748C38.6215 13.1155 38.5032 12.9766 38.3591 12.8682C38.2151 12.7598 38.0488 12.6845 37.8722 12.6477C37.6956 12.6109 37.513 12.6136 37.3376 12.6554C37.1621 12.6973 36.9981 12.7773 36.8572 12.8898C36.6985 12.973 36.56 13.09 36.4515 13.2324C36.343 13.3749 36.2671 13.5394 36.2293 13.7144C36.1914 13.8893 36.1925 14.0704 36.2324 14.2449C36.2723 14.4194 36.3501 14.583 36.4603 14.7242C36.5456 14.8873 36.6667 15.0291 36.8145 15.139C36.9623 15.2488 37.133 15.324 37.314 15.3588C37.4949 15.3936 37.6814 15.3873 37.8595 15.3401C38.0376 15.293 38.2028 15.2063 38.3427 15.0866C38.5068 15.0079 38.6513 14.8937 38.7656 14.7522C38.88 14.6107 38.9613 14.4456 39.0036 14.2688C39.046 14.092 39.0483 13.908 39.0105 13.7302C38.9727 13.5524 38.8957 13.3852 38.785 13.2408L38.7056 13.2748ZM37.3902 11.2366L37.2994 11.3272L35.4396 12.8219L35.3262 12.8898L35.6211 13.2635L35.7118 13.1729L37.617 11.6782L37.7304 11.6102L37.3902 11.2366ZM36.052 9.57199L35.8592 9.73052L35.984 9.84376L36.3469 10.2967L34.5438 11.7575L34.4304 11.8254L34.7366 12.1991L34.8273 12.1085L36.6304 10.6477L36.9933 11.1007C37.0286 11.1424 37.059 11.1879 37.084 11.2366L37.2768 11.078L36.052 9.57199ZM33.7046 9.57199L34.8386 9.00581L34.3056 10.1382L33.7046 9.57199ZM33.5231 9.66258L34.2376 10.3533L33.9201 11.0554C33.9035 11.0897 33.8803 11.1205 33.852 11.146L34.2262 11.5083C34.24 11.4432 34.267 11.3815 34.3056 11.3272L35.4396 8.92654V8.84728L35.0994 8.60948H35.0201L32.6726 9.74184H32.5592L32.7407 9.92302L32.8314 9.85508L33.5231 9.66258ZM32.1396 6.7977V9.35684C32.1396 9.35684 32.1396 9.35684 32.1396 9.4361L32.4572 9.66258C32.4485 9.62533 32.4485 9.58659 32.4572 9.54934L33.886 7.59035C33.9112 7.55544 33.9418 7.52485 33.9768 7.49976L33.784 7.36388C33.7668 7.40467 33.7439 7.4428 33.7159 7.47712L32.5819 9.0964V6.58255C32.5727 6.54919 32.5727 6.51399 32.5819 6.48064L32.2417 6.23152C32.2241 6.27211 32.2013 6.31019 32.1737 6.34475L30.7561 8.33771L30.6654 8.4283L30.8582 8.56418C30.8752 8.52332 30.8981 8.48517 30.9262 8.45095L32.1396 6.7977ZM28.0572 6.7977C28.1995 7.01728 28.3996 7.19356 28.6355 7.30726C28.8195 7.40547 29.0293 7.44499 29.2365 7.4205C29.3614 7.39457 29.4785 7.3402 29.5788 7.26163C29.6791 7.18307 29.7599 7.08242 29.8149 6.96755C29.8855 6.82356 29.9055 6.66 29.8716 6.50328C29.8146 6.29776 29.7052 6.11049 29.5541 5.95975C29.2365 5.58607 29.1912 5.45019 29.2819 5.24636C29.3069 5.19702 29.3417 5.15327 29.3841 5.11777C29.4266 5.08228 29.4758 5.05578 29.5289 5.03989C29.5819 5.024 29.6377 5.01906 29.6927 5.02535C29.7477 5.03165 29.8008 5.04905 29.8489 5.07651C30.0308 5.17375 30.1746 5.32932 30.2572 5.51813L30.4613 5.30298C30.3281 5.13388 30.1573 4.99817 29.9623 4.90665C29.8711 4.84454 29.7677 4.80241 29.6591 4.78303C29.5504 4.76364 29.4388 4.76745 29.3317 4.79418C29.2246 4.82092 29.1244 4.86999 29.0376 4.93817C28.9508 5.00634 28.8795 5.09208 28.8283 5.18974C28.6922 5.48416 28.7602 5.7446 29.0778 6.14093C29.1725 6.25196 29.2596 6.36924 29.3386 6.49196C29.3743 6.55601 29.3931 6.62812 29.3931 6.70145C29.3931 6.77477 29.3743 6.84688 29.3386 6.91093C29.3102 6.96869 29.27 7.01991 29.2207 7.06134C29.1714 7.10277 29.114 7.13352 29.0521 7.15162C28.9903 7.16972 28.9253 7.17478 28.8614 7.16649C28.7975 7.1582 28.736 7.13672 28.6809 7.10344C28.5739 7.05067 28.4792 6.97601 28.403 6.88432C28.3268 6.79263 28.2708 6.68595 28.2386 6.57123L28.0572 6.7977ZM26.5943 5.49548L27.32 4.44238L27.4108 5.72195L26.5943 5.49548ZM26.4809 5.66533L27.4334 5.9371V6.70711C27.462 6.73242 27.4851 6.76323 27.5015 6.7977L28.0004 6.93358C27.9951 6.89223 27.9951 6.85037 28.0004 6.80902L27.7963 4.18194C27.7928 4.15185 27.7928 4.12144 27.7963 4.09135L27.4221 3.98944V4.08003L25.8231 6.24284L25.7437 6.33343L25.9819 6.40137C25.9766 6.36761 25.9766 6.33322 25.9819 6.29946L26.4809 5.66533ZM24.553 3.46855V3.70635H24.7231L25.3015 3.79693L24.9386 6.06166C24.9443 6.10298 24.9443 6.1449 24.9386 6.18622L25.4149 6.25416C25.4091 6.21284 25.4091 6.17093 25.4149 6.1296L25.7778 3.86488L26.3561 3.95547H26.5149V3.71767L24.553 3.46855ZM23.5778 3.46855C23.583 3.50991 23.583 3.55175 23.5778 3.59311V6.00504C23.5829 6.04641 23.5829 6.08824 23.5778 6.1296H24.054C24.0475 6.08834 24.0475 6.0463 24.054 6.00504V3.59311C24.0531 3.5262 24.0687 3.46008 24.0994 3.40061L23.5778 3.46855ZM21.5138 6.06166C21.7509 6.17182 22.0137 6.21491 22.2736 6.18622C22.4812 6.16958 22.6788 6.09063 22.8406 5.95975C22.9311 5.87281 23.0006 5.76646 23.0438 5.64875C23.087 5.53104 23.1029 5.40506 23.0901 5.28033C23.0766 5.11923 23.0086 4.96751 22.8973 4.85003C22.7432 4.69747 22.5516 4.58811 22.3417 4.53297C21.8767 4.37444 21.7633 4.29517 21.7293 4.0687C21.7246 4.01332 21.7314 3.95758 21.7491 3.90489C21.7668 3.85221 21.7951 3.8037 21.8323 3.76234C21.8695 3.72098 21.9147 3.68764 21.9652 3.66438C22.0158 3.64112 22.0706 3.62843 22.1262 3.62708C22.3313 3.61382 22.535 3.66964 22.7046 3.78561V3.4912C22.5204 3.42049 22.3232 3.38961 22.1262 3.40061C21.6046 3.45723 21.2757 3.79693 21.321 4.22723C21.3664 4.65753 21.5592 4.7368 22.0355 4.90665L22.4437 5.06518C22.5068 5.09862 22.5605 5.14717 22.6001 5.20647C22.6396 5.26576 22.6639 5.33394 22.6705 5.40489C22.6768 5.46861 22.6698 5.53294 22.65 5.59383C22.6302 5.65472 22.5979 5.71086 22.5553 5.75872C22.5127 5.80657 22.4607 5.84511 22.4024 5.87192C22.3442 5.89872 22.281 5.9132 22.2169 5.91445C22.0975 5.92513 21.9772 5.91048 21.8638 5.87145C21.7505 5.83242 21.6466 5.76989 21.5592 5.68798L21.5138 6.06166ZM19.7901 5.14445L19.5633 4.08003H19.7448C19.8686 4.03086 20.0065 4.03086 20.1303 4.08003C20.199 4.12025 20.2586 4.1742 20.3055 4.2385C20.3523 4.3028 20.3853 4.37607 20.4025 4.45371C20.4228 4.52141 20.4288 4.59259 20.4201 4.66274C20.4114 4.73289 20.3882 4.80046 20.352 4.86116C20.3157 4.92186 20.2672 4.97437 20.2095 5.01534C20.1518 5.05631 20.0862 5.08486 20.0169 5.09915L19.7901 5.14445ZM19.7901 5.29165L20.8448 6.19755L20.9241 6.29946L21.4912 6.16357C21.4441 6.14695 21.4014 6.11984 21.3664 6.08431L20.2324 5.16709C20.3283 5.12818 20.4195 5.07881 20.5046 5.01989C20.6181 4.94916 20.7059 4.84382 20.755 4.71943C20.804 4.59504 20.8116 4.4582 20.7767 4.32915C20.7501 4.22806 20.7025 4.13368 20.637 4.0521C20.5716 3.97053 20.4897 3.90356 20.3968 3.85554C20.3038 3.80752 20.2018 3.77951 20.0973 3.77331C19.9928 3.76712 19.8881 3.78288 19.7901 3.81958L18.9963 4.01208C19.0011 4.05347 19.0011 4.09526 18.9963 4.13664L19.5633 6.48064C19.5691 6.52196 19.5691 6.56387 19.5633 6.6052L20.0283 6.49196C20.0227 6.45063 20.0227 6.40873 20.0283 6.3674L19.7901 5.29165ZM17.0231 4.6915C17.0475 4.72625 17.0666 4.76441 17.0798 4.80474L17.919 7.06946C17.9247 7.11079 17.9247 7.1527 17.919 7.19403L19.2231 6.71843L19.1437 6.49196L19.0076 6.5599L18.3386 6.7977L17.9757 5.81254L18.7128 5.54077H18.8489L18.7695 5.33695L18.6334 5.40489L17.9076 5.66533L17.5561 4.70283L18.3045 4.43106H18.4293L18.3499 4.22723L17.0231 4.6915ZM14.5963 5.97107L14.7097 6.06166L16.6262 7.77153L16.7056 7.8508L17.0685 7.64697V7.54506L16.5808 4.99724C16.5754 4.9559 16.5754 4.91402 16.5808 4.87268L16.3654 4.99724C16.3724 5.03085 16.3724 5.06554 16.3654 5.09915L16.785 7.29594L15.1066 5.81254L15.0272 5.7446V5.66533L14.5963 5.97107ZM13.8932 6.41269L13.9726 6.51461L15.2994 8.54154C15.3036 8.57917 15.3036 8.61715 15.2994 8.65477L15.6963 8.39433C15.6643 8.36506 15.6374 8.33061 15.6169 8.29242L14.4035 6.26549C14.3787 6.23102 14.3595 6.19279 14.3468 6.15225L13.8932 6.41269ZM12.0788 8.46227L14.5509 9.14169H14.6303L15.0272 8.93786C14.9909 8.91924 14.9598 8.89203 14.9365 8.8586L13.3829 6.96755C13.354 6.93387 13.331 6.8956 13.3148 6.85432L13.1334 7.00152L13.2241 7.09211L14.4942 8.65477L12.0788 7.998H11.988L11.6251 8.22448L11.7159 8.31506L13.2695 10.1948L13.3375 10.308L13.519 10.1948L13.4282 10.1042L12.0788 8.46227ZM9.78803 10.1948H9.92411L12.2715 11.2366H12.3736L12.6571 10.9308L12.5891 10.8402L11.3416 8.57551C11.3373 8.53789 11.3373 8.49989 11.3416 8.46227L11.1715 8.64345C11.1996 8.66478 11.2228 8.69179 11.2396 8.72272L12.3169 10.693L10.2757 9.78714H10.1963L9.78803 10.1948ZM8.65401 11.6216L9.1303 12.3689L9.3571 12.233L8.96019 11.4291L8.65401 11.6216ZM8.30246 12.1198L8.77875 12.8672L9.01689 12.72L8.61998 11.916L8.30246 12.1198ZM9.25504 15.5169C9.48286 15.3889 9.67114 15.2009 9.79937 14.9734C9.90884 14.7931 9.96029 14.5836 9.94679 14.3732C9.93057 14.2468 9.88528 14.1258 9.81446 14.0197C9.74364 13.9136 9.64921 13.8253 9.53854 13.7617C9.39839 13.6796 9.23438 13.6477 9.07359 13.6711C8.86428 13.7114 8.66896 13.805 8.50658 13.9429C8.10967 14.226 7.96225 14.2713 7.78081 14.1581C7.73357 14.1293 7.69269 14.0912 7.66064 14.0462C7.62859 14.0011 7.60605 13.95 7.59438 13.896C7.58272 13.842 7.58217 13.7862 7.59277 13.732C7.60337 13.6777 7.62491 13.6262 7.65606 13.5806C7.76315 13.4036 7.927 13.2679 8.12101 13.1956L7.91689 12.9804C7.73946 13.1001 7.59201 13.2589 7.48596 13.4447C7.42046 13.5308 7.37358 13.6296 7.34829 13.7347C7.32299 13.8399 7.31984 13.9492 7.33903 14.0556C7.35822 14.162 7.39933 14.2634 7.45975 14.3531C7.52018 14.4429 7.59861 14.5191 7.69008 14.577C7.97359 14.7356 8.24576 14.6903 8.65401 14.3959L9.02823 14.1581C9.09202 14.1213 9.16437 14.1019 9.23803 14.1019C9.31168 14.1019 9.38404 14.1213 9.44782 14.1581C9.50354 14.1903 9.55194 14.2338 9.58994 14.2858C9.62794 14.3377 9.65472 14.3969 9.66858 14.4598C9.68244 14.5226 9.68308 14.5876 9.67046 14.6506C9.65783 14.7137 9.63222 14.7735 9.59524 14.8262C9.53503 14.9303 9.45334 15.0205 9.3556 15.0908C9.25785 15.1611 9.14626 15.2098 9.02823 15.2338L9.25504 15.5169ZM6.01173 16.4001H6.15915L8.71071 16.7285H8.82411L9.00555 16.3548L8.91483 16.2869L7.08905 14.4751L7.00967 14.3732L6.89627 14.5997L6.98699 14.6563L8.57462 16.2416L6.30658 15.9472H6.21585L6.01173 16.4001ZM5.6375 18.7668L8.09833 18.0534H8.17772L8.30246 17.691H8.17772L5.90967 16.8871L5.79626 16.8304L5.71688 17.0569H5.84163L7.73545 17.7137L5.31997 18.4157H5.21791L5.08183 18.8121H5.20657L7.47462 19.6047L7.58802 19.6613L7.6674 19.4349H7.54266L5.6375 18.7668ZM4.77564 19.8312H4.90039L7.16843 20.5559H7.28184L7.42926 20.103H7.30452L5.03647 19.3783H4.92307L4.77564 19.8312ZM4.20863 21.96L4.44678 22.0167C4.43989 21.9603 4.43989 21.9032 4.44678 21.8468L4.5942 21.2806L6.86225 21.8695H6.98699L7.11173 21.4052H6.98699L4.71894 20.8164L4.86637 20.2502C4.87893 20.1953 4.89797 20.1421 4.92307 20.0916L4.68492 20.035L4.20863 21.96ZM6.3406 24.2248C6.51523 24.03 6.63292 23.7911 6.6808 23.534C6.74276 23.3349 6.74276 23.1217 6.6808 22.9226C6.62519 22.8093 6.54401 22.7104 6.44365 22.6338C6.3433 22.5572 6.2265 22.5048 6.10245 22.4809C5.9455 22.4471 5.78171 22.467 5.6375 22.5375C5.45491 22.6449 5.3027 22.7969 5.19523 22.9792C4.91173 23.3755 4.78698 23.4661 4.57152 23.4208C4.51703 23.409 4.46553 23.3862 4.42022 23.3537C4.3749 23.3213 4.33672 23.2799 4.30803 23.2322C4.27934 23.1844 4.26076 23.1313 4.25341 23.0761C4.24607 23.0209 4.25012 22.9648 4.26533 22.9112C4.31096 22.7106 4.42279 22.5312 4.58286 22.4017L4.32204 22.2658C4.19182 22.4357 4.10257 22.6333 4.06121 22.8433C4.02671 22.9458 4.0139 23.0543 4.02359 23.162C4.03327 23.2697 4.06524 23.3743 4.11747 23.469C4.1697 23.5637 4.24106 23.6466 4.32702 23.7124C4.41299 23.7781 4.51169 23.8254 4.61688 23.8511C4.93441 23.9077 5.17255 23.7831 5.47874 23.3755C5.56195 23.2565 5.65286 23.143 5.7509 23.0358C5.80168 22.9844 5.86491 22.9469 5.93445 22.9271C6.00399 22.9072 6.07749 22.9057 6.14781 22.9226C6.21108 22.9355 6.27095 22.9615 6.32359 22.9989C6.37624 23.0363 6.42051 23.0842 6.45358 23.1396C6.48666 23.195 6.50781 23.2567 6.51569 23.3207C6.52357 23.3847 6.51801 23.4496 6.49936 23.5114C6.47534 23.6292 6.42653 23.7407 6.35615 23.8383C6.28577 23.9359 6.19543 24.0174 6.09111 24.0776L6.3406 24.2248ZM3.6076 26.1838H3.74368L6.24987 25.6176H6.36328V25.2099H6.26122L3.90245 24.1342L3.80038 24.0662V24.3154H3.90245L5.94369 25.2552L3.76636 25.7535H3.68698L3.6076 26.1838ZM3.6643 26.5688C3.5622 26.8049 3.50823 27.0589 3.50554 27.3161C3.48674 27.5007 3.50874 27.6872 3.56999 27.8624C3.63124 28.0376 3.73024 28.1972 3.86001 28.3301C3.98978 28.4629 4.14716 28.5656 4.32104 28.6311C4.49493 28.6966 4.68108 28.7231 4.86637 28.7089C5.06542 28.7218 5.26497 28.6931 5.45238 28.6249C5.63978 28.5567 5.81094 28.4503 5.95503 28.3126C6.07508 28.1931 6.16846 28.0496 6.22905 27.8915C6.28963 27.7335 6.31606 27.5644 6.30658 27.3954C6.3147 27.0785 6.26077 26.7631 6.14781 26.4669C6.09563 26.4794 6.04123 26.4794 5.98905 26.4669H4.95709H4.83235V26.9311H4.95709H6.00039C6.07553 27.0575 6.11108 27.2034 6.10245 27.3501C6.10245 27.8936 5.66018 28.2107 4.96843 28.188C4.64288 28.2095 4.32168 28.104 4.07255 27.8936C3.98823 27.8117 3.92236 27.7128 3.87934 27.6034C3.83632 27.4941 3.81713 27.3768 3.82306 27.2595C3.8303 26.9944 3.9261 26.7393 4.09523 26.5348L3.6643 26.5688ZM3.52822 30.9284L3.6643 30.8717L6.09111 30.0338H6.20451V29.6261H6.09111L3.68698 28.7655H3.57358V29.0147H3.68698L5.81895 29.7281L3.68698 30.4188H3.59626L3.52822 30.9284ZM5.36534 32.4118L4.11791 32.1173L5.25193 31.5625L5.36534 32.4118ZM5.56946 32.4118L5.4674 31.4266L6.15915 31.0982H6.27255V30.5773L6.17049 30.6566L3.80038 31.789H3.70966V32.174H3.81172L6.35194 32.7968H6.46534V32.5476H6.35194L5.56946 32.4118ZM6.82823 35.605C6.89949 35.3533 6.89949 35.0868 6.82823 34.835C6.79112 34.6293 6.69224 34.4398 6.54472 34.2915C6.44902 34.2099 6.33596 34.1512 6.21413 34.1198C6.0923 34.0884 5.9649 34.0852 5.84163 34.1103C5.68247 34.141 5.5385 34.2249 5.43338 34.3481C5.30573 34.517 5.22372 34.7159 5.19523 34.9256C5.09317 35.4125 5.01379 35.5258 4.79832 35.5711C4.7438 35.5807 4.68788 35.5792 4.63396 35.5665C4.58005 35.5539 4.52927 35.5305 4.48471 35.4976C4.44016 35.4648 4.40276 35.4232 4.3748 35.3755C4.34683 35.3278 4.32888 35.2749 4.32204 35.22C4.28582 35.0191 4.31774 34.8119 4.41276 34.6312H4.11791C4.06908 34.8398 4.06908 35.0568 4.11791 35.2653C4.12592 35.3735 4.15639 35.4788 4.2074 35.5746C4.2584 35.6703 4.32881 35.7544 4.41415 35.8216C4.49949 35.8887 4.59788 35.9373 4.70307 35.9643C4.80826 35.9914 4.91794 35.9963 5.02513 35.9787C5.34266 35.9108 5.51276 35.6956 5.62616 35.2087C5.65831 35.0664 5.69999 34.9264 5.7509 34.7897C5.77702 34.7228 5.81995 34.6636 5.87555 34.618C5.93116 34.5724 5.99758 34.5419 6.06843 34.5293C6.13123 34.5163 6.19604 34.5164 6.2588 34.5296C6.32155 34.5428 6.38089 34.5689 6.43308 34.6061C6.48526 34.6433 6.52918 34.6909 6.56205 34.7459C6.59493 34.8009 6.61605 34.8621 6.6241 34.9256C6.64733 35.0436 6.64518 35.1652 6.61781 35.2823C6.59045 35.3995 6.53847 35.5095 6.46534 35.605H6.82823ZM4.95709 38.3793L5.07049 38.2887L7.21379 36.8846H7.31586L7.21379 36.4883H7.08905L4.50348 36.3071H4.37874L4.44678 36.5449H4.54884L6.81689 36.7147L4.94575 37.9377H4.86637L4.95709 38.3793ZM5.71688 40.4176L5.94369 40.3383C5.91116 40.2927 5.88449 40.2433 5.86431 40.1911L5.6942 39.6362L7.88287 38.8549H8.00761L7.84885 38.402L7.73545 38.4586L5.54678 39.2399L5.354 38.6964C5.348 38.6437 5.348 38.5905 5.354 38.5378L5.12719 38.6171L5.71688 40.4176ZM5.84163 40.5421C5.84975 40.7586 5.90387 40.9709 6.00039 41.1649C6.05911 41.3395 6.1562 41.4987 6.28454 41.6309C6.41288 41.7631 6.56922 41.865 6.74211 41.9291C6.915 41.9931 7.10004 42.0177 7.2837 42.0011C7.46735 41.9845 7.64495 41.9271 7.80349 41.833C7.98092 41.7832 8.14466 41.6937 8.28227 41.5713C8.41989 41.4489 8.52777 41.2967 8.59772 41.1265C8.66768 40.9562 8.69787 40.7723 8.68601 40.5886C8.67415 40.405 8.62054 40.2264 8.52926 40.0665C8.43259 39.8432 8.28034 39.6483 8.08699 39.5004L7.76947 39.6476C7.8843 39.6804 7.99053 39.7379 8.08067 39.8162C8.1708 39.8944 8.24264 39.9915 8.29112 40.1005C8.51792 40.5987 8.29112 41.1083 7.6107 41.4027C6.93029 41.6971 6.47668 41.5726 6.19317 41.0743C6.14732 40.965 6.12371 40.8475 6.12371 40.729C6.12371 40.6104 6.14732 40.493 6.19317 40.3836L5.84163 40.5421ZM8.22308 44.3808L9.3571 42.1161V42.0482L9.16432 41.7085C9.14102 41.7419 9.10987 41.7691 9.07359 41.7877L6.95297 42.9201H6.82823L6.94163 43.1239L7.08905 43.0333L8.84679 42.0595L7.71277 44.3242C7.70341 44.3594 7.68365 44.391 7.65606 44.4148L7.86019 44.7885L7.96225 44.7092L10.0829 43.5769H10.2076L10.0942 43.373L9.99215 43.4523L8.22308 44.3808ZM10.5818 45.6831L9.3571 46.0907L10.0375 44.9583L10.5818 45.6831ZM10.7746 45.6151L10.1623 44.8338L10.5705 44.1883C10.5904 44.153 10.6175 44.1222 10.6499 44.0977L10.3324 43.6901C10.3378 43.7314 10.3378 43.7733 10.3324 43.8147L8.93751 46.0794L8.88081 46.1473L9.11895 46.4531H9.20968L11.6251 45.5358H11.7499L11.6251 45.2981H11.5231L10.7746 45.6151ZM12.7592 46.872C12.7118 46.6148 12.5941 46.3757 12.419 46.1813C12.2827 46.0213 12.1007 45.9067 11.8973 45.8529C11.7732 45.8293 11.6453 45.8344 11.5234 45.8677C11.4015 45.9011 11.2889 45.9619 11.1942 46.0454C11.0708 46.1504 10.9868 46.2941 10.9561 46.4531C10.9283 46.664 10.9557 46.8786 11.0355 47.0759C11.1829 47.5515 11.1715 47.6873 11.0355 47.8345C10.9929 47.8703 10.9435 47.8969 10.8903 47.9129C10.8371 47.9289 10.7812 47.9338 10.7259 47.9275C10.6707 47.9211 10.6174 47.9036 10.5692 47.8759C10.5211 47.8482 10.479 47.8111 10.4458 47.7666C10.3118 47.6077 10.2358 47.4081 10.2303 47.2004L9.95813 47.325C10.0162 47.531 10.1209 47.7208 10.2643 47.8798C10.325 47.9686 10.4035 48.0438 10.4946 48.1009C10.5858 48.158 10.6878 48.1957 10.7942 48.2116C10.9007 48.2276 11.0093 48.2214 11.1132 48.1936C11.2171 48.1657 11.3142 48.1167 11.3983 48.0497C11.6365 47.8345 11.6818 47.5628 11.5344 47.0759C11.4908 46.9349 11.4567 46.7911 11.4324 46.6456C11.4216 46.5741 11.4296 46.5012 11.4554 46.4337C11.4812 46.3662 11.5241 46.3066 11.5798 46.2606C11.6278 46.2179 11.6842 46.1857 11.7453 46.1659C11.8064 46.1462 11.871 46.1392 11.9349 46.1456C11.9988 46.152 12.0608 46.1716 12.1167 46.203C12.1727 46.2345 12.2216 46.2772 12.2602 46.3285C12.3397 46.419 12.399 46.5254 12.4342 46.6406C12.4694 46.7558 12.4797 46.8772 12.4643 46.9966L12.7592 46.872ZM12.0788 48.48L11.2736 48.8763L11.3983 49.1254L12.2375 48.8197L12.0788 48.48ZM12.5324 48.8763L11.7272 49.2726L11.852 49.5218L12.6911 49.216L12.5324 48.8763Z" fill="#1A1A18"/>
<path d="M52.5822 46.8316H52.9676V48.9392C52.9676 49.1569 52.9163 49.3511 52.8137 49.5221C52.7122 49.6921 52.5687 49.8262 52.3832 49.9247C52.1977 50.0221 51.9801 50.0708 51.7304 50.0708C51.4807 50.0708 51.2631 50.0221 51.0776 49.9247C50.8921 49.8262 50.7481 49.6921 50.6455 49.5221C50.5439 49.3511 50.4932 49.1569 50.4932 48.9392V46.8316H50.8786V48.9082C50.8786 49.0636 50.9128 49.2019 50.9812 49.3232C51.0496 49.4434 51.147 49.5382 51.2734 49.6076C51.4009 49.676 51.5532 49.7102 51.7304 49.7102C51.9076 49.7102 52.0599 49.676 52.1874 49.6076C52.3148 49.5382 52.4122 49.4434 52.4796 49.3232C52.548 49.2019 52.5822 49.0636 52.5822 48.9082V46.8316Z" fill="white"/>
<path d="M56.2616 46.8316V50.0148H55.8886L54.154 47.5155H54.1229V50.0148H53.7374V46.8316H54.1104L55.8513 49.3372H55.8823V46.8316H56.2616Z" fill="white"/>
<path d="M57.4184 46.8316V50.0148H57.0329V46.8316H57.4184Z" fill="white"/>
<path d="M58.3218 46.8316L59.2669 49.5112H59.3042L60.2492 46.8316H60.6533L59.4845 50.0148H59.0866L57.9177 46.8316H58.3218Z" fill="white"/>
<path d="M61.1491 50.0148V46.8316H63.0702V47.1736H61.5346V48.2491H62.9708V48.5911H61.5346V49.6729H63.0951V50.0148H61.1491Z" fill="white"/>
<path d="M63.765 50.0148V46.8316H64.8406C65.0893 46.8316 65.2934 46.8741 65.453 46.9591C65.6126 47.043 65.7307 47.1585 65.8074 47.3057C65.8841 47.4528 65.9224 47.6202 65.9224 47.8077C65.9224 47.9953 65.8841 48.1616 65.8074 48.3066C65.7307 48.4517 65.6131 48.5657 65.4546 48.6486C65.296 48.7305 65.0934 48.7714 64.8468 48.7714H63.9764V48.4232H64.8344C65.0043 48.4232 65.1411 48.3983 65.2447 48.3486C65.3494 48.2989 65.425 48.2284 65.4717 48.1372C65.5193 48.045 65.5432 47.9352 65.5432 47.8077C65.5432 47.6803 65.5193 47.5689 65.4717 47.4735C65.424 47.3782 65.3478 47.3046 65.2432 47.2528C65.1385 47.2 65.0002 47.1736 64.8282 47.1736H64.1505V50.0148H63.765ZM65.2634 48.5849L66.0467 50.0148H65.5991L64.8282 48.5849H65.2634Z" fill="white"/>
<path d="M68.3055 47.6274C68.2869 47.4699 68.2113 47.3476 68.0786 47.2606C67.946 47.1736 67.7833 47.13 67.5906 47.13C67.4496 47.13 67.3263 47.1528 67.2206 47.1984C67.116 47.244 67.0341 47.3067 66.9751 47.3865C66.917 47.4663 66.888 47.5569 66.888 47.6585C66.888 47.7435 66.9082 47.8165 66.9486 47.8777C66.9901 47.9378 67.0429 47.988 67.1072 48.0284C67.1714 48.0678 67.2388 48.1004 67.3092 48.1263C67.3797 48.1512 67.4445 48.1714 67.5035 48.187L67.8268 48.274C67.9097 48.2958 68.0019 48.3258 68.1035 48.3642C68.2061 48.4025 68.304 48.4548 68.3973 48.5211C68.4915 48.5864 68.5693 48.6704 68.6304 48.7729C68.6915 48.8755 68.7221 49.0014 68.7221 49.1506C68.7221 49.3226 68.677 49.4781 68.5869 49.6169C68.4978 49.7558 68.3672 49.8661 68.1952 49.948C68.0242 50.0299 67.8165 50.0708 67.5719 50.0708C67.3439 50.0708 67.1466 50.034 66.9797 49.9604C66.8139 49.8869 66.6834 49.7843 66.588 49.6527C66.4937 49.5211 66.4404 49.3682 66.4279 49.1942H66.8258C66.8362 49.3144 66.8766 49.4138 66.9471 49.4926C67.0186 49.5703 67.1087 49.6283 67.2175 49.6667C67.3274 49.704 67.4455 49.7226 67.5719 49.7226C67.7191 49.7226 67.8512 49.6988 67.9683 49.6511C68.0854 49.6024 68.1781 49.5351 68.2465 49.4491C68.3149 49.362 68.3491 49.2605 68.3491 49.1444C68.3491 49.0387 68.3195 48.9527 68.2605 48.8864C68.2014 48.8201 68.1237 48.7662 68.0273 48.7248C67.931 48.6833 67.8268 48.647 67.7149 48.616L67.3232 48.504C67.0745 48.4325 66.8777 48.3305 66.7326 48.1978C66.5875 48.0652 66.515 47.8916 66.515 47.6771C66.515 47.4989 66.5632 47.3435 66.6595 47.2109C66.7569 47.0772 66.8875 46.9736 67.0512 46.9C67.216 46.8254 67.3999 46.7881 67.603 46.7881C67.8082 46.7881 67.9905 46.8249 68.1501 46.8984C68.3097 46.971 68.4361 47.0705 68.5294 47.1969C68.6237 47.3233 68.6734 47.4668 68.6786 47.6274H68.3055Z" fill="white"/>
<path d="M69.7413 46.8316V50.0148H69.3559V46.8316H69.7413Z" fill="white"/>
<path d="M71.4965 50.0148H70.5142V46.8316H71.5401C71.8489 46.8316 72.1131 46.8953 72.3328 47.0228C72.5524 47.1492 72.7208 47.3311 72.8379 47.5683C72.955 47.8046 73.0135 48.0875 73.0135 48.417C73.0135 48.7486 72.9545 49.0341 72.8364 49.2734C72.7182 49.5118 72.5462 49.6952 72.3203 49.8237C72.0944 49.9511 71.8198 50.0148 71.4965 50.0148ZM70.8997 49.6729H71.4717C71.7349 49.6729 71.953 49.6221 72.126 49.5206C72.2991 49.419 72.4281 49.2745 72.5131 49.0869C72.598 48.8994 72.6405 48.6761 72.6405 48.417C72.6405 48.16 72.5985 47.9388 72.5146 47.7533C72.4307 47.5668 72.3053 47.4238 72.1385 47.3243C71.9716 47.2238 71.7639 47.1736 71.5152 47.1736H70.8997V49.6729Z" fill="white"/>
<path d="M73.6411 50.0148H73.237L74.4058 46.8316H74.8037L75.9726 50.0148H75.5684L74.6172 47.3352H74.5923L73.6411 50.0148ZM73.7903 48.7714H75.4192V49.1133H73.7903V48.7714Z" fill="white"/>
<path d="M77.4507 50.0148H76.4684V46.8316H77.4942C77.803 46.8316 78.0673 46.8953 78.2869 47.0228C78.5066 47.1492 78.675 47.3311 78.7921 47.5683C78.9092 47.8046 78.9677 48.0875 78.9677 48.417C78.9677 48.7486 78.9087 49.0341 78.7905 49.2734C78.6724 49.5118 78.5004 49.6952 78.2745 49.8237C78.0486 49.9511 77.774 50.0148 77.4507 50.0148ZM76.8539 49.6729H77.4258C77.689 49.6729 77.9072 49.6221 78.0802 49.5206C78.2533 49.419 78.3823 49.2745 78.4672 49.0869C78.5522 48.8994 78.5947 48.6761 78.5947 48.417C78.5947 48.16 78.5527 47.9388 78.4688 47.7533C78.3849 47.5668 78.2595 47.4238 78.0926 47.3243C77.9258 47.2238 77.7181 47.1736 77.4694 47.1736H76.8539V49.6729Z" fill="white"/>
<path d="M83.3695 46.8316V50.0148H82.9965L81.2619 47.5155H81.2308V50.0148H80.8453V46.8316H81.2184L82.9592 49.3372H82.9903V46.8316H83.3695Z" fill="white"/>
<path d="M84.2714 50.0148H83.8673L85.0361 46.8316H85.434L86.6029 50.0148H86.1988L85.2475 47.3352H85.2226L84.2714 50.0148ZM84.4206 48.7714H86.0495V49.1133H84.4206V48.7714Z" fill="white"/>
<path d="M89.5106 47.8264H89.1251C89.1023 47.7155 89.0624 47.6181 89.0054 47.5342C88.9495 47.4502 88.8811 47.3798 88.8003 47.3228C88.7205 47.2647 88.6319 47.2212 88.5345 47.1922C88.4371 47.1632 88.3355 47.1487 88.2299 47.1487C88.0371 47.1487 87.8625 47.1974 87.706 47.2948C87.5506 47.3922 87.4268 47.5357 87.3346 47.7253C87.2434 47.915 87.1978 48.1476 87.1978 48.4232C87.1978 48.6988 87.2434 48.9315 87.3346 49.1211C87.4268 49.3107 87.5506 49.4542 87.706 49.5516C87.8625 49.6491 88.0371 49.6978 88.2299 49.6978C88.3355 49.6978 88.4371 49.6832 88.5345 49.6542C88.6319 49.6252 88.7205 49.5822 88.8003 49.5252C88.8811 49.4672 88.9495 49.3962 89.0054 49.3123C89.0624 49.2273 89.1023 49.1299 89.1251 49.0201H89.5106C89.4816 49.1828 89.4287 49.3283 89.3521 49.4568C89.2754 49.5853 89.18 49.6946 89.0661 49.7848C88.9521 49.8739 88.8241 49.9418 88.6822 49.9884C88.5412 50.035 88.3905 50.0584 88.2299 50.0584C87.9584 50.0584 87.7169 49.992 87.5055 49.8594C87.2942 49.7268 87.1278 49.5382 87.0066 49.2936C86.8854 49.0491 86.8248 48.7589 86.8248 48.4232C86.8248 48.0875 86.8854 47.7973 87.0066 47.5528C87.1278 47.3083 87.2942 47.1197 87.5055 46.987C87.7169 46.8544 87.9584 46.7881 88.2299 46.7881C88.3905 46.7881 88.5412 46.8114 88.6822 46.858C88.8241 46.9047 88.9521 46.973 89.0661 47.0632C89.18 47.1523 89.2754 47.2611 89.3521 47.3896C89.4287 47.5171 89.4816 47.6626 89.5106 47.8264Z" fill="white"/>
<path d="M90.519 46.8316V50.0148H90.1335V46.8316H90.519Z" fill="white"/>
<path d="M93.9777 48.4232C93.9777 48.7589 93.9171 49.0491 93.7958 49.2936C93.6746 49.5382 93.5083 49.7268 93.2969 49.8594C93.0855 49.992 92.8441 50.0584 92.5726 50.0584C92.3011 50.0584 92.0597 49.992 91.8483 49.8594C91.6369 49.7268 91.4706 49.5382 91.3493 49.2936C91.2281 49.0491 91.1675 48.7589 91.1675 48.4232C91.1675 48.0875 91.2281 47.7973 91.3493 47.5528C91.4706 47.3083 91.6369 47.1197 91.8483 46.987C92.0597 46.8544 92.3011 46.7881 92.5726 46.7881C92.8441 46.7881 93.0855 46.8544 93.2969 46.987C93.5083 47.1197 93.6746 47.3083 93.7958 47.5528C93.9171 47.7973 93.9777 48.0875 93.9777 48.4232ZM93.6046 48.4232C93.6046 48.1476 93.5585 47.915 93.4663 47.7253C93.3751 47.5357 93.2513 47.3922 93.0948 47.2948C92.9394 47.1974 92.7653 47.1487 92.5726 47.1487C92.3799 47.1487 92.2053 47.1974 92.0488 47.2948C91.8934 47.3922 91.7695 47.5357 91.6773 47.7253C91.5861 47.915 91.5405 48.1476 91.5405 48.4232C91.5405 48.6988 91.5861 48.9315 91.6773 49.1211C91.7695 49.3107 91.8934 49.4542 92.0488 49.5516C92.2053 49.6491 92.3799 49.6978 92.5726 49.6978C92.7653 49.6978 92.9394 49.6491 93.0948 49.5516C93.2513 49.4542 93.3751 49.3107 93.4663 49.1211C93.5585 48.9315 93.6046 48.6988 93.6046 48.4232Z" fill="white"/>
<path d="M97.15 46.8316V50.0148H96.777L95.0424 47.5155H95.0113V50.0148H94.6258V46.8316H94.9989L96.7397 49.3372H96.7708V46.8316H97.15Z" fill="white"/>
<path d="M98.0519 50.0148H97.6478L98.8166 46.8316H99.2145L100.383 50.0148H99.9793L99.028 47.3352H99.0032L98.0519 50.0148ZM98.2011 48.7714H99.83V49.1133H98.2011V48.7714Z" fill="white"/>
<path d="M100.879 50.0148V46.8316H101.265V49.6729H102.744V50.0148H100.879Z" fill="white"/>
<path d="M105.555 50.0148H104.572V46.8316H105.598C105.907 46.8316 106.171 46.8953 106.391 47.0228C106.61 47.1492 106.779 47.3311 106.896 47.5683C107.013 47.8046 107.072 48.0875 107.072 48.417C107.072 48.7486 107.013 49.0341 106.894 49.2734C106.776 49.5118 106.604 49.6952 106.378 49.8237C106.152 49.9511 105.878 50.0148 105.555 50.0148ZM104.958 49.6729H105.53C105.793 49.6729 106.011 49.6221 106.184 49.5206C106.357 49.419 106.486 49.2745 106.571 49.0869C106.656 48.8994 106.699 48.6761 106.699 48.417C106.699 48.16 106.657 47.9388 106.573 47.7533C106.489 47.5668 106.363 47.4238 106.196 47.3243C106.03 47.2238 105.822 47.1736 105.573 47.1736H104.958V49.6729Z" fill="white"/>
<path d="M107.718 50.0148V46.8316H109.639V47.1736H108.104V48.2491H109.54V48.5911H108.104V49.6729H109.664V50.0148H107.718Z" fill="white"/>
<path d="M113.306 47.6274C113.287 47.4699 113.212 47.3476 113.079 47.2606C112.946 47.1736 112.784 47.13 112.591 47.13C112.45 47.13 112.327 47.1528 112.221 47.1984C112.116 47.244 112.034 47.3067 111.975 47.3865C111.917 47.4663 111.888 47.5569 111.888 47.6585C111.888 47.7435 111.909 47.8165 111.949 47.8777C111.99 47.9378 112.043 47.988 112.108 48.0284C112.172 48.0678 112.239 48.1004 112.31 48.1263C112.38 48.1512 112.445 48.1714 112.504 48.187L112.827 48.274C112.91 48.2958 113.002 48.3258 113.104 48.3642C113.206 48.4025 113.304 48.4548 113.398 48.5211C113.492 48.5864 113.57 48.6704 113.631 48.7729C113.692 48.8755 113.722 49.0014 113.722 49.1506C113.722 49.3226 113.677 49.4781 113.587 49.6169C113.498 49.7558 113.368 49.8661 113.196 49.948C113.025 50.0299 112.817 50.0708 112.572 50.0708C112.344 50.0708 112.147 50.034 111.98 49.9604C111.814 49.8869 111.684 49.7843 111.588 49.6527C111.494 49.5211 111.441 49.3682 111.428 49.1942H111.826C111.837 49.3144 111.877 49.4138 111.947 49.4926C112.019 49.5703 112.109 49.6283 112.218 49.6667C112.328 49.704 112.446 49.7226 112.572 49.7226C112.719 49.7226 112.852 49.6988 112.969 49.6511C113.086 49.6024 113.178 49.5351 113.247 49.4491C113.315 49.362 113.349 49.2605 113.349 49.1444C113.349 49.0387 113.32 48.9527 113.261 48.8864C113.202 48.8201 113.124 48.7662 113.028 48.7248C112.931 48.6833 112.827 48.647 112.715 48.616L112.324 48.504C112.075 48.4325 111.878 48.3305 111.733 48.1978C111.588 48.0652 111.515 47.8916 111.515 47.6771C111.515 47.4989 111.564 47.3435 111.66 47.2109C111.757 47.0772 111.888 46.9736 112.052 46.9C112.216 46.8254 112.4 46.7881 112.603 46.7881C112.809 46.7881 112.991 46.8249 113.15 46.8984C113.31 46.971 113.436 47.0705 113.53 47.1969C113.624 47.3233 113.674 47.4668 113.679 47.6274H113.306Z" fill="white"/>
<path d="M114.487 50.0148H114.083L115.252 46.8316H115.649L116.818 50.0148H116.414L115.463 47.3352H115.438L114.487 50.0148ZM114.636 48.7714H116.265V49.1133H114.636V48.7714Z" fill="white"/>
<path d="M119.838 46.8316V50.0148H119.465L117.731 47.5155H117.7V50.0148H117.314V46.8316H117.687L119.428 49.3372H119.459V46.8316H119.838Z" fill="white"/>
<path d="M121.971 50.0148H121.567L122.736 46.8316H123.134L124.303 50.0148H123.899L122.947 47.3352H122.922L121.971 50.0148ZM122.12 48.7714H123.749V49.1133H122.12V48.7714Z" fill="white"/>
<path d="M126.825 47.8264C126.791 47.7217 126.746 47.6279 126.69 47.545C126.635 47.4611 126.569 47.3896 126.492 47.3305C126.417 47.2715 126.331 47.2264 126.234 47.1953C126.138 47.1642 126.032 47.1487 125.917 47.1487C125.729 47.1487 125.557 47.1974 125.403 47.2948C125.248 47.3922 125.126 47.5357 125.034 47.7253C124.943 47.915 124.898 48.1476 124.898 48.4232C124.898 48.6988 124.944 48.9315 125.036 49.1211C125.128 49.3107 125.253 49.4542 125.41 49.5516C125.568 49.6491 125.745 49.6978 125.942 49.6978C126.124 49.6978 126.285 49.6589 126.424 49.5812C126.564 49.5024 126.673 49.3916 126.75 49.2486C126.829 49.1045 126.868 48.9351 126.868 48.7403L126.987 48.7652H126.029V48.4232H127.241V48.7652C127.241 49.0273 127.186 49.2553 127.074 49.4491C126.963 49.6428 126.809 49.7931 126.614 49.8998C126.419 50.0055 126.195 50.0584 125.942 50.0584C125.66 50.0584 125.413 49.992 125.199 49.8594C124.987 49.7268 124.821 49.5382 124.702 49.2936C124.584 49.0491 124.525 48.7589 124.525 48.4232C124.525 48.1714 124.558 47.945 124.626 47.744C124.694 47.5419 124.79 47.3699 124.915 47.228C125.039 47.086 125.186 46.9772 125.356 46.9015C125.526 46.8259 125.713 46.7881 125.917 46.7881C126.085 46.7881 126.242 46.8135 126.387 46.8642C126.533 46.914 126.663 46.985 126.777 47.0772C126.892 47.1684 126.988 47.2777 127.064 47.4051C127.141 47.5316 127.194 47.672 127.223 47.8264H126.825Z" fill="white"/>
<path d="M129.991 46.8316H130.376V48.9392C130.376 49.1569 130.325 49.3511 130.222 49.5221C130.121 49.6921 129.977 49.8262 129.792 49.9247C129.606 50.0221 129.389 50.0708 129.139 50.0708C128.889 50.0708 128.672 50.0221 128.486 49.9247C128.301 49.8262 128.157 49.6921 128.054 49.5221C127.952 49.3511 127.902 49.1569 127.902 48.9392V46.8316H128.287V48.9082C128.287 49.0636 128.321 49.2019 128.39 49.3232C128.458 49.4434 128.555 49.5382 128.682 49.6076C128.809 49.676 128.962 49.7102 129.139 49.7102C129.316 49.7102 129.468 49.676 129.596 49.6076C129.723 49.5382 129.821 49.4434 129.888 49.3232C129.956 49.2019 129.991 49.0636 129.991 48.9082V46.8316Z" fill="white"/>
<path d="M132.887 47.6274C132.868 47.4699 132.792 47.3476 132.66 47.2606C132.527 47.1736 132.364 47.13 132.172 47.13C132.031 47.13 131.907 47.1528 131.802 47.1984C131.697 47.244 131.615 47.3067 131.556 47.3865C131.498 47.4663 131.469 47.5569 131.469 47.6585C131.469 47.7435 131.489 47.8165 131.53 47.8777C131.571 47.9378 131.624 47.988 131.688 48.0284C131.753 48.0678 131.82 48.1004 131.89 48.1263C131.961 48.1512 132.026 48.1714 132.085 48.187L132.408 48.274C132.491 48.2958 132.583 48.3258 132.685 48.3642C132.787 48.4025 132.885 48.4548 132.978 48.5211C133.073 48.5864 133.15 48.6704 133.212 48.7729C133.273 48.8755 133.303 49.0014 133.303 49.1506C133.303 49.3226 133.258 49.4781 133.168 49.6169C133.079 49.7558 132.948 49.8661 132.776 49.948C132.605 50.0299 132.398 50.0708 132.153 50.0708C131.925 50.0708 131.728 50.034 131.561 49.9604C131.395 49.8869 131.265 49.7843 131.169 49.6527C131.075 49.5211 131.022 49.3682 131.009 49.1942H131.407C131.417 49.3144 131.458 49.4138 131.528 49.4926C131.6 49.5703 131.69 49.6283 131.799 49.6667C131.909 49.704 132.027 49.7226 132.153 49.7226C132.3 49.7226 132.432 49.6988 132.549 49.6511C132.667 49.6024 132.759 49.5351 132.828 49.4491C132.896 49.362 132.93 49.2605 132.93 49.1444C132.93 49.0387 132.901 48.9527 132.842 48.8864C132.783 48.8201 132.705 48.7662 132.608 48.7248C132.512 48.6833 132.408 48.647 132.296 48.616L131.904 48.504C131.656 48.4325 131.459 48.3305 131.314 48.1978C131.169 48.0652 131.096 47.8916 131.096 47.6771C131.096 47.4989 131.144 47.3435 131.241 47.2109C131.338 47.0772 131.469 46.9736 131.632 46.9C131.797 46.8254 131.981 46.7881 132.184 46.7881C132.389 46.7881 132.572 46.8249 132.731 46.8984C132.891 46.971 133.017 47.0705 133.111 47.1969C133.205 47.3233 133.255 47.4668 133.26 47.6274H132.887Z" fill="white"/>
<path d="M133.763 47.1736V46.8316H136.15V47.1736H135.149V50.0148H134.764V47.1736H133.763Z" fill="white"/>
<path d="M137.131 46.8316V50.0148H136.745V46.8316H137.131ZM136.77 46.5083L137.149 45.7871H137.578L137.093 46.5083H136.77Z" fill="white"/>
<path d="M140.428 46.8316V50.0148H140.055L138.32 47.5155H138.289V50.0148H137.904V46.8316H138.277L140.017 49.3372H140.049V46.8316H140.428Z" fill="white"/>
<path d="M143.412 50.0148H142.43V46.8316H143.456C143.765 46.8316 144.029 46.8953 144.249 47.0228C144.468 47.1492 144.637 47.3311 144.754 47.5683C144.871 47.8046 144.929 48.0875 144.929 48.417C144.929 48.7486 144.87 49.0341 144.752 49.2734C144.634 49.5118 144.462 49.6952 144.236 49.8237C144.01 49.9511 143.736 50.0148 143.412 50.0148ZM142.816 49.6729H143.388C143.651 49.6729 143.869 49.6221 144.042 49.5206C144.215 49.419 144.344 49.2745 144.429 49.0869C144.514 48.8994 144.556 48.6761 144.556 48.417C144.556 48.16 144.514 47.9388 144.431 47.7533C144.347 47.5668 144.221 47.4238 144.054 47.3243C143.888 47.2238 143.68 47.1736 143.431 47.1736H142.816V49.6729Z" fill="white"/>
<path d="M145.576 50.0148V46.8316H147.497V47.1736H145.962V48.2491H147.398V48.5911H145.962V49.6729H147.522V50.0148H145.576Z" fill="white"/>
<path d="M149.554 50.0148H149.149L150.318 46.8316H150.716L151.885 50.0148H151.481L150.53 47.3352H150.505L149.554 50.0148ZM149.703 48.7714H151.332V49.1133H149.703V48.7714Z" fill="white"/>
<path d="M152.381 50.0148V46.8316H153.456C153.705 46.8316 153.909 46.8741 154.069 46.9591C154.228 47.043 154.347 47.1585 154.423 47.3057C154.5 47.4528 154.538 47.6202 154.538 47.8077C154.538 47.9953 154.5 48.1616 154.423 48.3066C154.347 48.4517 154.229 48.5657 154.07 48.6486C153.912 48.7305 153.709 48.7714 153.463 48.7714H152.592V48.4232H153.45C153.62 48.4232 153.757 48.3983 153.861 48.3486C153.965 48.2989 154.041 48.2284 154.087 48.1372C154.135 48.045 154.159 47.9352 154.159 47.8077C154.159 47.6803 154.135 47.5689 154.087 47.4735C154.04 47.3782 153.964 47.3046 153.859 47.2528C153.754 47.2 153.616 47.1736 153.444 47.1736H152.766V50.0148H152.381ZM153.879 48.5849L154.663 50.0148H154.215L153.444 48.5849H153.879Z" fill="white"/>
<path d="M155.181 50.0148V46.8316H157.102V47.1736H155.566V48.2491H157.002V48.5911H155.566V49.6729H157.127V50.0148H155.181Z" fill="white"/>
<path d="M158.953 49.0201H159.376L159.73 49.4864L159.823 49.6107L160.352 50.3133H159.929L159.581 49.847L159.494 49.7288L158.953 49.0201ZM160.482 48.4232C160.482 48.7589 160.422 49.0491 160.3 49.2936C160.179 49.5382 160.013 49.7268 159.802 49.8594C159.59 49.992 159.349 50.0584 159.077 50.0584C158.806 50.0584 158.564 49.992 158.353 49.8594C158.142 49.7268 157.975 49.5382 157.854 49.2936C157.733 49.0491 157.672 48.7589 157.672 48.4232C157.672 48.0875 157.733 47.7973 157.854 47.5528C157.975 47.3083 158.142 47.1197 158.353 46.987C158.564 46.8544 158.806 46.7881 159.077 46.7881C159.349 46.7881 159.59 46.8544 159.802 46.987C160.013 47.1197 160.179 47.3083 160.3 47.5528C160.422 47.7973 160.482 48.0875 160.482 48.4232ZM160.109 48.4232C160.109 48.1476 160.063 47.915 159.971 47.7253C159.88 47.5357 159.756 47.3922 159.599 47.2948C159.444 47.1974 159.27 47.1487 159.077 47.1487C158.884 47.1487 158.71 47.1974 158.553 47.2948C158.398 47.3922 158.274 47.5357 158.182 47.7253C158.091 47.915 158.045 48.1476 158.045 48.4232C158.045 48.6988 158.091 48.9315 158.182 49.1211C158.274 49.3107 158.398 49.4542 158.553 49.5516C158.71 49.6491 158.884 49.6978 159.077 49.6978C159.27 49.6978 159.444 49.6491 159.599 49.5516C159.756 49.4542 159.88 49.3107 159.971 49.1211C160.063 48.9315 160.109 48.6988 160.109 48.4232Z" fill="white"/>
<path d="M163.219 46.8316H163.605V48.9392C163.605 49.1569 163.554 49.3511 163.451 49.5221C163.349 49.6921 163.206 49.8262 163.02 49.9247C162.835 50.0221 162.617 50.0708 162.368 50.0708C162.118 50.0708 161.9 50.0221 161.715 49.9247C161.529 49.8262 161.385 49.6921 161.283 49.5221C161.181 49.3511 161.13 49.1569 161.13 48.9392V46.8316H161.516V48.9082C161.516 49.0636 161.55 49.2019 161.618 49.3232C161.687 49.4434 161.784 49.5382 161.911 49.6076C162.038 49.676 162.19 49.7102 162.368 49.7102C162.545 49.7102 162.697 49.676 162.825 49.6076C162.952 49.5382 163.05 49.4434 163.117 49.3232C163.185 49.2019 163.219 49.0636 163.219 48.9082V46.8316Z" fill="white"/>
<path d="M164.76 46.8316V50.0148H164.375V46.8316H164.76Z" fill="white"/>
<path d="M165.533 50.0148V46.8316H166.609C166.858 46.8316 167.062 46.8767 167.221 46.9668C167.381 47.0559 167.499 47.1767 167.575 47.329C167.652 47.4813 167.69 47.6512 167.69 47.8388C167.69 48.0264 167.652 48.1968 167.575 48.3502C167.5 48.5035 167.383 48.6258 167.224 48.717C167.066 48.8071 166.862 48.8522 166.615 48.8522H165.844V48.5103H166.602C166.773 48.5103 166.911 48.4807 167.014 48.4217C167.118 48.3626 167.193 48.2828 167.24 48.1823C167.287 48.0808 167.311 47.9663 167.311 47.8388C167.311 47.7113 167.287 47.5974 167.24 47.4968C167.193 47.3963 167.117 47.3176 167.013 47.2606C166.908 47.2026 166.769 47.1736 166.596 47.1736H165.918V50.0148H165.533Z" fill="white"/>
<path d="M168.117 50.0148H167.713L168.882 46.8316H169.28L170.449 50.0148H170.044L169.093 47.3352H169.068L168.117 50.0148ZM168.266 48.7714H169.895V49.1133H168.266V48.7714Z" fill="white"/>
</svg>
