<svg width="124" height="124" viewBox="0 0 124 124" fill="none" xmlns="http://www.w3.org/2000/svg">
<path fill-rule="evenodd" clip-rule="evenodd" d="M62 93C79.1208 93 93 79.1208 93 62C93 44.8792 79.1208 31 62 31C44.8792 31 31 44.8792 31 62C31 79.1208 44.8792 93 62 93ZM62 82.6667C73.4137 82.6667 82.6667 73.4137 82.6667 62C82.6667 50.5861 73.4137 41.3333 62 41.3333C50.5861 41.3333 41.3333 50.5861 41.3333 62C41.3333 73.4137 50.5861 82.6667 62 82.6667Z" fill="white"/>
<path d="M92.9997 25.8333C90.1461 25.8333 87.833 28.1465 87.833 31C87.833 33.8534 90.1461 36.1666 92.9997 36.1666C95.8532 36.1666 98.1663 33.8534 98.1663 31C98.1663 28.1465 95.8532 25.8333 92.9997 25.8333Z" fill="white"/>
<path fill-rule="evenodd" clip-rule="evenodd" d="M8.54579 22.093C5.16699 28.7243 5.16699 37.4051 5.16699 54.7667V69.2333C5.16699 86.5949 5.16699 95.2759 8.54579 101.907C11.5179 107.74 16.2602 112.482 22.0933 115.454C28.7246 118.833 37.4054 118.833 54.767 118.833H69.2337C86.5952 118.833 95.2762 118.833 101.907 115.454C107.74 112.482 112.483 107.74 115.455 101.907C118.834 95.2759 118.834 86.5949 118.834 69.2333V54.7667C118.834 37.4051 118.834 28.7243 115.455 22.093C112.483 16.2599 107.74 11.5176 101.907 8.54548C95.2762 5.16669 86.5952 5.16669 69.2337 5.16669H54.767C37.4054 5.16669 28.7246 5.16669 22.0933 8.54548C16.2602 11.5176 11.5179 16.2599 8.54579 22.093ZM69.2337 15.5H54.767C45.9157 15.5 39.8986 15.5081 35.2477 15.888C30.7174 16.2582 28.4007 16.9291 26.7845 17.7525C22.8958 19.7339 19.7343 22.8955 17.7528 26.7842C16.9294 28.4004 16.2585 30.7171 15.8883 35.2474C15.5084 39.8983 15.5003 45.9154 15.5003 54.7667V69.2333C15.5003 78.0849 15.5084 84.1015 15.8883 88.7525C16.2585 93.2832 16.9294 95.5999 17.7528 97.216C19.7343 101.104 22.8958 104.266 26.7845 106.247C28.4007 107.071 30.7174 107.742 35.2477 108.112C39.8986 108.492 45.9157 108.5 54.767 108.5H69.2337C78.0852 108.5 84.1018 108.492 88.7528 108.112C93.2835 107.742 95.6002 107.071 97.2163 106.247C101.105 104.266 104.266 101.104 106.248 97.216C107.071 95.5999 107.742 93.2832 108.112 88.7525C108.492 84.1015 108.5 78.0849 108.5 69.2333V54.7667C108.5 45.9154 108.492 39.8983 108.112 35.2474C107.742 30.7171 107.071 28.4004 106.248 26.7842C104.266 22.8955 101.105 19.7339 97.2163 17.7525C95.6002 16.9291 93.2835 16.2582 88.7528 15.888C84.1018 15.5081 78.0852 15.5 69.2337 15.5Z" fill="white"/>
</svg>
