<svg width="124" height="124" viewBox="0 0 124 124" fill="none" xmlns="http://www.w3.org/2000/svg">
<path fill-rule="evenodd" clip-rule="evenodd" d="M38.998 111.599C85.7894 111.599 111.383 73.4288 111.383 40.3321C111.383 39.2455 111.383 38.1671 111.309 37.0928C116.287 33.5523 120.584 29.1565 124 24.1267C119.362 26.1533 114.433 27.4823 109.393 28.0683C114.7 24.9369 118.674 20.0172 120.578 14.2121C115.58 17.1299 110.118 19.1892 104.42 20.2941C94.7856 10.21 78.6718 9.72137 68.4232 19.2072C61.8202 25.3236 59.0116 34.443 61.0638 43.1414C40.61 42.1282 21.5512 32.618 8.6304 16.9731C1.8786 28.4183 5.332 43.0546 16.5106 50.404C12.462 50.288 8.5002 49.2149 4.96 47.2738V47.5916C4.9662 59.5131 13.5036 69.7781 25.3704 72.1404C21.6256 73.1475 17.6948 73.2936 13.888 72.5672C17.2174 82.7734 26.7716 89.7639 37.6526 89.9654C28.644 96.9363 17.515 100.722 6.0574 100.709C4.0362 100.703 2.015 100.587 0 100.349C11.6374 107.699 25.172 111.599 38.998 111.581" fill="white"/>
</svg>
